<svg id="Layer_1" data-name="Layer 1" xmlns="http://www.w3.org/2000/svg" viewBox="0 0 1404 226.08"><defs><style>.cls-1{fill:#fe0030;}.cls-2{fill:#fff;}</style></defs><path class="cls-1" d="M276.56,107.31q0-27.42,0-54.85a24.73,24.73,0,0,1,.62-5.21c1.59-7,6.4-10.85,14.62-10.88,17.5,0,35-.26,52.5.53,27.74,1.25,43.45,19.5,50.13,39.92,4.32,13.17,5,26.74,4,40.46-.67,9.61-2.34,19-6.31,27.84-8.71,19.35-23.28,31-44.67,33.42a129.16,129.16,0,0,1-13.62.85c-13.19.11-26.38,0-39.57,0-.72,0-1.45,0-2.16,0-8.51-.64-14.55-3.36-15.25-13.91-.16-2.38-.35-4.77-.35-7.16q0-25.51,0-51Zm29,49.25c7.61,0,15,.07,22.3,0a104.59,104.59,0,0,0,13.14-.71c12-1.7,19.26-9.23,23.79-19.88,3.58-8.43,4.64-17.39,4.79-26.43.16-10-.3-20-4.22-29.4-4-9.62-10.57-16.79-21.26-18.87a114.42,114.42,0,0,0-16.61-2c-7.24-.33-14.51-.08-21.93-.08Z"/><path class="cls-1" d="M997,181.84c-5,0-8.89-2-11-6.22-2.69-5.32-5-10.86-7.28-16.37-1.66-4-3.13-8-4.59-12.07a2.34,2.34,0,0,0-2.6-1.81q-27.24.07-54.46,0c-1.62,0-2.16.7-2.67,2-3.35,8.7-6.72,17.39-10.2,26-1.94,4.83-5.07,8.25-10.79,8.4-10.43.27-17.28-8.05-14.22-18.05,2.3-7.52,5.41-14.81,8.29-22.15q17.75-45.19,35.63-90.33a41.34,41.34,0,0,1,6-10.82c7.93-9.76,24.76-9,31.6,1.58,3.08,4.76,5.2,10.2,7.36,15.5q19.57,48.06,38.92,96.22c1.46,3.61,2.59,7.36,3.7,11.1C1013.4,174.37,1004.51,182.39,997,181.84Zm-74.25-58h42.82c-7.15-19.69-14.22-39.16-21.3-58.63h-.6C936.73,84.68,929.79,104.13,922.74,123.88Z"/><path class="cls-1" d="M1065.08,90.68c1.83-1.77,3.64-3.4,5.31-5.16,18.68-19.71,53.9-14.53,67,12,5.39,10.92,6.92,22.46,6.34,34.42a63.9,63.9,0,0,1-6.92,26.65c-11.43,22.11-35.66,27.49-53.66,20.37-6.71-2.65-11.73-7.62-16.43-12.91-.46-.51-.93-1-1.75-1.89-.06,1.31-.13,2.14-.13,3,0,12.93.11,25.87-.16,38.8a27.22,27.22,0,0,1-2.31,9.89c-2,4.58-6.57,6.38-12.58,5.71-5-.55-7.65-2.6-8.84-7.68a48.64,48.64,0,0,1-1.27-10.88q-.14-56.67,0-113.32a30.49,30.49,0,0,1,.73-6.87c1.45-6.3,5.42-9.31,11.83-9.27,6.15,0,10.79,3.63,12,9.58C1064.75,85.56,1064.81,88.1,1065.08,90.68Zm52.15,36.17c-.12-8.13-1.4-16.26-6.29-23.39-4.27-6.22-10.12-10-17.79-10.2-10.48-.29-19.32,5.56-23.61,15.3a44.56,44.56,0,0,0-3.41,17.25c-.17,7.5.5,14.89,4.17,21.6,5,9.13,12.57,14.49,23.29,13.85,9.9-.59,16.13-6.55,20.06-15.22C1116.37,140,1117.16,133.66,1117.23,126.85Z"/><path class="cls-1" d="M1200.15,164.7v2.53c0,12.93.12,25.87-.16,38.8a26.05,26.05,0,0,1-2.34,9.88c-2.35,5.21-7.23,6.06-12.38,5.64s-7.82-2.58-9-7.76A49.24,49.24,0,0,1,1175,202.9q-.13-56.53,0-113.07a32,32,0,0,1,.75-7.11c1.44-6.26,5.44-9.26,11.88-9.19,6.13.06,10.75,3.69,12,9.66.49,2.4.55,4.88.85,7.82.85-.89,1.56-1.55,2.18-2.29,20.63-24.84,59-17.84,71.08,11.08,8.59,20.54,8,41.29-2.85,60.91-11.54,20.76-35.24,25.09-52.44,18.24-6.31-2.51-11.12-7.12-15.62-12-.69-.76-1.36-1.54-2-2.31ZM1253,127c-.8-4.78-1.18-9.67-2.49-14.31-2.45-8.71-7.4-15.6-16.46-18.51-11.38-3.65-23.93,2.54-29.14,14.19a44.34,44.34,0,0,0-3.47,17.23c-.18,7.67.49,15.21,4.3,22,5,9,12.6,14.25,23.21,13.6,9.77-.61,16-6.46,19.92-15C1251.67,140.14,1252.47,133.69,1253,127Z"/><path class="cls-1" d="M780.6,134.38c-2.22,14.46,10.49,29.45,24.78,29.87,9.11.27,16.66-3.09,23.37-8.85,2.85-2.44,5.62-5,8.39-7.51a10.81,10.81,0,0,1,12.06-1.11c3.26,1.94,4.59,6,3.23,10.38-2.27,7.34-7.4,12.4-13.66,16.39a53.05,53.05,0,0,1-25,8c-10.8.8-21.41,0-31.5-4.28-11.77-5-20.22-13.49-24.72-25.36a65.76,65.76,0,0,1,.27-48.84c6.41-16.22,18.88-25.32,35.8-28.41,10.76-2,21.48-1.53,31.88,2.3a44.5,44.5,0,0,1,29,42,29.18,29.18,0,0,1-.47,4.75,10.75,10.75,0,0,1-8.93,9.17,54.92,54.92,0,0,1-10.88,1.44c-16.94.15-33.89.07-50.84.07Zm48.14-15.33c-.39-5.56-1.42-10.82-4.12-15.64-8-14.21-29.27-15.22-38.55-1.82-3.61,5.2-5,11.12-5.71,17.46Z"/><path class="cls-1" d="M543.14,73.4c9.27.22,18.16,1.87,26.42,6.11a46.12,46.12,0,0,1,24.09,29.26c4.56,15.82,4,31.43-3.38,46.35-7.19,14.59-19.36,22.79-35.15,25.69-11.09,2-22.18,1.62-32.79-2.51-17.09-6.65-27.19-19.37-30.74-37.17-2.55-12.84-1.83-25.59,3.32-37.79,6.86-16.26,19.49-25.4,36.59-28.65C535.33,74,539.26,73.82,543.14,73.4Zm26.58,55.95c0-7.88-.71-14.2-3.26-20.18-4-9.43-10.93-15.27-21.43-15.9s-18.79,3.52-23.34,13.08c-6.72,14.1-6.78,28.64-.05,42.75,8.33,17.48,33.23,17.44,42.62,1.53C568.43,143.58,569.64,135.89,569.72,129.35Z"/><path class="cls-1" d="M651.2,91.36c2.42-2.56,4.31-4.7,6.35-6.7,14-13.72,38.83-14.93,52.79-2.47a30,30,0,0,1,10.33,21.19c.54,10,.5,20,.58,29.92.08,10.94,0,21.89,0,32.83a27.11,27.11,0,0,1-.54,5.46c-1.22,6-5.75,10-11.38,10.23-6.75.31-11.6-2.88-13.43-9.14a24.44,24.44,0,0,1-.92-6.59c-.1-16,0-32-.22-47.92a53.64,53.64,0,0,0-1.84-12.5c-2-7.73-7-11.35-15-11.49-13.37-.24-23.71,9.24-24.23,23.13-.6,16-.47,32.08-.73,48.13a28.59,28.59,0,0,1-.72,6.39c-1.63,6.73-6.43,10.19-13.52,10-5.79-.16-10.59-4.46-11.8-10.7a27.76,27.76,0,0,1-.51-5.23q0-38.7,0-77.39a24.25,24.25,0,0,1,.28-3.81c1.28-7.75,5.82-11.48,13.31-11,6.2.39,11,5.83,11.22,12.8C651.25,87.91,651.2,89.34,651.2,91.36Z"/><path class="cls-1" d="M1352.13,181.85c-14.48,0-26-2.09-36-9.24-5.83-4.13-9.78-9.58-11-16.73-1.56-8.77,6-15.44,14.54-12.62a10.62,10.62,0,0,1,4.15,3.05,29,29,0,0,1,3.32,5c4.8,8.18,11.8,12.8,21.37,13.35,5.16.29,10.28.13,14.92-2.45,3.82-2.12,7-4.78,6.9-9.79s-2.37-8.95-7.07-10.65c-7.11-2.57-14.47-4.42-21.62-6.89s-14.69-4.94-21.6-8.31c-6.54-3.19-11.4-8.48-13.19-15.91-2.87-12,2.77-24.1,14.25-30.75a46.29,46.29,0,0,1,20.27-6c11.7-.84,23.16.16,34,5.1,6.24,2.85,11.54,6.88,14.51,13.33,2.4,5.21,1.44,10.52-2.34,13.54s-11.22,3.3-15,.08a42.19,42.19,0,0,1-6.57-6.92c-7.29-9.83-19.42-10.36-27.82-6.87a15.61,15.61,0,0,0-6.23,4.95c-2.73,3.7-1.16,8.63,3.18,11.54,5.23,3.5,11.33,4.64,17.26,6.2,9.49,2.48,19.14,4.44,27.9,9.13,7.66,4.1,14.18,9.45,15.62,18.53,2.15,13.58-3.09,27.64-18.67,34.44A64.56,64.56,0,0,1,1352.13,181.85Z"/><path class="cls-1" d="M458.78,127.76c0,13.49.18,27-.06,40.46-.17,9.63-7.94,15.48-16.85,13.17-5.21-1.35-8.92-6.3-9.36-12.57-.11-1.43-.15-2.87-.15-4.31q0-37,0-74a33.69,33.69,0,0,1,.63-6.88c1.32-6.25,6-9.93,12.27-10,6.55,0,11.6,3.72,13,9.84a29.87,29.87,0,0,1,.62,6.4c.05,12.62,0,25.23,0,37.84Z"/><path class="cls-1" d="M458.89,48c.06,7.66-5.18,13-12.82,13-8.37,0-13.71-5-13.71-12.86,0-7.25,5.71-12.82,13.18-12.86C453.53,35.3,458.83,40.33,458.89,48Z"/><path class="cls-1" d="M111.69,4.4c29-.13,55.25,12.14,74.24,32a111.81,111.81,0,0,1,30.57,77.38V189h-17.2a8.57,8.57,0,0,1-8.35-8.76V113.54a84.17,84.17,0,0,0-23-58.23A76.48,76.48,0,0,0,113,31.19C69.48,30.82,33.85,69.33,33.86,115v65.31a8.56,8.56,0,0,1-8.36,8.76H7.78v-73.6C7.76,55,54,4.65,111.69,4.4Z"/><path class="cls-2" d="M111.92,59.11a50.8,50.8,0,0,1,36.91,16,55.93,55.93,0,0,1,15.29,38.68v20.53H59.74V113.84C59.73,83.63,83.11,59.11,111.92,59.11Z"/><rect class="cls-2" x="59.74" y="161.72" width="104.38" height="27.35"/></svg>