<svg width="32" height="32" viewBox="0 0 32 32" fill="none" xmlns="http://www.w3.org/2000/svg">
<path d="M32 31.292V19.46C32 13.12 28.616 10.17 24.104 10.17C20.463 10.17 18.831 12.173 17.922 13.579V10.655H11.062C11.153 12.592 11.062 31.292 11.062 31.292H17.922V19.767C17.922 19.152 17.966 18.535 18.148 18.095C18.643 16.862 19.772 15.586 21.666 15.586C24.149 15.586 25.141 17.478 25.141 20.252V31.293H32V31.292ZM3.835 7.838C6.226 7.838 7.717 6.252 7.717 4.271C7.673 2.247 6.227 0.707001 3.881 0.707001C1.535 0.707001 0 2.246 0 4.271C0 6.252 1.489 7.838 3.792 7.838H3.835ZM7.265 31.292V10.655H0.406V31.292H7.265Z" fill="#FE0030"/>
</svg>
