<svg width="52" height="47" viewBox="0 0 52 47" fill="none" xmlns="http://www.w3.org/2000/svg">
<path fill-rule="evenodd" clip-rule="evenodd" d="M29.8839 0.285552C39.8033 1.78846 48.3185 9.81781 51.0231 20.2184C51.9193 23.6644 51.8997 23.3364 51.9521 35.7195L52 47L49.7144 46.9969C47.1223 46.9935 46.5727 46.848 45.9868 46.0097L45.6601 45.5422L45.5825 35.4071C45.5278 28.2631 45.4555 25.0057 45.3372 24.3696C44.3976 19.312 42.4709 15.5747 39.1102 12.2908C34.0618 7.35763 26.9304 5.63841 20.4572 7.79371C17.591 8.74794 15.0913 10.348 12.7976 12.6966C9.60946 15.9612 7.71462 19.7356 6.79815 24.6473C6.67924 25.2849 6.60726 28.4818 6.55298 35.546L6.4761 45.5422L6.14944 46.0097C5.55977 46.8531 5.02031 46.9935 2.35376 46.9969L0 47L0.0480276 35.8583C0.100545 23.6496 0.0836746 23.9314 0.96545 20.5402C3.87119 9.36451 12.9011 1.20937 23.6191 0.0809067C25.1792 -0.0833373 28.0733 0.0112105 29.8839 0.285552ZM28.593 14.1624C32.6351 14.9995 36.4233 18.3575 37.992 22.494C38.7712 24.5488 38.9215 25.6976 38.9236 29.6107L38.9253 33.1163H25.9194H12.9133L12.9745 29.2636C13.0449 24.842 13.1805 24.0275 14.219 21.7901C15.6677 18.6696 17.6906 16.55 20.5578 15.1485C23.1156 13.8982 25.7537 13.5745 28.593 14.1624ZM38.9253 43.4597V47H25.932H12.9387V43.4597V39.9193H25.932H38.9253V43.4597Z" fill="#FE0030"/>
<path fill-rule="evenodd" clip-rule="evenodd" d="M28.5928 14.1623C32.6349 14.9994 36.4231 18.3574 37.9918 22.4939C38.771 24.5487 38.9213 25.6974 38.9234 29.6105L38.9251 33.1162H25.9192H12.9131L12.9743 29.2635C13.0447 24.8419 13.1803 24.0274 14.2188 21.79C15.6675 18.6695 17.6904 16.5499 20.5576 15.1483C23.1153 13.8981 25.7535 13.5743 28.5928 14.1623ZM38.9251 43.4596V46.9999H25.9318H12.9385V43.4596V39.9192H25.9318H38.9251V43.4596Z" fill="white"/>
</svg>
