<svg width="57" height="57" viewBox="0 0 57 57" fill="none" xmlns="http://www.w3.org/2000/svg">
<path d="M52.837 15.065C51.026 15.87 49.077 16.413 47.032 16.656C49.12 15.406 50.721 13.426 51.476 11.064C49.523 12.223 47.361 13.064 45.058 13.518C43.215 11.554 40.588 10.326 37.681 10.326C32.1 10.326 27.575 14.851 27.575 20.433C27.575 21.224 27.664 21.995 27.837 22.736C19.437 22.314 11.989 18.291 7.00401 12.176C6.13401 13.668 5.63601 15.404 5.63601 17.258C5.63601 20.764 7.42001 23.858 10.132 25.67C8.47601 25.617 6.91701 25.162 5.55401 24.405C5.55301 24.447 5.55301 24.49 5.55301 24.533C5.55301 29.429 9.037 33.513 13.661 34.443C12.813 34.673 11.92 34.797 10.998 34.797C10.346 34.797 9.713 34.734 9.096 34.615C10.383 38.63 14.115 41.553 18.537 41.634C15.078 44.345 10.721 45.961 5.98501 45.961C5.17001 45.961 4.36501 45.913 3.57401 45.819C8.04801 48.688 13.36 50.36 19.067 50.36C37.658 50.36 47.823 34.96 47.823 21.604C47.823 21.166 47.814 20.729 47.795 20.295C49.769 18.873 51.483 17.092 52.837 15.065Z" fill="#FE0030"/>
</svg>
