<svg id="Layer_1" data-name="Layer 1" xmlns="http://www.w3.org/2000/svg" viewBox="0 0 50 50"><defs><style>.cls-1{fill:#fe0030;}.cls-2{fill:none;stroke:#727272;stroke-miterlimit:10;stroke-width:0.5px;stroke-dasharray:1 1;}.cls-3{fill:#727272;}.cls-4,.cls-5,.cls-6,.cls-7{fill:#fff;}.cls-5{opacity:0.1;}.cls-5,.cls-6{isolation:isolate;}.cls-6{opacity:0.2;}.cls-7{fill-rule:evenodd;}</style></defs><title>app dev</title><path class="cls-1" d="M27.07,11.42H19.36a2.89,2.89,0,0,0-2.9,2.89V29.73a2.9,2.9,0,0,0,2.9,2.9h7.71A2.9,2.9,0,0,0,30,29.73V14.31A2.89,2.89,0,0,0,27.07,11.42ZM25.14,30.7H21.28v-1h3.86Zm3.13-2.89H18.15V14.31H28.27Z"/><circle class="cls-2" cx="23.21" cy="22.02" r="20.29"/><circle class="cls-3" cx="7.58" cy="9.2" r="6.64"/><path class="cls-4" d="M9.79,9.05a1.91,1.91,0,0,1,1.06-1.71,2.2,2.2,0,0,0-1.41-.55A2.11,2.11,0,0,0,8.63,7a1.74,1.74,0,0,1-1.5,0,2.06,2.06,0,0,0-.81-.18A2.13,2.13,0,0,0,4.23,9.22C4.23,11.15,5.55,13,6.32,13a2.36,2.36,0,0,0,1-.2,1.24,1.24,0,0,1,1.18,0,2.44,2.44,0,0,0,1,.2c.54,0,1.3-.93,1.74-2.15A1.86,1.86,0,0,1,9.79,9.05Z"/><path class="cls-4" d="M7.71,6.79A2.1,2.1,0,0,0,9.44,4.71,2.1,2.1,0,0,0,7.71,6.79Z"/><path class="cls-5" d="M6.32,6.88a2.06,2.06,0,0,1,.81.18,2.08,2.08,0,0,0,.75.16,2.08,2.08,0,0,0,.75-.16,2.11,2.11,0,0,1,.81-.18,2.21,2.21,0,0,1,1.35.5l.06,0a2.2,2.2,0,0,0-1.41-.55A2.11,2.11,0,0,0,8.63,7a1.74,1.74,0,0,1-1.5,0,2.06,2.06,0,0,0-.81-.18A2.13,2.13,0,0,0,4.23,9.22s0,0,0,0A2.11,2.11,0,0,1,6.32,6.88Z"/><path class="cls-6" d="M9.44,13a2.27,2.27,0,0,1-1-.2,1.31,1.31,0,0,0-1.18,0,2.2,2.2,0,0,1-1,.2c-.76,0-2.06-1.85-2.08-3.77,0,0,0,0,0,0C4.23,11.15,5.55,13,6.32,13a2.36,2.36,0,0,0,1-.2,1.24,1.24,0,0,1,1.18,0,2.44,2.44,0,0,0,1,.2c.54,0,1.3-.93,1.74-2.15h0C10.71,12.07,10,13,9.44,13Z"/><path class="cls-6" d="M9.44,4.86A2.06,2.06,0,0,1,7.71,6.7v.09a2.1,2.1,0,0,0,1.73-2Z"/><path class="cls-5" d="M7.71,6.7s0-.09,0-.13,0-.09,0-.14A2,2,0,0,1,9.44,4.8a.27.27,0,0,0,0-.09A2.1,2.1,0,0,0,7.71,6.7Z"/><path class="cls-4" d="M9.79,9.05a1.91,1.91,0,0,1,1.06-1.71,2.2,2.2,0,0,0-1.41-.55A2.11,2.11,0,0,0,8.63,7a1.74,1.74,0,0,1-1.5,0,2.06,2.06,0,0,0-.81-.18A2.13,2.13,0,0,0,4.23,9.22C4.23,11.15,5.55,13,6.32,13a2.36,2.36,0,0,0,1-.2,1.24,1.24,0,0,1,1.18,0,2.44,2.44,0,0,0,1,.2c.54,0,1.3-.93,1.74-2.15A1.86,1.86,0,0,1,9.79,9.05ZM9.44,4.71A2.1,2.1,0,0,0,7.71,6.79,2.1,2.1,0,0,0,9.44,4.71Z"/><circle class="cls-3" cx="42.86" cy="17.28" r="6.64"/><path class="cls-4" d="M44.13,13.37l.1-.15.1-.15.22-.33a.08.08,0,0,0,0-.12.09.09,0,0,0-.13,0l-.23.36-.1.15L44,13.3a3,3,0,0,0-2.11,0l-.1-.15-.1-.15-.24-.36a.08.08,0,0,0-.12,0,.1.1,0,0,0,0,.12l.22.33.1.15.1.15a2,2,0,0,0-1.26,1.78h5A2,2,0,0,0,44.13,13.37Zm-2.29,1.07a.27.27,0,1,1,.27-.27A.27.27,0,0,1,41.84,14.44Zm2.13,0a.27.27,0,1,1,.27-.27A.27.27,0,0,1,44,14.44Z"/><path class="cls-4" d="M40.46,15.51h0v3.91A.56.56,0,0,0,41,20h.41a.39.39,0,0,0,0,.15v1.12a.53.53,0,1,0,1.06,0V20.13a.39.39,0,0,0,0-.15h1a.77.77,0,0,0,0,.15v1.12a.54.54,0,1,0,1.07,0V20.13a.77.77,0,0,0,0-.15h.4a.57.57,0,0,0,.57-.56V15.51H40.46Z"/><path class="cls-4" d="M39.53,15.51A.53.53,0,0,0,39,16v2.28a.53.53,0,0,0,1.06,0V16A.53.53,0,0,0,39.53,15.51Z"/><path class="cls-4" d="M46.28,15.51a.53.53,0,0,0-.53.53v2.28a.54.54,0,0,0,1.07,0V16A.54.54,0,0,0,46.28,15.51Z"/><circle class="cls-3" cx="19.75" cy="41.78" r="6.64"/><g id="black"><g id="window_store" data-name="window store"><path id="Window-Store" class="cls-7" d="M18.91,39.25l0,2.38H16.48V39.56Zm0,2.92v2.36l-2.41-.29V42.17Zm.54-3,3.49-.49v2.93l-3.49,0V39.17Zm3.49,3v2.95l-3.48-.48V42.17Z"/></g></g></svg>