<?xml version="1.0" encoding="utf-8"?>
<!-- Generator: Adobe Illustrator 24.3.0, SVG Export Plug-In . SVG Version: 6.00 Build 0)  -->
<svg version="1.1" id="Layer_1" xmlns="http://www.w3.org/2000/svg" xmlns:xlink="http://www.w3.org/1999/xlink" x="0px" y="0px"
	 viewBox="0 0 120 170" style="enable-background:new 0 0 120 170;" xml:space="preserve">
<style type="text/css">
	.st0{fill:#FE0030;}
</style>
<g>
	<g>
		<path class="st0" d="M100,168H21.6C9,168,6.4,160.8,6.4,154.7c0-5.8,2.6-12.8,15.2-12.8h23.1V39.5L24,52.2c-2.3,1.3-4.5,2-6.3,2
			c-3.6,0-6.6-1.5-9-4.5C6.2,46.7,5,43.4,5,39.7c0-4.8,2.2-8.6,6.5-11.3l36-22.2C52.3,3.4,56.9,2,61.3,2c4.6,0,8.4,1.4,11.2,4.2
			c2.8,2.8,4.2,6.7,4.2,11.6v124.1H100c12.4,0,15,7,15,12.8C115,163.4,109.8,168,100,168z M21.6,144c-8.8,0-13.1,3.5-13.1,10.8
			c0,7.5,4.3,11.2,13.1,11.2H100c8.7,0,12.9-3.7,12.9-11.2c0-7.2-4.2-10.8-12.9-10.8H74.6V17.8c0-4.3-1.2-7.7-3.6-10.1
			c-2.5-2.4-5.6-3.6-9.7-3.6c-4,0-8.2,1.3-12.7,4l-36,22.2c-3.7,2.3-5.5,5.4-5.5,9.5c0,3.2,1,6,3.1,8.6c2.1,2.5,4.5,3.8,7.4,3.8
			c1.5,0,3.3-0.6,5.3-1.7l23.8-14.6V144H21.6z"/>
	</g>
</g>
<text transform="matrix(1 0 0 1 375.0101 324.6937)" style="fill:none;stroke:#000000; font-family:'Nunito-Bold'; font-size:225.0909px;">1</text>
<text transform="matrix(1 0 0 1 540.688 414.2895)" style="fill:none;stroke:#000000; font-family:'Nunito-Bold'; font-size:380.5992px;">2</text>
<text transform="matrix(1 0 0 1 -270.8171 206.9551)" style="fill:none;stroke:#000000;stroke-width:2; font-family:'Nunito-Bold'; font-size:380.5992px;">2</text>
</svg>
