<?xml version="1.0" encoding="utf-8"?>
<!-- Generator: Adobe Illustrator 24.3.0, SVG Export Plug-In . SVG Version: 6.00 Build 0)  -->
<svg version="1.1" id="Layer_1" xmlns="http://www.w3.org/2000/svg" xmlns:xlink="http://www.w3.org/1999/xlink" x="0px" y="0px"
	 viewBox="0 0 120 170" style="enable-background:new 0 0 120 170;" xml:space="preserve">
<style type="text/css">
	.st0{fill:#FE0030;}
</style>
<g>
	<g>
		<path class="st0" d="M-48.4,163.3h-78.5c-12.6,0-15.2-7.2-15.2-13.3c0-5.8,2.6-12.8,15.2-12.8h23.1V34.8l-20.7,12.7
			c-2.3,1.3-4.5,2-6.3,2c-3.6,0-6.6-1.5-9-4.5c-2.4-2.9-3.6-6.3-3.6-9.9c0-4.8,2.2-8.6,6.5-11.3l36-22.2c4.8-2.9,9.4-4.3,13.8-4.3
			c4.6,0,8.4,1.4,11.2,4.2c2.8,2.8,4.2,6.7,4.2,11.6v124.1h23.3c12.4,0,15,7,15,12.8C-33.4,158.7-38.6,163.3-48.4,163.3z
			 M-126.9,139.2c-8.8,0-13.1,3.5-13.1,10.8c0,7.5,4.3,11.2,13.1,11.2h78.5c8.7,0,12.9-3.7,12.9-11.2c0-7.2-4.2-10.8-12.9-10.8
			h-25.4V13.1c0-4.3-1.2-7.7-3.6-10.1c-2.5-2.4-5.6-3.6-9.7-3.6c-4,0-8.2,1.3-12.7,4l-36,22.2c-3.7,2.3-5.5,5.4-5.5,9.5
			c0,3.2,1,6,3.1,8.6c2.1,2.5,4.5,3.8,7.4,3.8c1.5,0,3.3-0.6,5.3-1.7l23.8-14.6v108.2H-126.9z"/>
	</g>
</g>
<text transform="matrix(1 0 0 1 375.0101 324.6937)" style="fill:none;stroke:#000000; font-family:'Nunito-Bold'; font-size:225.0909px;">1</text>
<text transform="matrix(1 0 0 1 540.688 414.2895)" style="fill:none;stroke:#000000; font-family:'Nunito-Bold'; font-size:380.5992px;">2</text>
<g>
	<g>
		<path class="st0" d="M104.5,168.2H17.1c-4.3,0-7.7-1.3-10.2-3.9c-2.5-2.6-3.7-5.8-3.7-9.6c0-4.9,1.9-9.3,5.6-13.1l52.5-56.4
			c6.3-6.9,11.1-13.4,14-19.2c2.9-5.7,4.4-11.5,4.4-17.2c0-6.9-2-12.2-5.9-15.8c-3.9-3.6-9.7-5.5-17-5.5c-6.1,0-12.2,1.2-17.9,3.5
			c-5.8,2.3-11.8,5.6-17.6,9.7c-1.6,1.1-3.2,2-4.8,2.7c-1.7,0.7-3.3,1.1-5,1.1c-2.9,0-5.5-1.4-7.6-4.1c-2-2.6-3.1-5.8-3.1-9.4
			c0-2.4,0.5-4.6,1.4-6.4c0.9-1.8,2.3-3.5,4.3-5.2c6.8-5.4,14.9-9.8,24-13c9.1-3.2,18.4-4.8,27.5-4.8c16,0,28.9,4.1,38.5,12.2
			c9.6,8.1,14.5,19.2,14.5,33c0,9.5-2,18.5-6.1,26.8c-4,8.3-10.9,17.6-20.4,27.8l-38.2,40.7h58.5c12.2,0,14.8,6.9,14.8,12.7
			C119.4,163.6,114.2,168.2,104.5,168.2z M56.7,25.5c7.9,0,14.1,2,18.4,6c4.3,4,6.5,9.8,6.5,17.3c0,6-1.5,12-4.6,18.1
			c-3,6-7.8,12.6-14.3,19.7L10.2,143c-3.3,3.5-5,7.4-5,11.7c0,3.3,1,6,3.2,8.2c2.1,2.2,5,3.3,8.7,3.3h87.5c8.6,0,12.8-3.7,12.8-11.2
			c0-7.2-4.2-10.7-12.8-10.7H41.5l41.4-44C92.3,90.2,99,81,103,72.9c3.9-8,5.9-16.8,5.9-25.9c0-13.1-4.6-23.7-13.8-31.5
			C85.8,7.8,73.3,3.8,57.8,3.8c-8.9,0-17.9,1.6-26.8,4.7c-8.9,3.1-16.8,7.3-23.4,12.6c-1.7,1.4-3,2.9-3.8,4.5
			C3,27.1,2.6,29,2.6,31.1c0,3.1,0.9,5.9,2.7,8.1c1.7,2.2,3.7,3.3,6,3.3c1.4,0,2.8-0.3,4.2-0.9c1.5-0.7,3-1.5,4.4-2.6
			c6-4.2,12.1-7.5,18-9.9C44,26.8,50.3,25.5,56.7,25.5z"/>
	</g>
</g>
</svg>
