<svg width="812" height="739" viewBox="0 0 812 739" fill="none" xmlns="http://www.w3.org/2000/svg">
<g clip-path="url(#clip0_757_9529)">
<rect width="583.66" height="536.427" rx="40" transform="matrix(0.918483 0.39546 -0.397556 0.917578 273.918 0)" fill="#7D1E35" fill-opacity="0.7"/>
<path d="M240.513 377.705C240.513 377.705 255.311 457.449 330.363 500.701C405.416 543.952 498.69 533.669 574.504 527.24C650.318 520.811 701.494 469.584 700.404 404.028C699.313 338.473 639.083 328.367 596.821 260.009C554.559 191.651 553.658 167.204 481.04 132.296C408.422 97.3881 309.505 140.665 267.255 225.913C225.005 311.16 240.513 377.705 240.513 377.705Z" fill="#7D1E35"/>
<path opacity="0.7" d="M240.513 377.705C240.513 377.705 255.311 457.449 330.363 500.701C405.416 543.952 498.69 533.669 574.504 527.24C650.318 520.811 701.494 469.584 700.404 404.028C699.313 338.473 639.083 328.367 596.821 260.009C554.559 191.651 553.658 167.204 481.04 132.296C408.422 97.3881 309.505 140.665 267.255 225.913C225.005 311.16 240.513 377.705 240.513 377.705Z" fill="white"/>
<path opacity="0.5" d="M419.542 607.796C528.214 607.796 616.31 601.426 616.31 593.569C616.31 585.711 528.214 579.342 419.542 579.342C310.87 579.342 222.774 585.711 222.774 593.569C222.774 601.426 310.87 607.796 419.542 607.796Z" fill="#F5F5F5"/>
<path d="M494.772 252.414L494.772 253.707L493.479 253.707" stroke="#263238" stroke-width="1.0229" stroke-linecap="round" stroke-linejoin="round"/>
<path d="M490.918 253.707L415.485 253.707" stroke="#263238" stroke-width="1.0229" stroke-linecap="round" stroke-linejoin="round" stroke-dasharray="2.02 2.02"/>
<path d="M414.204 253.707L412.898 253.707L412.898 252.414" stroke="#263238" stroke-width="1.0229" stroke-linecap="round" stroke-linejoin="round"/>
<path d="M412.898 249.915L412.898 191.245" stroke="#263238" stroke-width="1.0229" stroke-linecap="round" stroke-linejoin="round" stroke-dasharray="1.97 1.97"/>
<path d="M412.898 189.99L412.898 188.696L414.204 188.696" stroke="#263238" stroke-width="1.0229" stroke-linecap="round" stroke-linejoin="round"/>
<path d="M416.752 188.696L492.198 188.696" stroke="#263238" stroke-width="1.0229" stroke-linecap="round" stroke-linejoin="round" stroke-dasharray="2.02 2.02"/>
<path d="M493.479 188.696L494.772 188.696L494.772 189.99" stroke="#263238" stroke-width="1.0229" stroke-linecap="round" stroke-linejoin="round"/>
<path d="M494.772 192.488L494.772 251.171" stroke="#263238" stroke-width="1.0229" stroke-linecap="round" stroke-linejoin="round" stroke-dasharray="1.97 1.97"/>
<path d="M481.7 199.082L425.971 199.082L425.971 243.335L481.7 243.335L481.7 199.082Z" fill="white" stroke="#263238" stroke-width="1.0229" stroke-linecap="round" stroke-linejoin="round"/>
<path d="M422.7 195.798L403.578 181.051" stroke="#263238" stroke-width="1.0229" stroke-linecap="round" stroke-linejoin="round"/>
<path d="M485.529 245.516L501.924 259.717" stroke="#263238" stroke-width="1.0229" stroke-linecap="round" stroke-linejoin="round"/>
<path d="M402.817 185.907L402.259 179.631L408.815 179.631" stroke="#263238" stroke-width="1.0229" stroke-linecap="round" stroke-linejoin="round"/>
<path d="M502.368 253.783L503.496 260.63L495.521 260.922" stroke="#263238" stroke-width="1.0229" stroke-linecap="round" stroke-linejoin="round"/>
<path d="M550.717 420.589L523.658 420.589L523.658 430.352L550.717 430.352L550.717 420.589Z" fill="#263238"/>
<path d="M561.71 425.458L544.364 415.453L544.364 435.475L561.71 425.458Z" fill="#263238"/>
<path d="M504.143 353.245L441.91 353.245C437.056 353.245 433.122 357.179 433.122 362.032L433.122 500.219C433.122 505.072 437.056 509.006 441.91 509.006L504.143 509.006C508.996 509.006 512.93 505.072 512.93 500.219L512.93 362.032C512.93 357.179 508.996 353.245 504.143 353.245Z" fill="#E0E0E0" stroke="#263238" stroke-width="0.829236" stroke-linecap="round" stroke-linejoin="round"/>
<path d="M509.393 363.82L436.673 363.82L436.673 499.75L509.393 499.75L509.393 363.82Z" fill="white" stroke="#263238" stroke-width="0.829236" stroke-linecap="round" stroke-linejoin="round"/>
<path d="M495.914 530.448L501.468 508.892C502.075 506.57 502.382 504.179 502.381 501.779L502.381 475.924C502.481 475.591 502.536 475.245 502.545 474.897C502.47 473.746 501.943 472.67 501.079 471.905C500.214 471.14 499.082 470.748 497.93 470.814C496.685 470.79 495.478 471.244 494.557 472.082C494.389 471.004 493.829 470.026 492.985 469.336C492.14 468.645 491.069 468.291 489.98 468.342C489.226 468.327 488.48 468.492 487.803 468.822C487.126 469.153 486.538 469.64 486.087 470.244C485.903 469.181 485.338 468.221 484.498 467.544C483.658 466.868 482.6 466.52 481.522 466.567C480.766 466.555 480.018 466.723 479.34 467.055C478.661 467.388 478.07 467.877 477.617 468.481C477.617 465.058 477.617 448.637 477.046 447.293C475.372 442.969 466.902 444.947 468.411 449.537L468.411 487.514C468.411 484.851 466.433 481.339 465.609 478.752C464.784 476.165 464.341 473.68 462.768 471.524C460.156 467.797 455.553 469.851 455.82 473.731C456.035 477.142 458.508 479.83 459.839 482.924C462.299 488.63 460.828 494.602 463.149 500.333C465.075 503.966 467.218 507.481 469.565 510.858C470.83 513.075 471.83 515.432 472.545 517.883L470.389 530.448" fill="white"/>
<path d="M495.914 530.448L501.468 508.892C502.075 506.57 502.382 504.179 502.381 501.779L502.381 475.924C502.481 475.591 502.536 475.245 502.545 474.897C502.47 473.746 501.943 472.67 501.079 471.905C500.214 471.14 499.082 470.748 497.93 470.814C496.685 470.79 495.478 471.244 494.557 472.082C494.389 471.004 493.829 470.026 492.985 469.336C492.14 468.645 491.069 468.291 489.98 468.342C489.226 468.327 488.48 468.492 487.803 468.822C487.126 469.153 486.538 469.64 486.087 470.244C485.903 469.181 485.338 468.221 484.498 467.544C483.658 466.868 482.6 466.52 481.522 466.567C480.766 466.555 480.018 466.723 479.34 467.055C478.661 467.388 478.07 467.877 477.617 468.481C477.617 465.058 477.617 448.637 477.046 447.293C475.372 442.969 466.902 444.947 468.411 449.537L468.411 487.514C468.411 484.851 466.433 481.339 465.609 478.752C464.784 476.165 464.341 473.68 462.768 471.524C460.156 467.797 455.553 469.851 455.82 473.731C456.035 477.142 458.508 479.83 459.839 482.924C462.299 488.63 460.828 494.602 463.149 500.333C465.075 503.966 467.218 507.481 469.565 510.858C470.83 513.075 471.83 515.432 472.545 517.883L470.389 530.448" stroke="#263238" stroke-width="1.0229" stroke-linecap="round" stroke-linejoin="round"/>
<path d="M473.09 434.207L473.09 441.308" stroke="#263238" stroke-width="1.0229" stroke-linecap="round" stroke-linejoin="round"/>
<path d="M481.078 447.952L486.848 447.952" stroke="#263238" stroke-width="1.0229" stroke-linecap="round" stroke-linejoin="round"/>
<path d="M457.126 447.952L462.895 447.952" stroke="#263238" stroke-width="1.0229" stroke-linecap="round" stroke-linejoin="round"/>
<path d="M465.114 440.42L467.333 443.958" stroke="#263238" stroke-width="1.0229" stroke-linecap="round" stroke-linejoin="round"/>
<path d="M478.415 444.401L481.522 440.42" stroke="#263238" stroke-width="1.0229" stroke-linecap="round" stroke-linejoin="round"/>
<path d="M506.806 416.468L439.386 416.468L439.386 424.9L506.806 424.9L506.806 416.468Z" stroke="#263238" stroke-width="1.0229" stroke-linecap="round" stroke-linejoin="round"/>
<path d="M473.99 371.226L441.605 371.226L441.605 409.811L473.99 409.811L473.99 371.226Z" stroke="#263238" stroke-width="1.0229" stroke-linecap="round" stroke-linejoin="round"/>
<path d="M441.605 371.226L473.977 409.811" stroke="#263238" stroke-width="1.0229" stroke-linecap="round" stroke-linejoin="round"/>
<path d="M440.718 484.331L440.718 429.325L506.362 429.325L506.362 483.887" stroke="#263238" stroke-width="1.0229" stroke-linecap="round" stroke-linejoin="round"/>
<path d="M638.361 353.245L576.128 353.245C571.275 353.245 567.34 357.179 567.34 362.032L567.34 500.219C567.34 505.072 571.275 509.006 576.128 509.006L638.361 509.006C643.214 509.006 647.148 505.072 647.148 500.219L647.148 362.032C647.148 357.179 643.214 353.245 638.361 353.245Z" fill="#E0E0E0" stroke="#263238" stroke-width="0.829236" stroke-linecap="round" stroke-linejoin="round"/>
<path d="M643.61 363.82L570.891 363.82L570.891 499.75L643.61 499.75L643.61 363.82Z" fill="white" stroke="#263238" stroke-width="0.829236" stroke-linecap="round" stroke-linejoin="round"/>
<path d="M640.314 370.338L574.669 370.338L574.669 442.195L640.314 442.195L640.314 370.338Z" stroke="#263238" stroke-width="1.0229" stroke-linecap="round" stroke-linejoin="round"/>
<path d="M574.669 448.84L640.314 448.84" stroke="#263238" stroke-width="1.0229" stroke-linecap="round" stroke-linejoin="round"/>
<path d="M574.669 454.165L640.314 454.165" stroke="#263238" stroke-width="1.0229" stroke-linecap="round" stroke-linejoin="round"/>
<path d="M574.669 459.491L640.314 459.491" stroke="#263238" stroke-width="1.0229" stroke-linecap="round" stroke-linejoin="round"/>
<path d="M574.669 464.816L640.314 464.816" stroke="#263238" stroke-width="1.0229" stroke-linecap="round" stroke-linejoin="round"/>
<path d="M574.669 470.129L640.314 470.129" stroke="#263238" stroke-width="1.0229" stroke-linecap="round" stroke-linejoin="round"/>
<path d="M574.669 475.455L640.314 475.455" stroke="#263238" stroke-width="1.0229" stroke-linecap="round" stroke-linejoin="round"/>
<path d="M574.669 480.78L640.314 480.78" stroke="#263238" stroke-width="1.0229" stroke-linecap="round" stroke-linejoin="round"/>
<path d="M574.669 442.195L640.314 370.338" stroke="#263238" stroke-width="1.0229" stroke-linecap="round" stroke-linejoin="round"/>
<path d="M638.361 174.444L576.128 174.444C571.275 174.444 567.34 178.379 567.34 183.232L567.34 321.418C567.34 326.271 571.275 330.205 576.128 330.205L638.361 330.205C643.214 330.205 647.148 326.271 647.148 321.418L647.148 183.232C647.148 178.379 643.214 174.444 638.361 174.444Z" fill="#E0E0E0" stroke="#263238" stroke-width="0.829236" stroke-linecap="round" stroke-linejoin="round"/>
<path d="M643.61 185.02L570.891 185.02L570.891 320.949L643.61 320.949L643.61 185.02Z" fill="white" stroke="#263238" stroke-width="0.829236" stroke-linecap="round" stroke-linejoin="round"/>
<path d="M486.937 348.604L486.937 307.179L545.226 307.179" stroke="#263238" stroke-width="1.0229" stroke-linecap="round" stroke-linejoin="round"/>
<path d="M543.324 313.646L554.521 307.179L543.324 300.712L543.324 313.646Z" fill="#263238"/>
<path d="M605.773 347.513L605.773 315.712" stroke="#263238" stroke-width="1.0229" stroke-linecap="round" stroke-linejoin="round"/>
<path d="M612.24 317.614L605.773 306.405L599.307 317.614L612.24 317.614Z" fill="#263238"/>
<path d="M575.722 523.183L605.127 523.183" stroke="#263238" stroke-width="1.0229" stroke-linecap="round" stroke-linejoin="round"/>
<path d="M575.722 529.802L605.127 529.802" stroke="#263238" stroke-width="1.0229" stroke-linecap="round" stroke-linejoin="round"/>
<path d="M575.722 536.407L605.127 536.407" stroke="#263238" stroke-width="1.0229" stroke-linecap="round" stroke-linejoin="round"/>
<path d="M504.422 523.183L533.827 523.183" stroke="#263238" stroke-width="1.0229" stroke-linecap="round" stroke-linejoin="round"/>
<path d="M504.422 529.802L533.827 529.802" stroke="#263238" stroke-width="1.0229" stroke-linecap="round" stroke-linejoin="round"/>
<path d="M504.422 536.407L533.827 536.407" stroke="#263238" stroke-width="1.0229" stroke-linecap="round" stroke-linejoin="round"/>
<path d="M496.332 320.303L525.737 320.303" stroke="#263238" stroke-width="1.0229" stroke-linecap="round" stroke-linejoin="round"/>
<path d="M496.332 326.908L525.737 326.908" stroke="#263238" stroke-width="1.0229" stroke-linecap="round" stroke-linejoin="round"/>
<path d="M496.332 333.527L525.737 333.527" stroke="#263238" stroke-width="1.0229" stroke-linecap="round" stroke-linejoin="round"/>
<path d="M518.383 240.178L547.788 240.178" stroke="#263238" stroke-width="1.0229" stroke-linecap="round" stroke-linejoin="round"/>
<path d="M518.383 246.797L547.788 246.797" stroke="#263238" stroke-width="1.0229" stroke-linecap="round" stroke-linejoin="round"/>
<path d="M518.383 253.402L547.788 253.402" stroke="#263238" stroke-width="1.0229" stroke-linecap="round" stroke-linejoin="round"/>
<path d="M412.53 262.964L441.935 262.964" stroke="#263238" stroke-width="1.0229" stroke-linecap="round" stroke-linejoin="round"/>
<path d="M412.53 269.582L441.935 269.582" stroke="#263238" stroke-width="1.0229" stroke-linecap="round" stroke-linejoin="round"/>
<path d="M412.53 276.188L441.935 276.188" stroke="#263238" stroke-width="1.0229" stroke-linecap="round" stroke-linejoin="round"/>
<path d="M269.081 360.536C269.081 360.536 269.081 355.058 261.397 347.374C253.713 339.69 248.717 335.303 248.717 335.303C248.717 335.303 244.913 347.983 252.001 355.591C257.249 360.994 262.942 365.948 269.018 370.401L269.081 360.536Z" fill="#F0F0F0"/>
<path d="M257.935 394.848C257.935 394.848 257.935 389.358 250.251 381.674C242.567 373.99 237.584 369.603 237.584 369.603C237.584 369.603 233.78 382.283 240.868 389.891C246.12 395.29 251.812 400.244 257.885 404.701L257.935 394.848Z" fill="#F0F0F0"/>
<path d="M268.599 369.92C268.599 369.92 269.183 364.467 277.627 357.645C286.072 350.823 291.449 346.969 291.449 346.969C291.449 346.969 293.985 359.928 286.034 366.813C280.249 371.633 274.069 375.959 267.56 379.747L268.599 369.92Z" fill="#F0F0F0"/>
<path d="M255.133 410.393C255.133 410.393 256.274 405.03 265.404 399.133C274.533 393.237 280.265 389.966 280.265 389.966C280.265 389.966 281.381 403.115 272.796 409.125C266.533 413.315 259.929 416.971 253.053 420.055L255.133 410.393Z" fill="#F0F0F0"/>
<path d="M257.656 454.52C257.656 454.52 257.656 449.03 265.341 441.346C273.025 433.662 278.021 429.274 278.021 429.274C278.021 429.274 281.825 441.954 274.736 449.562C269.487 454.968 263.795 459.926 257.72 464.385L257.656 454.52Z" fill="#F0F0F0"/>
<path d="M257.53 465.286C257.53 465.286 258.316 459.859 251.798 451.16C245.281 442.462 241.02 437.415 241.02 437.415C241.02 437.415 235.428 449.372 241.401 457.982C245.822 464.081 250.751 469.794 256.135 475.062L257.53 465.286Z" fill="#F0F0F0"/>
<path d="M249.96 497.214C249.96 497.214 249.96 491.723 257.644 484.039C265.328 476.355 270.324 471.968 270.324 471.968C270.324 471.968 274.128 484.584 267.027 492.256C261.785 497.661 256.097 502.615 250.023 507.066L249.96 497.214Z" fill="#F0F0F0"/>
<path d="M255.082 526.15C255.082 526.15 253.7 520.837 259.14 511.428C264.58 502.02 268.295 496.555 268.295 496.555C268.295 496.555 275.206 507.789 270.26 517.02C266.562 523.577 262.32 529.812 257.58 535.66L255.082 526.15Z" fill="#F0F0F0"/>
<path d="M269.778 359.179C269.386 364.889 268.683 370.574 267.673 376.208C264.63 391.893 257.048 402.024 254.004 416.188C250.961 430.352 259.685 448.623 257.352 466.819C255.019 485.015 247.931 495.146 249.96 507.294C251.988 519.441 262.64 552.333 262.64 552.333" stroke="#263238" stroke-width="1.03476" stroke-linecap="round" stroke-linejoin="round"/>
<path d="M268.523 373.571L276.803 367.219" stroke="#263238" stroke-width="1.03476" stroke-linecap="round" stroke-linejoin="round"/>
<path d="M268.904 366.254L265.442 360.092" stroke="#263238" stroke-width="1.03476" stroke-linecap="round" stroke-linejoin="round"/>
<path d="M254.461 415.542C254.461 415.542 261.397 410.343 268.523 405.145" stroke="#263238" stroke-width="1.03476" stroke-linecap="round" stroke-linejoin="round"/>
<path d="M257.935 404.725C257.935 404.725 252.153 393.402 245.61 385.896" stroke="#263238" stroke-width="1.03476" stroke-linecap="round" stroke-linejoin="round"/>
<path d="M257.935 462.331C261.888 455.036 266.881 448.355 272.758 442.499" stroke="#263238" stroke-width="1.03476" stroke-linecap="round" stroke-linejoin="round"/>
<path d="M256.604 470.027C254.495 465.077 251.98 460.31 249.085 455.775C245.053 449.815 244.469 449.042 244.469 449.042" stroke="#263238" stroke-width="1.03476" stroke-linecap="round" stroke-linejoin="round"/>
<path d="M249.96 507.294C251.714 502.915 253.8 498.676 256.198 494.614C258.598 490.867 261.304 487.326 264.288 484.026" stroke="#263238" stroke-width="1.03476" stroke-linecap="round" stroke-linejoin="round"/>
<path d="M257.593 535.698C257.192 531.537 257.905 527.344 259.66 523.55C262.551 517.958 265.822 510.655 267.179 507.764" stroke="#263238" stroke-width="1.03476" stroke-linecap="round" stroke-linejoin="round"/>
<path d="M218.779 433.877C218.779 433.877 218.183 430.44 222.165 424.785C226.147 419.13 228.771 415.846 228.771 415.846C228.771 415.846 232.575 423.352 228.911 428.944C226.202 432.904 223.165 436.628 219.832 440.077L218.779 433.877Z" fill="#F0F0F0"/>
<path d="M229.481 454.165C229.481 454.165 228.898 450.716 232.88 445.073C236.861 439.431 239.473 436.134 239.473 436.134C239.473 436.134 243.277 443.628 239.613 449.22C236.911 453.177 233.882 456.901 230.559 460.353L229.481 454.165Z" fill="#F0F0F0"/>
<path d="M220.098 439.697C220.098 439.697 219.135 436.337 213.099 432.964C207.063 429.592 203.272 427.74 203.272 427.74C203.272 427.74 203.12 436.134 208.826 439.596C212.975 441.989 217.319 444.029 221.81 445.695L220.098 439.697Z" fill="#F0F0F0"/>
<path d="M232.93 463.612C232.93 463.612 231.662 460.366 225.322 457.652C218.982 454.939 215.001 453.531 215.001 453.531C215.001 453.531 215.736 461.887 221.772 464.728C226.152 466.672 230.686 468.25 235.327 469.445L232.93 463.612Z" fill="#F0F0F0"/>
<path d="M236.138 491.546C236.138 491.546 235.542 488.11 229.887 484.128C224.232 480.147 220.669 477.928 220.669 477.928C220.669 477.928 219.629 486.259 224.929 490.303C228.806 493.122 232.912 495.612 237.203 497.747L236.138 491.546Z" fill="#F0F0F0"/>
<path d="M237.381 498.291C237.381 498.291 236.316 494.944 239.448 488.807C242.58 482.669 244.71 479.018 244.71 479.018C244.71 479.018 249.516 485.903 246.714 491.964C244.596 496.262 242.123 500.377 239.321 504.263L237.381 498.291Z" fill="#F0F0F0"/>
<path d="M247.031 526.048C247.031 526.048 247.424 522.574 252.838 518.275C258.252 513.977 261.714 511.567 261.714 511.567C261.714 511.567 263.236 519.822 258.164 524.159C254.453 527.192 250.496 529.911 246.333 532.287L247.031 526.048Z" fill="#F0F0F0"/>
<path d="M245.598 517.489C245.598 517.489 245.002 514.04 239.359 510.059C233.717 506.077 230.128 503.82 230.128 503.82C230.128 503.82 229.088 512.151 234.401 516.196C238.276 519.018 242.382 521.508 246.676 523.639L245.598 517.489Z" fill="#F0F0F0"/>
<path d="M245.522 536.192C245.522 536.192 245.826 532.705 241.363 527.43C236.899 522.155 234.008 519.087 234.008 519.087C234.008 519.087 230.889 526.885 235.01 532.147C238.045 535.854 241.383 539.302 244.989 542.456L245.522 536.192Z" fill="#F0F0F0"/>
<path d="M218.184 433.078C219.055 436.614 220.113 440.102 221.354 443.526C224.967 453.036 230.826 458.565 234.262 467.124C237.698 475.683 234.262 488.071 237.66 499.23C241.058 510.388 246.65 515.967 246.688 523.804C246.726 531.64 243.645 553.424 243.645 553.424" stroke="#263238" stroke-width="1.03476" stroke-linecap="round" stroke-linejoin="round"/>
<path d="M220.542 441.967L214.658 438.886" stroke="#263238" stroke-width="1.03476" stroke-linecap="round" stroke-linejoin="round"/>
<path d="M219.502 437.427L221.011 433.18" stroke="#263238" stroke-width="1.03476" stroke-linecap="round" stroke-linejoin="round"/>
<path d="M233.907 466.769C233.907 466.769 229 464.233 223.966 461.773" stroke="#263238" stroke-width="1.03476" stroke-linecap="round" stroke-linejoin="round"/>
<path d="M230.559 460.353C232.004 455.79 233.907 451.384 236.24 447.204" stroke="#263238" stroke-width="1.03476" stroke-linecap="round" stroke-linejoin="round"/>
<path d="M236.81 496.478C233.552 492.334 229.708 488.686 225.398 485.649" stroke="#263238" stroke-width="1.03476" stroke-linecap="round" stroke-linejoin="round"/>
<path d="M238.497 501.157C239.275 497.825 240.331 494.563 241.654 491.406C243.543 487.235 243.822 486.677 243.822 486.677" stroke="#263238" stroke-width="1.03476" stroke-linecap="round" stroke-linejoin="round"/>
<path d="M246.46 529.75C248.376 527.379 250.498 525.181 252.8 523.182C254.264 522.108 255.638 520.916 256.908 519.619" stroke="#263238" stroke-width="1.03476" stroke-linecap="round" stroke-linejoin="round"/>
<path d="M246.688 523.804C245.118 521.262 243.355 518.846 241.413 516.576C239.503 514.482 237.42 512.552 235.188 510.807" stroke="#263238" stroke-width="1.03476" stroke-linecap="round" stroke-linejoin="round"/>
<path d="M244.989 542.456C244.79 539.8 243.888 537.244 242.377 535.051C239.955 531.868 237.102 527.633 235.948 525.972" stroke="#263238" stroke-width="1.03476" stroke-linecap="round" stroke-linejoin="round"/>
<path d="M227.96 549.633L278.16 549.633L278.16 587.432C278.16 588.441 277.759 589.408 277.046 590.122C276.333 590.835 275.365 591.236 274.356 591.236L231.815 591.236C230.806 591.236 229.838 590.835 229.125 590.122C228.411 589.408 228.011 588.441 228.011 587.432L228.011 549.633L227.96 549.633Z" fill="#263238"/>
<path d="M277.767 556.189L227.96 556.189C227.443 556.189 226.93 556.087 226.453 555.888C225.975 555.69 225.541 555.399 225.176 555.033C224.811 554.667 224.521 554.232 224.325 553.753C224.128 553.275 224.027 552.763 224.029 552.245V552.245C224.029 551.203 224.443 550.203 225.18 549.466C225.918 548.729 226.917 548.314 227.96 548.314L277.767 548.314C278.809 548.314 279.809 548.729 280.546 549.466C281.284 550.203 281.698 551.203 281.698 552.245V552.245C281.699 552.763 281.599 553.275 281.402 553.753C281.205 554.232 280.916 554.667 280.551 555.033C280.186 555.399 279.752 555.69 279.274 555.888C278.796 556.087 278.284 556.189 277.767 556.189V556.189Z" fill="#263238"/>
<path d="M293.376 578.632C293.376 578.632 290.65 589.131 290.65 591.781C290.65 594.431 289.99 596.207 295.722 597.31C301.453 598.413 305.232 597.754 306.119 595.103C307.007 592.453 307.666 579.165 307.666 579.165L293.718 576.502L293.376 578.632Z" fill="white" stroke="#263238" stroke-width="1.03476" stroke-linecap="round" stroke-linejoin="round"/>
<path d="M306.056 595.116C306.236 594.511 306.363 593.892 306.436 593.265C301.118 593.293 295.807 592.869 290.561 591.997C290.561 594.533 290.067 596.245 295.633 597.31C301.2 598.375 305.206 597.766 306.056 595.116Z" fill="white" stroke="#263238" stroke-width="1.03476" stroke-linecap="round" stroke-linejoin="round"/>
<path d="M427.847 579.621C427.847 579.621 432.273 581.168 438.702 583.159C445.13 585.15 458.216 587.369 459.484 587.584C460.752 587.8 460.752 590.462 459.7 591.578C458.647 592.694 452.84 596.004 445.98 597.766C439.12 599.529 415.865 601.088 413.874 599.77C412.213 598.654 412.771 587.812 413.43 585.378C414.09 582.943 427.847 579.621 427.847 579.621Z" fill="white" stroke="#263238" stroke-width="1.03476" stroke-linecap="round" stroke-linejoin="round"/>
<path d="M459.725 591.578C460.087 591.157 460.336 590.652 460.452 590.109C460.567 589.566 460.544 589.003 460.384 588.472C455.896 592.047 446.931 595.978 437.814 596.891C429.539 597.481 421.23 597.439 412.961 596.764C413.126 598.286 413.418 599.44 413.9 599.77C415.89 601.038 439.133 599.541 446.005 597.766C452.878 595.991 458.622 592.681 459.725 591.578Z" fill="white" stroke="#263238" stroke-width="1.03476" stroke-linecap="round" stroke-linejoin="round"/>
<path d="M320.765 386.619C320.765 386.619 316.961 409.773 319.903 422.63C319.903 422.63 314.336 473.629 313.474 496.352C313.474 496.352 301.478 536.218 299.754 548.644C298.13 558.741 296.002 568.749 293.376 578.632C296.044 580.108 298.942 581.124 301.948 581.638C307.958 582.906 308.808 578.201 308.808 578.201C308.808 578.201 341.776 502.337 344.388 491.191C347 480.045 355.508 440.205 355.508 440.205L391.012 505.355C391.012 505.355 392.736 527.646 397.872 540.504C403.007 553.361 412.872 588.929 412.872 588.929C416.775 589.146 420.686 588.718 424.449 587.661C429.597 585.949 429.597 583.375 429.597 583.375C429.597 583.375 421.875 554.654 421.875 545.233C421.875 535.812 418.883 503.656 416.74 494.653C414.597 485.65 400.015 438.506 397.872 433.358C395.729 428.21 391.012 411.928 391.012 411.928L388.019 386.632C388.019 386.632 351.197 396.915 320.765 386.619Z" fill="#263238" stroke="#263238" stroke-width="1.03476" stroke-linecap="round" stroke-linejoin="round"/>
<path d="M347.963 277.381C347.963 277.381 345.985 273.107 345.985 270.483C345.985 267.858 344.717 255.381 344.717 255.381C344.717 255.381 363.737 220.929 369 214.361C372.432 210.154 376.281 206.305 380.488 202.873C380.488 202.873 393.294 200.248 395.919 200.248C398.544 200.248 401.498 198.98 401.498 197.294C401.498 195.607 397.225 196.026 394.601 196.026C391.976 196.026 388.692 193.731 388.692 193.731C388.692 193.731 392.965 181.494 394.271 176.663C394.968 174.127 397.225 168.789 395.539 168.789C393.852 168.789 393.573 170.057 392.584 172.073C391.595 174.089 387.335 180.607 387.335 180.607L388.311 166.164C388.311 166.164 387.043 164.199 386.016 166.494C384.715 170.038 383.619 173.653 382.732 177.323C382.428 178.472 381.869 179.538 381.096 180.442L379.828 169.677C379.828 169.677 377.597 167.306 377.204 171.414C376.988 173.696 377.204 181.266 377.204 182.572C377.204 183.878 375.936 180.708 375.936 180.708C375.936 180.708 375.162 177.145 374.3 176.663C373.438 176.182 372.664 177.323 373.032 179.947C373.4 182.572 372.702 193.401 372.702 193.401C372.702 193.401 370.737 196.026 367.782 199.64C364.828 203.253 341.154 224.581 332.278 231.479C323.402 238.377 322.439 243.956 321.12 250.841C319.801 257.727 318.495 297.757 318.495 312.225C318.495 326.693 319.763 349.631 320.79 357.189C321.817 364.746 320.004 374.484 318.736 379.784C317.468 385.085 318.736 389.624 322.35 392.249C325.964 394.873 341.37 396.522 354.177 396.522C366.983 396.522 380.107 395.254 384.051 393.897C387.994 392.54 391.012 392.236 391.012 386.999C391.012 381.762 388.387 371.251 388.387 368.296C388.387 365.342 393.65 334.821 393.65 334.821C393.65 334.821 427.125 344.965 433.363 342.695C439.602 340.426 491.78 291.164 491.78 291.164C491.78 291.164 499.984 287.88 504.257 287.22C508.53 286.561 515.086 283.619 515.416 282.63C515.745 281.641 514.756 281.971 512.131 281.971C509.791 282.131 507.477 282.556 505.234 283.239C505.234 283.239 514.198 277.558 515.745 277C516.81 276.607 518.649 274.185 516.075 274.705C512.842 275.352 504.917 277.66 504.917 277.66L515.416 271.091C515.416 271.091 517.051 268.467 515.086 268.467C513.12 268.467 503.268 274.375 503.268 274.375L510.876 267.249C512.36 265.88 511.117 263.94 509.367 264.954L500.491 270.026C498.327 271.292 496.031 272.316 493.644 273.082L492.008 274.071C492.335 272.336 492.555 270.583 492.668 268.822C492.668 267.173 491.679 262.913 489.384 262.583C487.088 262.253 489.054 265.537 489.054 267.173C489.054 268.809 485.77 277.317 485.77 278.661L485.77 282.605C485.77 282.605 474.611 292.444 464.442 297.707C454.273 302.969 431.284 320.353 431.284 320.353C431.284 320.353 405.036 306.887 399.127 301.967C393.218 297.047 386.65 291.138 380.107 285.889C376.71 283.063 373.089 280.519 369.279 278.281L347.963 277.381Z" fill="white" stroke="#263238" stroke-width="1.03476" stroke-linecap="round" stroke-linejoin="round"/>
<path d="M457.645 301.764C446.5 308.89 431.322 320.378 431.322 320.378C431.322 320.378 405.074 306.912 399.165 301.992C393.256 297.072 386.688 291.163 380.145 285.914C376.748 283.088 373.127 280.544 369.317 278.306L347.989 277.329C347.989 277.329 346.011 273.056 346.011 270.432C346.011 267.807 344.743 255.33 344.743 255.33C344.743 255.33 354.57 237.578 362.051 225.088L361.455 224.479C357.778 220.815 352.693 218.837 348.255 217.759C342.067 223.249 335.917 228.537 332.266 231.377C323.39 238.262 322.426 243.854 321.107 250.739C319.789 257.625 318.482 297.655 318.482 312.123C318.482 326.591 319.75 349.529 320.778 357.087C321.805 364.644 320.004 374.484 318.736 379.784C317.468 385.084 318.736 389.624 322.35 392.248C325.964 394.873 341.37 396.521 354.177 396.521C366.983 396.521 380.107 395.253 384.051 393.897C387.994 392.54 391.012 392.236 391.012 386.999C391.012 381.762 388.387 371.25 388.387 368.296C388.387 365.341 393.65 334.821 393.65 334.821C393.65 334.821 427.125 344.965 433.363 342.695C436.685 341.427 453.144 326.845 467.739 313.531C465.083 309.052 461.667 305.071 457.645 301.764Z" fill="#FE0030" stroke="#263238" stroke-width="1.03476" stroke-linecap="round" stroke-linejoin="round"/>
<path d="M383.404 291.76C383.404 291.76 370.191 295.361 369.456 305.365" stroke="#263238" stroke-width="1.03476" stroke-linecap="round" stroke-linejoin="round"/>
<path d="M393.548 334.821C393.548 334.821 378.154 330.586 370.153 322.572" stroke="#263238" stroke-width="1.03476" stroke-linecap="round" stroke-linejoin="round"/>
<path d="M385.002 332.64C385.002 332.64 371.789 336.241 359.781 331.448" stroke="#263238" stroke-width="1.03476" stroke-linecap="round" stroke-linejoin="round"/>
<path d="M329.26 311.376C329.26 311.376 333.432 340.54 353.543 355.071" stroke="#263238" stroke-width="1.03476" stroke-linecap="round" stroke-linejoin="round"/>
<path d="M359.883 363.072C361.417 363.491 363.002 363.858 364.638 364.15" stroke="#263238" stroke-width="1.03476" stroke-linecap="round" stroke-linejoin="round"/>
<path d="M329.26 340.502C334.884 348.891 342.657 355.618 351.767 359.978" stroke="#263238" stroke-width="1.03476" stroke-linecap="round" stroke-linejoin="round"/>
<path d="M325.368 275.757C325.368 275.757 338.174 269.417 345.782 275.352" stroke="#263238" stroke-width="1.03476" stroke-linecap="round" stroke-linejoin="round"/>
<path d="M328.969 246.543C328.969 246.543 340.584 250.55 343.779 258.551" stroke="#263238" stroke-width="1.03476" stroke-linecap="round" stroke-linejoin="round"/>
<path d="M336.577 243.74C339.356 245.983 341.324 249.074 342.181 252.54" stroke="#263238" stroke-width="1.03476" stroke-linecap="round" stroke-linejoin="round"/>
<path d="M391.278 224.86C391.278 224.86 393.257 236.019 393.257 238.973C393.257 241.927 389.972 242.916 391.278 246.847C392.584 250.778 395.552 251.12 394.892 254.455C394.233 257.79 389.972 259.705 389.972 259.705C389.972 259.705 387.677 268.898 385.37 272.829C383.062 276.759 374.541 273.818 374.541 273.818L373.881 284.317C373.881 284.317 370.927 288.59 360.098 287.271C353.864 286.583 347.776 284.923 342.055 282.351L340.406 280.056C340.406 280.056 348.94 275.783 349.282 272.829C349.625 269.874 349.282 262.989 349.282 253.137C349.282 243.284 346.328 224.252 362.406 219.332C378.484 214.412 391.278 224.86 391.278 224.86Z" fill="white" stroke="#263238" stroke-width="1.03476" stroke-linecap="round" stroke-linejoin="round"/>
<path d="M371.231 251.805C371.231 251.805 367.529 243.309 363.382 248.166C360.694 251.323 364.042 260.643 365.677 261.949C367.313 263.255 370.927 262.608 370.927 262.608C370.927 262.608 365.677 267.858 360.098 267.858C354.519 267.858 349.599 262.608 345.985 253.415C342.372 244.222 339.747 228.474 343.69 218.951C347.634 209.428 367.985 209.111 372.575 209.111C377.166 209.111 384.063 211.736 384.063 211.736C384.063 211.736 398.836 210.468 399.165 215.35C399.495 220.232 397.187 220.599 397.187 220.599C397.187 220.599 407.699 226.179 402.766 228.474C397.834 230.769 390.302 229.463 385.369 229.463C384.049 229.386 382.733 229.683 381.574 230.32C380.414 230.957 379.458 231.908 378.814 233.064C378.814 233.064 383.404 236.018 381.768 237.337C380.133 238.656 374.16 241.268 373.564 243.576C372.968 245.883 375.859 249.484 373.881 251.184C371.903 252.883 371.231 251.805 371.231 251.805Z" fill="#263238" stroke="#263238" stroke-width="1.03476" stroke-linecap="round" stroke-linejoin="round"/>
<path d="M389.49 247.836C389.49 249.51 388.793 250.867 387.943 250.867C387.094 250.867 386.409 249.51 386.409 247.836C386.409 246.162 387.107 244.806 387.943 244.806C388.78 244.806 389.49 246.162 389.49 247.836Z" fill="#263238"/>
<path d="M384.114 243.969C384.114 243.969 386.232 239.023 389.592 241.673" stroke="#263238" stroke-width="1.03476" stroke-linecap="round" stroke-linejoin="round"/>
<path d="M355.483 440.204L352.477 434.625L337.477 430.771" stroke="#455A64" stroke-width="1.03476" stroke-linecap="round" stroke-linejoin="round"/>
</g>
<path d="M792.261 55L377.739 55C367.942 55 360 62.9357 360 72.725L360 619.275C360 629.064 367.942 637 377.739 637L792.261 637C802.058 637 810 629.064 810 619.275L810 72.725C810 62.9357 802.058 55 792.261 55Z" stroke="#FE0030" stroke-width="2.5" stroke-linecap="round" stroke-linejoin="round"/>
<rect x="0.781557" y="1.96949" width="580.66" height="533.427" rx="38.5" transform="matrix(0.918517 0.395382 -0.397478 0.917612 214.065 15.8523)" stroke="white" stroke-width="3"/>
<defs>
<clipPath id="clip0_757_9529">
<rect width="583.66" height="536.427" rx="40" transform="matrix(0.918483 0.39546 -0.397556 0.917578 273.918 0)" fill="white"/>
</clipPath>
</defs>
</svg>
