<svg width="1166" height="1518" viewBox="0 0 1166 1518" fill="none" xmlns="http://www.w3.org/2000/svg">
<line y1="-1" x2="1319.3" y2="-1" transform="matrix(-0.794969 0.60665 0.827337 0.561706 1250.06 226.909)" stroke="url(#paint0_linear_720_4508)" stroke-width="2"/>
<line y1="-1" x2="1319.3" y2="-1" transform="matrix(-0.794969 0.60665 0.827337 0.561706 1492.96 220.179)" stroke="url(#paint1_linear_720_4508)" stroke-width="2"/>
<line y1="-1" x2="1319.3" y2="-1" transform="matrix(-0.794969 0.60665 0.827337 0.561706 1426.27 489.726)" stroke="url(#paint2_linear_720_4508)" stroke-width="2"/>
<line y1="-1" x2="1319.3" y2="-1" transform="matrix(-0.794969 0.60665 0.827337 0.561706 1428.39 707.321)" stroke="url(#paint3_linear_720_4508)" stroke-width="2"/>
<line y1="-1" x2="1406.57" y2="-1" transform="matrix(-0.827337 -0.561706 0.794969 -0.60665 1393.58 919.082)" stroke="url(#paint4_linear_720_4508)" stroke-width="2"/>
<line y1="-1" x2="1406.57" y2="-1" transform="matrix(-0.827337 -0.561706 0.794969 -0.60665 1273.67 1211)" stroke="url(#paint5_linear_720_4508)" stroke-width="2"/>
<line y1="-1" x2="1406.57" y2="-1" transform="matrix(-0.827337 -0.561706 0.794969 -0.60665 1362.63 1086.36)" stroke="url(#paint6_linear_720_4508)" stroke-width="2"/>
<line y1="-1" x2="1406.57" y2="-1" transform="matrix(-0.827337 -0.561706 0.794969 -0.60665 1178.98 1382.84)" stroke="url(#paint7_linear_720_4508)" stroke-width="2"/>
<line y1="-1" x2="1319.3" y2="-1" transform="matrix(-0.794969 0.60665 0.827337 0.561706 1224.18 7.2771)" stroke="url(#paint8_linear_720_4508)" stroke-width="2"/>
<line y1="-1" x2="1319.3" y2="-1" transform="matrix(-0.794969 0.60665 0.827337 0.561706 1217.03 156.365)" stroke="url(#paint9_linear_720_4508)" stroke-width="2"/>
<defs>
<linearGradient id="paint0_linear_720_4508" x1="213.467" y1="-54.8001" x2="1455.71" y2="105.359" gradientUnits="userSpaceOnUse">
<stop stop-color="#FE0030"/>
<stop offset="1" stop-color="#230540" stop-opacity="0"/>
</linearGradient>
<linearGradient id="paint1_linear_720_4508" x1="213.467" y1="-54.8001" x2="1455.71" y2="105.359" gradientUnits="userSpaceOnUse">
<stop stop-color="#FE0030"/>
<stop offset="1" stop-color="#230540" stop-opacity="0"/>
</linearGradient>
<linearGradient id="paint2_linear_720_4508" x1="213.467" y1="-54.8001" x2="1455.71" y2="105.359" gradientUnits="userSpaceOnUse">
<stop stop-color="#FE0030"/>
<stop offset="1" stop-color="#230540" stop-opacity="0"/>
</linearGradient>
<linearGradient id="paint3_linear_720_4508" x1="213.467" y1="-54.8001" x2="1455.71" y2="105.359" gradientUnits="userSpaceOnUse">
<stop stop-color="#FE0030"/>
<stop offset="1" stop-color="#230540" stop-opacity="0"/>
</linearGradient>
<linearGradient id="paint4_linear_720_4508" x1="-38.5018" y1="-52.351" x2="1499.97" y2="-89.1042" gradientUnits="userSpaceOnUse">
<stop stop-color="#FE0030"/>
<stop offset="1" stop-color="#230540" stop-opacity="0"/>
</linearGradient>
<linearGradient id="paint5_linear_720_4508" x1="-38.5018" y1="-52.351" x2="1499.97" y2="-89.1042" gradientUnits="userSpaceOnUse">
<stop stop-color="#FE0030"/>
<stop offset="1" stop-color="#230540" stop-opacity="0"/>
</linearGradient>
<linearGradient id="paint6_linear_720_4508" x1="-38.5018" y1="-52.351" x2="1499.97" y2="-89.1042" gradientUnits="userSpaceOnUse">
<stop stop-color="#FE0030"/>
<stop offset="1" stop-color="#230540" stop-opacity="0"/>
</linearGradient>
<linearGradient id="paint7_linear_720_4508" x1="-38.5018" y1="-52.351" x2="1499.97" y2="-89.1042" gradientUnits="userSpaceOnUse">
<stop stop-color="#FE0030"/>
<stop offset="1" stop-color="#230540" stop-opacity="0"/>
</linearGradient>
<linearGradient id="paint8_linear_720_4508" x1="213.467" y1="-54.8001" x2="1455.71" y2="105.359" gradientUnits="userSpaceOnUse">
<stop stop-color="#FE0030"/>
<stop offset="1" stop-color="#230540" stop-opacity="0"/>
</linearGradient>
<linearGradient id="paint9_linear_720_4508" x1="213.467" y1="-54.8001" x2="1455.71" y2="105.359" gradientUnits="userSpaceOnUse">
<stop stop-color="#FE0030"/>
<stop offset="1" stop-color="#230540" stop-opacity="0"/>
</linearGradient>
</defs>
</svg>
