<svg width="720" height="480" viewBox="0 0 720 480" fill="none" xmlns="http://www.w3.org/2000/svg">
<path d="M620.4 92.2751H88.4832V446.88H620.4V92.2751Z" fill="#8F8F8F"/>
<path d="M620.64 92.1599H88.8V115.2H620.64V92.1599Z" stroke="#FF0030" stroke-width="2"/>
<path d="M105.859 102.931C105.859 103.654 105.645 104.362 105.243 104.963C104.841 105.565 104.27 106.033 103.601 106.31C102.933 106.587 102.198 106.659 101.488 106.518C100.779 106.377 100.127 106.029 99.6153 105.517C99.1038 105.006 98.7554 104.354 98.6143 103.645C98.4732 102.935 98.5456 102.2 98.8224 101.531C99.0993 100.863 99.5681 100.292 100.17 99.8899C100.771 99.4879 101.478 99.2734 102.202 99.2734C103.172 99.2734 104.102 99.6588 104.788 100.345C105.474 101.031 105.859 101.961 105.859 102.931Z" fill="#FF001E"/>
<path d="M117.168 102.931C117.168 103.654 116.953 104.362 116.552 104.963C116.15 105.565 115.578 106.033 114.91 106.31C114.242 106.587 113.506 106.659 112.797 106.518C112.087 106.377 111.436 106.029 110.924 105.517C110.413 105.006 110.064 104.354 109.923 103.645C109.782 102.935 109.854 102.2 110.131 101.531C110.408 100.863 110.877 100.292 111.478 99.8899C112.08 99.488 112.787 99.2735 113.51 99.2735C113.991 99.2722 114.467 99.3659 114.912 99.5493C115.356 99.7327 115.76 100.002 116.1 100.342C116.439 100.682 116.709 101.086 116.892 101.53C117.076 101.974 117.169 102.45 117.168 102.931Z" fill="#FFCE00"/>
<path d="M128.486 102.931C128.486 103.654 128.272 104.362 127.87 104.963C127.468 105.565 126.897 106.033 126.229 106.31C125.56 106.587 124.825 106.659 124.115 106.518C123.406 106.377 122.754 106.029 122.242 105.517C121.731 105.006 121.383 104.354 121.241 103.645C121.1 102.935 121.173 102.2 121.45 101.531C121.726 100.863 122.195 100.292 122.797 99.8899C123.398 99.4879 124.105 99.2734 124.829 99.2734C125.799 99.2734 126.729 99.6588 127.415 100.345C128.101 101.031 128.486 101.961 128.486 102.931Z" fill="#00FF85"/>
<path d="M237.802 180.48H216.682L212.65 190.234H201.859L222.134 144.729H232.541L252.883 190.234H241.834L237.802 180.48ZM234.49 172.483L227.27 155.059L220.061 172.483H234.49Z" fill="#FF001E"/>
<path d="M295.018 172.704C295.018 183.696 287.405 190.713 277.594 190.713C272.909 190.713 269.136 189.216 266.602 186.163V190.195H256.915V141.955H267.062V158.928C269.664 156.048 273.235 154.704 277.622 154.704C287.405 154.704 295.018 161.721 295.018 172.704ZM284.746 172.704C284.746 166.665 280.906 163.017 275.837 163.017C270.768 163.017 266.928 166.665 266.928 172.704C266.928 178.742 270.768 182.39 275.837 182.39C280.906 182.39 284.746 178.752 284.746 172.704Z" fill="#FF001E"/>
<path d="M299.174 172.704C299.174 162.144 307.296 154.704 318.374 154.704C329.453 154.704 337.574 162.173 337.574 172.704C337.574 183.235 329.51 190.713 318.374 190.713C307.238 190.713 299.174 183.235 299.174 172.704ZM327.322 172.704C327.322 166.665 323.482 163.017 318.413 163.017C313.344 163.017 309.446 166.665 309.446 172.704C309.446 178.742 313.344 182.4 318.413 182.4C323.482 182.4 327.36 178.752 327.36 172.704H327.322Z" fill="#FF001E"/>
<path d="M379.594 155.222V190.195H369.994V186.038C368.63 187.554 366.954 188.757 365.082 189.564C363.209 190.371 361.184 190.763 359.146 190.714C350.362 190.714 344.189 185.779 344.189 174.979V155.222H354.326V173.462C354.326 179.309 356.928 181.91 361.421 181.91C366.096 181.91 369.475 178.915 369.475 172.483V155.203L379.594 155.222Z" fill="#FF001E"/>
<path d="M411.571 188.506C409.105 190.057 406.227 190.826 403.315 190.714C395.059 190.714 390.25 186.49 390.25 178.166V163.766H384.854V156H390.25V147.485H400.397V156H409.104V163.805H400.397V178.042C400.397 181.027 402.019 182.65 404.746 182.65C406.216 182.67 407.653 182.215 408.845 181.354L411.571 188.506Z" fill="#FF001E"/>
<path d="M470.928 155.222V190.195H461.328V186.038C459.962 187.554 458.284 188.756 456.41 189.563C454.536 190.37 452.51 190.763 450.47 190.714C441.696 190.714 435.514 185.779 435.514 174.979V155.222H445.661V173.462C445.661 179.309 448.262 181.91 452.746 181.91C457.43 181.91 460.81 178.915 460.81 172.483V155.203L470.928 155.222Z" fill="#FF001E"/>
<path d="M476.976 186.941L480.355 179.664C484.022 181.853 488.209 183.02 492.48 183.043C497.165 183.043 498.922 181.805 498.922 179.856C498.922 174.096 477.802 179.99 477.802 166.013C477.802 159.379 483.782 154.704 493.987 154.704C498.787 154.704 504.134 155.808 507.427 157.757L504.048 164.976C500.976 163.235 497.499 162.337 493.968 162.374C489.418 162.374 487.469 163.805 487.469 165.619C487.469 171.6 508.589 165.821 508.589 179.597C508.589 186.096 502.541 190.713 492.077 190.713C486.211 190.713 480.221 189.12 476.976 186.941Z" fill="#FF001E"/>
<path d="M558.97 446.851C538.445 425.28 508.31 414.72 478.502 414.931C456.73 415.075 434.016 421.574 413.789 413.549C395.059 406.118 383.174 388.08 368.611 374.189C345.932 352.737 315.962 340.682 284.746 340.454C263.798 340.387 240.739 345.197 223.459 333.35C211.805 325.353 205.843 311.577 197.654 300.048C173.654 266.246 127.45 252.153 88.7808 267.091V446.611L558.97 446.851Z" fill="#E0E0E0"/>
<path d="M620.4 446.88C620.4 445.248 620.323 308.458 620.198 92.2751L620.4 92.4767H88.56L88.8096 92.2271C88.8096 218.506 88.8096 338.621 88.8096 446.832L88.5792 446.602L620.496 446.832L88.5792 447.062H88.3488V446.832C88.3488 338.621 88.3488 218.506 88.3488 92.2271V91.9775H88.6464H620.487H620.688V92.1791C620.477 308.458 620.4 445.248 620.4 446.88Z" fill="#263238"/>
<path d="M484.973 139.075C484.973 139.277 483.485 139.44 481.651 139.44C479.818 139.44 478.33 139.277 478.33 139.075C478.33 138.874 479.818 138.71 481.651 138.71C483.485 138.71 484.973 138.874 484.973 139.075Z" fill="#263238"/>
<path d="M488.496 130.051C488.698 130.051 488.861 131.558 488.861 133.411C488.861 135.264 488.698 136.781 488.496 136.781C488.294 136.781 488.131 135.274 488.131 133.411C488.131 131.549 488.294 130.051 488.496 130.051Z" fill="#263238"/>
<path d="M492.25 138.854C492.25 138.653 493.738 138.49 495.571 138.49C497.405 138.49 498.883 138.653 498.883 138.854C498.883 139.056 497.405 139.229 495.571 139.229C493.738 139.229 492.25 139.066 492.25 138.854Z" fill="#263238"/>
<path d="M488.726 147.888C488.525 147.888 488.362 146.381 488.362 144.518C488.362 142.656 488.525 141.149 488.726 141.149C488.928 141.149 489.091 142.656 489.091 144.518C489.091 146.381 488.928 147.888 488.726 147.888Z" fill="#263238"/>
<path d="M494.093 144C493.93 144.125 493.277 143.597 492.624 142.819C491.971 142.042 491.578 141.302 491.731 141.168C491.885 141.034 492.538 141.571 493.19 142.349C493.843 143.126 494.246 143.885 494.093 144Z" fill="#263238"/>
<path d="M493.776 133.776C493.92 133.92 493.488 134.592 492.816 135.274C492.144 135.955 491.472 136.387 491.328 136.234C491.184 136.08 491.616 135.427 492.288 134.746C492.96 134.064 493.632 133.632 493.776 133.776Z" fill="#263238"/>
<path d="M486.173 136.387C486.038 136.541 485.414 136.234 484.771 135.696C484.128 135.158 483.706 134.602 483.811 134.448C483.917 134.294 484.57 134.592 485.213 135.13C485.856 135.667 486.298 136.234 486.173 136.387Z" fill="#263238"/>
<path d="M485.875 140.899C486.019 141.034 485.645 141.686 485.03 142.368C484.416 143.05 483.802 143.472 483.648 143.328C483.494 143.184 483.878 142.531 484.493 141.859C485.107 141.187 485.76 140.765 485.875 140.899Z" fill="#263238"/>
<path d="M334.205 214.589C332.529 214.96 330.793 214.96 329.117 214.589C330.791 214.205 332.531 214.205 334.205 214.589Z" fill="#263238"/>
<path d="M336.96 207.667C337.331 209.366 337.331 211.124 336.96 212.822C336.576 211.125 336.576 209.364 336.96 207.667Z" fill="#263238"/>
<path d="M339.782 214.416C341.458 214.045 343.195 214.045 344.87 214.416C343.196 214.8 341.457 214.8 339.782 214.416Z" fill="#263238"/>
<path d="M337.085 221.338C336.714 219.636 336.714 217.874 337.085 216.173C337.456 217.874 337.456 219.636 337.085 221.338Z" fill="#263238"/>
<path d="M341.194 218.371C341.078 218.467 340.579 218.064 340.08 217.469C339.581 216.874 339.264 216.307 339.389 216.202C339.514 216.096 340.013 216.509 340.512 217.104C341.011 217.699 341.318 218.275 341.194 218.371Z" fill="#263238"/>
<path d="M340.963 210.518C341.069 210.633 340.742 211.142 340.224 211.67C339.706 212.198 339.187 212.525 339.082 212.419C338.976 212.313 339.302 211.795 339.821 211.277C340.339 210.758 340.848 210.413 340.963 210.518Z" fill="#263238"/>
<path d="M335.126 212.525C335.03 212.64 334.55 212.409 334.051 211.997C333.552 211.584 333.235 211.152 333.341 211.037C333.446 210.921 333.917 211.152 334.416 211.565C334.915 211.977 335.222 212.4 335.126 212.525Z" fill="#263238"/>
<path d="M334.896 216C335.011 216.106 334.723 216.605 334.253 217.123C333.782 217.642 333.293 217.978 333.197 217.872C333.101 217.766 333.37 217.267 333.84 216.749C334.31 216.23 334.781 215.875 334.896 216Z" fill="#263238"/>
<path d="M469.363 225.35C469.363 225.552 467.875 225.715 466.042 225.715C464.208 225.715 462.72 225.6 462.72 225.35C462.72 225.101 464.198 224.976 466.032 224.976C467.866 224.976 469.363 225.149 469.363 225.35Z" fill="#E0E0E0"/>
<path d="M472.886 216.317C473.088 216.317 473.251 217.824 473.251 219.686C473.251 221.549 473.088 223.056 472.886 223.056C472.685 223.056 472.522 221.549 472.522 219.686C472.522 217.824 472.685 216.317 472.886 216.317Z" fill="#E0E0E0"/>
<path d="M476.64 225.129C476.64 224.928 478.128 224.765 479.962 224.765C481.795 224.765 483.274 224.928 483.274 225.129C483.274 225.331 481.795 225.494 479.962 225.494C478.128 225.494 476.64 225.331 476.64 225.129Z" fill="#E0E0E0"/>
<path d="M473.117 234.163C472.915 234.163 472.752 232.646 472.752 230.793C472.752 228.941 472.915 227.424 473.117 227.424C473.318 227.424 473.482 228.931 473.482 230.793C473.482 232.656 473.28 234.163 473.117 234.163Z" fill="#E0E0E0"/>
<path d="M478.483 230.285C478.32 230.419 477.667 229.891 477.014 229.114C476.362 228.336 475.968 227.587 476.122 227.462C476.275 227.338 476.928 227.856 477.581 228.634C478.234 229.411 478.637 230.16 478.483 230.285Z" fill="#E0E0E0"/>
<path d="M478.166 220.051C478.31 220.195 477.878 220.857 477.206 221.539C476.534 222.221 475.862 222.662 475.718 222.499C475.574 222.336 476.006 221.693 476.678 221.001C477.35 220.31 478.022 219.907 478.166 220.051Z" fill="#E0E0E0"/>
<path d="M470.563 222.653C470.429 222.816 469.805 222.509 469.162 221.971C468.518 221.434 468.096 220.867 468.202 220.714C468.307 220.56 468.96 220.867 469.603 221.405C470.246 221.942 470.688 222.499 470.563 222.653Z" fill="#E0E0E0"/>
<path d="M470.266 227.165C470.41 227.309 470.035 227.962 469.421 228.634C468.806 229.306 468.192 229.747 468.038 229.594C467.885 229.44 468.269 228.797 468.883 228.125C469.498 227.453 470.112 227.03 470.266 227.165Z" fill="#E0E0E0"/>
<path d="M294.413 139.661L294.845 140.697C295.22 141.591 295.767 142.402 296.456 143.084C297.144 143.766 297.96 144.306 298.858 144.672L299.99 145.133L298.906 145.565C297.994 145.936 297.166 146.486 296.472 147.184C295.778 147.882 295.231 148.712 294.864 149.625L294.557 150.374L294.096 149.414C293.271 147.685 291.798 146.35 289.997 145.699L289.037 145.334L290.323 144.72C291.945 143.921 293.216 142.555 293.894 140.88L294.413 139.661Z" fill="#E0E0E0"/>
<path d="M125.808 217.344L126.096 218.035C126.344 218.63 126.708 219.17 127.166 219.623C127.624 220.076 128.167 220.434 128.765 220.675L129.514 220.982L128.794 221.27C128.188 221.518 127.639 221.884 127.177 222.348C126.716 222.811 126.351 223.362 126.106 223.968L125.904 224.467L125.597 223.843C125.049 222.695 124.074 221.806 122.88 221.366L122.227 221.136L123.082 220.723C124.148 220.196 124.989 219.303 125.453 218.208L125.808 217.344Z" fill="#E0E0E0"/>
<path d="M550.656 150.374L550.934 151.065C551.44 152.266 552.399 153.218 553.603 153.715L554.352 154.013L553.642 154.31C553.035 154.554 552.483 154.918 552.02 155.38C551.556 155.842 551.19 156.392 550.944 156.998L550.742 157.507L550.445 156.873C549.892 155.727 548.914 154.842 547.718 154.406L547.066 154.166L547.92 153.753C548.995 153.239 549.841 152.342 550.291 151.238L550.656 150.374Z" fill="#E0E0E0"/>
<path d="M551.933 179.52L552.365 180.557C552.738 181.453 553.284 182.266 553.973 182.95C554.662 183.634 555.479 184.174 556.378 184.541L557.51 184.992L556.426 185.434C555.514 185.804 554.686 186.353 553.99 187.049C553.294 187.745 552.745 188.573 552.374 189.485L552.077 190.243L551.616 189.283C550.791 187.554 549.319 186.219 547.517 185.568L546.557 185.213L547.843 184.589C549.455 183.806 550.725 182.461 551.414 180.806L551.933 179.52Z" fill="#263238"/>
<path d="M374.554 133.373L374.755 133.862C374.935 134.285 375.197 134.668 375.527 134.987C375.857 135.307 376.247 135.558 376.675 135.725L377.203 135.946L376.694 136.147C376.261 136.32 375.867 136.579 375.537 136.91C375.207 137.24 374.947 137.634 374.774 138.067L374.63 138.422L374.41 137.981C374.026 137.167 373.336 136.539 372.49 136.234L372.029 136.07L372.634 135.773C373.392 135.406 373.989 134.774 374.314 133.997L374.554 133.373Z" fill="#263238"/>
<path d="M240.73 212.957L240.989 213.581C241.212 214.122 241.541 214.613 241.956 215.025C242.372 215.437 242.865 215.762 243.408 215.981L244.09 216.259L243.437 216.518C242.886 216.741 242.386 217.072 241.967 217.493C241.548 217.914 241.218 218.415 240.998 218.966L240.816 219.427L240.538 218.851C240.035 217.812 239.146 217.009 238.061 216.614L237.466 216.394L238.243 216.019C239.216 215.544 239.983 214.732 240.403 213.734L240.73 212.957Z" fill="#263238"/>
<path d="M629.107 188.726C620.939 188.731 612.96 191.188 606.204 195.779C599.448 200.37 594.226 206.883 591.214 214.476C588.202 222.069 587.539 230.391 589.311 238.365C591.083 246.339 595.208 253.597 601.152 259.2L595.642 278.496L615.13 267.84C620.729 269.881 626.708 270.67 632.645 270.153C638.582 269.636 644.334 267.825 649.497 264.847C654.659 261.869 659.106 257.796 662.526 252.915C665.946 248.034 668.255 242.463 669.292 236.594C670.328 230.725 670.067 224.701 668.525 218.944C666.984 213.187 664.2 207.837 660.37 203.271C656.54 198.705 651.757 195.033 646.355 192.514C640.954 189.994 635.067 188.688 629.107 188.688V188.726Z" fill="#F5F5F5"/>
<path d="M629.107 188.726C629.107 188.726 629.347 188.726 629.837 188.726L631.968 188.813C632.438 188.813 632.928 188.813 633.542 188.899L635.462 189.178C636.144 189.293 636.883 189.36 637.661 189.533L640.109 190.147C649.985 192.814 658.479 199.135 663.869 207.83L665.136 209.914C665.501 210.643 665.866 211.392 666.23 212.15C668.553 216.989 669.86 222.253 670.07 227.616C670.168 229.536 670.136 231.46 669.974 233.376C669.907 234.336 669.706 235.296 669.571 236.256C669.494 236.746 669.427 237.216 669.35 237.725L668.976 239.184C668.039 243.215 666.46 247.069 664.301 250.598C659.706 258.278 652.723 264.243 644.419 267.581C635.474 271.115 625.583 271.454 616.416 268.541L615.091 268.08H615.293C608.65 271.718 602.131 275.29 595.805 278.736L595.296 279.024L595.45 278.458C597.37 271.805 599.203 265.354 600.97 259.162L601.037 259.402C598.501 256.988 596.27 254.274 594.394 251.318C592.616 248.465 591.185 245.41 590.131 242.218C589.147 239.159 588.525 235.995 588.278 232.79C588.202 232.013 588.173 231.235 588.163 230.467C588.12 229.7 588.12 228.931 588.163 228.163C588.187 226.661 588.319 225.163 588.557 223.68C589.368 218.168 591.302 212.881 594.24 208.147C596.75 204.091 599.935 200.494 603.658 197.51L606.192 195.59L608.755 194.035C609.552 193.542 610.383 193.106 611.242 192.73C612.067 192.355 612.835 191.923 613.642 191.635C616.319 190.57 619.098 189.782 621.936 189.283L625.027 188.832L627.293 188.736H628.685H629.155H628.685L627.302 188.832L625.037 188.966L621.965 189.446C619.145 189.971 616.386 190.778 613.728 191.856C612.931 192.144 612.173 192.586 611.357 192.96C610.503 193.344 609.676 193.783 608.88 194.275L606.307 195.84L603.84 197.76C600.162 200.724 597.019 204.295 594.547 208.32C591.665 213.026 589.78 218.274 589.008 223.738C588.778 225.209 588.649 226.694 588.624 228.182C588.581 228.94 588.581 229.7 588.624 230.458C588.624 231.216 588.624 231.984 588.739 232.762C588.996 235.927 589.617 239.052 590.592 242.074C592.722 248.547 596.438 254.385 601.402 259.056L601.507 259.152L601.459 259.296C599.702 265.478 597.859 271.93 595.968 278.592L595.613 278.304L615.091 267.648L615.187 267.59H615.302L616.618 268.042C625.671 270.922 635.443 270.583 644.275 267.082C652.485 263.786 659.393 257.896 663.946 250.31C666.087 246.823 667.656 243.015 668.592 239.03C668.717 238.55 668.842 238.07 668.957 237.59L669.187 236.131C669.312 235.171 669.514 234.211 669.59 233.251C669.75 231.361 669.785 229.463 669.696 227.568C669.51 222.245 668.233 217.017 665.942 212.208L664.867 209.99L663.619 207.926C660.608 203.041 656.589 198.855 651.83 195.648C648.235 193.235 644.278 191.41 640.109 190.243L637.67 189.6C636.902 189.427 636.163 189.35 635.491 189.226L633.571 188.928C632.995 188.842 632.467 188.851 632.006 188.813L629.875 188.678C629.347 188.755 629.107 188.726 629.107 188.726Z" fill="#263238"/>
<path d="M620.16 223.949H623.04L629.338 215.165V209.405C629.338 209.405 633.802 209.136 633.274 216.682C632.746 224.227 633.274 222.298 633.274 222.298C633.274 222.298 642.739 222.298 643.526 223.162C644.102 223.757 644.362 233.165 644.486 238.272C644.548 239.501 644.197 240.716 643.489 241.723C642.781 242.731 641.757 243.472 640.579 243.83C640.244 243.917 639.899 243.962 639.552 243.965C637.19 243.965 625.152 242.045 625.152 242.045H620.16V223.949Z" fill="#0078FC"/>
<path d="M611.933 222.365L613.709 242.102H618.653V222.758L611.933 222.365Z" fill="#0078FC"/>
<path d="M215.194 230.467C215.03 233.549 211.018 237.658 212.256 240.48C214.541 245.683 213.216 251.914 210.259 256.8C207.302 261.686 202.877 265.44 198.528 269.069C198.748 261.482 198.087 253.895 196.56 246.461C196.08 244.138 195.293 241.546 193.171 240.49C190.416 239.126 186.922 241.094 184.099 239.885C181.094 238.579 180.49 234.47 177.955 232.397C175.661 230.525 172.291 230.726 169.478 231.667C166.666 232.608 164.083 234.192 161.194 234.835C158.304 235.478 154.819 234.902 153.216 232.406C152.256 230.87 152.938 231.811 151.997 230.246C151.997 230.246 146.362 230.438 144.422 223.882C144.422 223.882 141.773 216.595 147.638 213.379C147.638 213.379 148.973 200.208 162.211 206.131C166.051 207.84 170.525 202.349 174.24 204.211C177.331 205.776 178.243 210.077 181.334 211.651C184.886 213.456 189.014 210.768 192.989 210.605C195.535 210.605 197.977 211.616 199.777 213.417C201.577 215.217 202.589 217.659 202.589 220.205C202.589 220.205 203.213 217.574 207.523 218.726C211.834 219.878 215.501 224.458 215.194 230.467Z" fill="#263238"/>
<path d="M209.578 251.664C209.66 250.174 209.384 248.686 208.771 247.325C208.214 246.202 206.131 243.648 203.846 243.485L204.182 229.92C204.208 228.574 203.729 227.267 202.842 226.255C201.954 225.243 200.72 224.598 199.382 224.448L172.8 221.645C170.627 221.415 168.43 221.628 166.342 222.269C164.253 222.911 162.316 223.968 160.647 225.378C158.978 226.788 157.611 228.521 156.63 230.473C155.648 232.425 155.071 234.555 154.934 236.736C154.291 246.96 153.907 259.469 155.117 267.091C157.555 282.451 169.306 284.371 169.306 284.371L169.018 295.085C168.566 306.499 177.11 313.373 185.923 313.373C194.736 313.373 202.877 305.76 202.618 294.461L203.482 259.901C204.97 259.763 206.355 259.079 207.37 257.981C208.831 256.204 209.614 253.965 209.578 251.664Z" fill="#FFBE9D"/>
<path d="M160.829 245.059C160.826 245.576 161.025 246.072 161.384 246.444C161.743 246.815 162.233 247.031 162.749 247.046C163.252 247.076 163.746 246.906 164.125 246.573C164.504 246.241 164.737 245.773 164.774 245.27C164.783 245.013 164.74 244.756 164.648 244.515C164.556 244.274 164.416 244.055 164.236 243.869C164.057 243.684 163.842 243.536 163.605 243.436C163.368 243.335 163.112 243.283 162.854 243.283C162.351 243.254 161.857 243.424 161.478 243.756C161.099 244.089 160.866 244.557 160.829 245.059Z" fill="#263238"/>
<path d="M157.603 243.245C157.843 243.504 159.331 242.4 161.443 242.4C163.555 242.4 165.11 243.466 165.341 243.206C165.446 243.091 165.197 242.63 164.525 242.141C163.609 241.505 162.519 241.17 161.405 241.181C160.307 241.163 159.234 241.5 158.342 242.141C157.699 242.669 157.44 243.13 157.603 243.245Z" fill="#263238"/>
<path d="M181.258 245.453C181.252 245.97 181.451 246.468 181.81 246.84C182.169 247.212 182.661 247.427 183.178 247.44C183.681 247.469 184.175 247.299 184.554 246.967C184.933 246.635 185.166 246.167 185.203 245.664C185.208 245.147 185.01 244.649 184.651 244.277C184.291 243.905 183.8 243.689 183.283 243.677C182.78 243.648 182.286 243.818 181.907 244.15C181.528 244.482 181.295 244.95 181.258 245.453Z" fill="#263238"/>
<path d="M178.406 243.638C178.646 243.898 180.134 242.794 182.246 242.803C184.358 242.813 185.914 243.859 186.144 243.6C186.25 243.485 186.01 243.024 185.328 242.534C184.413 241.899 183.322 241.563 182.208 241.574C181.111 241.562 180.039 241.898 179.146 242.534C178.502 243.062 178.282 243.523 178.406 243.638Z" fill="#263238"/>
<path d="M170.717 259.334C169.6 258.989 168.447 258.779 167.28 258.71C166.742 258.662 166.234 258.547 166.138 258.182C166.097 257.623 166.224 257.065 166.502 256.579L168.096 252.48C170.323 246.614 171.936 241.795 171.686 241.709C171.437 241.622 169.459 246.298 167.242 252.163C166.704 253.603 166.195 254.986 165.715 256.301C165.374 256.952 165.272 257.703 165.427 258.422C165.507 258.612 165.629 258.782 165.783 258.919C165.938 259.055 166.121 259.154 166.32 259.21C166.633 259.295 166.956 259.34 167.28 259.344C168.421 259.49 169.576 259.487 170.717 259.334Z" fill="#263238"/>
<path d="M169.258 284.381C176.481 284.489 183.592 282.591 189.802 278.899C189.802 278.899 184.483 290.419 169.133 289.008L169.258 284.381Z" fill="#EB996E"/>
<path d="M177.446 239.933C177.658 240.509 179.77 240.24 182.246 240.538C184.723 240.835 186.739 241.498 187.046 240.998C187.19 240.749 186.845 240.211 186.038 239.654C184.961 238.959 183.734 238.528 182.458 238.397C181.189 238.245 179.903 238.396 178.704 238.838C177.821 239.213 177.36 239.664 177.446 239.933Z" fill="#263238"/>
<path d="M157.258 238.32C157.632 238.8 159.082 238.32 160.838 238.32C162.595 238.32 164.074 238.637 164.419 238.137C164.573 237.888 164.333 237.408 163.69 236.957C162.819 236.415 161.807 236.143 160.782 236.176C159.757 236.208 158.764 236.543 157.93 237.139C157.296 237.59 157.094 238.08 157.258 238.32Z" fill="#263238"/>
<path d="M171.187 271.315C171.187 271.267 171.331 271.008 171.763 270.739C172.344 270.395 173.008 270.216 173.683 270.221C174.356 270.212 175.019 270.385 175.603 270.72C176.035 270.989 176.227 271.238 176.189 271.286C175.393 270.989 174.559 270.801 173.712 270.73C172.845 270.795 171.994 270.992 171.187 271.315Z" fill="#EB996E"/>
<path d="M202.435 255.744C202.937 255.54 203.424 255.302 203.894 255.034C204.42 254.689 204.856 254.223 205.165 253.675C205.474 253.127 205.647 252.513 205.67 251.885C205.681 251.252 205.542 250.626 205.265 250.057C204.988 249.489 204.581 248.993 204.077 248.611C203.642 248.31 203.142 248.116 202.618 248.045C202.57 247.987 203.328 247.728 204.278 248.314C204.877 248.695 205.367 249.224 205.703 249.849C206.039 250.474 206.21 251.175 206.198 251.885C206.186 252.672 205.939 253.438 205.488 254.083C205.13 254.603 204.657 255.034 204.106 255.341C203.618 255.678 203.023 255.821 202.435 255.744Z" fill="#EB996E"/>
<path d="M151.997 217.987C149.52 224.611 155.405 229.411 159.994 230.467C166.406 231.965 173.222 227.914 177.61 229.632C180.883 230.918 183.974 233.472 187.45 232.944C189.139 232.694 190.81 231.725 192.451 232.166C194.554 232.742 195.408 235.296 195.331 237.475C195.274 240.163 194.371 242.832 194.707 245.501C195.043 248.17 197.424 250.925 200.026 250.214C201.248 249.806 202.318 249.037 203.096 248.009C203.874 246.981 204.323 245.742 204.384 244.454C204.691 240.758 204.01 236.362 204.192 232.656C204.355 229.392 204.365 225.802 202.272 223.277C200.179 220.752 196.646 220.07 193.392 219.629C179.667 217.739 165.807 217.007 151.958 217.44" fill="#263238"/>
<path d="M143.923 219.398C143.84 219.177 143.795 218.944 143.789 218.707C143.753 218.021 143.892 217.338 144.192 216.72C144.667 215.728 145.49 214.945 146.506 214.522C147.148 214.277 147.842 214.201 148.522 214.301C149.242 214.368 149.962 214.56 150.72 214.598C151.507 214.642 152.29 214.47 152.986 214.099C153.745 213.676 154.451 213.164 155.088 212.573C155.779 211.978 156.48 211.325 157.286 210.739C158.126 210.126 159.089 209.704 160.109 209.501C162.312 209.17 164.563 209.553 166.531 210.595C168.576 211.725 170.483 213.087 172.214 214.656C173.896 216.221 175.81 217.517 177.888 218.496C178.873 218.909 179.944 219.073 181.008 218.976C182.016 218.823 182.99 218.499 183.888 218.016C185.573 217.005 187.362 216.181 189.226 215.558C190.901 215.08 192.669 215.024 194.371 215.395C195.775 215.713 197.066 216.407 198.106 217.402C198.882 218.154 199.488 219.064 199.882 220.07C200.127 220.705 200.26 221.377 200.275 222.058C200.288 222.233 200.288 222.41 200.275 222.586C200.275 222.701 200.275 222.758 200.275 222.758C200.263 221.864 200.087 220.979 199.757 220.147C199.347 219.183 198.739 218.316 197.971 217.603C196.954 216.668 195.704 216.025 194.352 215.741C192.708 215.407 191.008 215.48 189.398 215.952C187.565 216.588 185.804 217.418 184.147 218.429C183.189 218.93 182.148 219.255 181.075 219.389C179.935 219.504 178.784 219.335 177.725 218.899C175.6 217.906 173.641 216.592 171.917 215.002C170.214 213.458 168.339 212.114 166.33 210.998C164.458 209.998 162.316 209.618 160.214 209.914C158.208 210.25 156.758 211.661 155.414 212.851C154.746 213.452 154.008 213.971 153.216 214.397C152.455 214.789 151.603 214.968 150.749 214.915C149.952 214.858 149.232 214.656 148.541 214.57C147.896 214.467 147.237 214.526 146.621 214.742C145.657 215.128 144.863 215.847 144.384 216.768C144.073 217.36 143.908 218.019 143.904 218.688C143.885 219.158 144 219.389 143.923 219.398Z" fill="#455A64"/>
<path d="M151.344 230.073C151.124 230.135 150.892 230.135 150.672 230.073C150.348 230.009 150.042 229.877 149.774 229.685C149.506 229.493 149.282 229.246 149.117 228.96C148.654 228.026 148.525 226.962 148.752 225.945C148.978 224.601 149.518 223.328 150.326 222.23C151.306 220.883 152.667 219.859 154.234 219.293C156.032 218.625 158.001 218.574 159.83 219.149C161.776 219.875 163.594 220.905 165.216 222.201C166.903 223.577 168.817 224.648 170.87 225.369C172.968 225.902 175.179 225.782 177.206 225.024C179.123 224.337 180.966 223.459 182.707 222.403C184.305 221.443 185.955 220.575 187.651 219.801C189.142 219.123 190.741 218.71 192.374 218.582C193.563 218.484 194.759 218.629 195.89 219.009C197.021 219.388 198.062 219.995 198.95 220.79C199.411 221.243 199.794 221.768 200.083 222.345C200.186 222.546 200.264 222.759 200.314 222.979C199.943 222.215 199.439 221.522 198.826 220.934C197.94 220.193 196.917 219.634 195.815 219.289C194.713 218.945 193.553 218.822 192.403 218.928C190.812 219.077 189.259 219.502 187.814 220.185C186.14 220.965 184.512 221.84 182.938 222.806C181.174 223.885 179.305 224.782 177.36 225.485C175.238 226.28 172.923 226.408 170.726 225.849C168.635 225.106 166.687 224.008 164.966 222.605C163.391 221.332 161.625 220.315 159.734 219.59C157.997 219.035 156.125 219.065 154.406 219.677C152.909 220.211 151.6 221.172 150.643 222.441C149.847 223.486 149.308 224.703 149.069 225.993C148.823 226.955 148.915 227.971 149.328 228.873C149.47 229.149 149.666 229.392 149.906 229.589C150.145 229.785 150.422 229.931 150.72 230.016C150.926 230.053 151.135 230.072 151.344 230.073Z" fill="#455A64"/>
<path d="M210.134 255.658C210.134 255.658 210.48 255.197 210.989 254.314C211.687 253.053 212.078 251.645 212.131 250.205C212.175 249.231 212.051 248.257 211.766 247.325C211.414 246.246 210.896 245.229 210.23 244.31C209.558 243.35 208.762 242.294 208.061 241.142C207.264 239.961 206.828 238.574 206.803 237.149C206.94 235.744 207.379 234.385 208.09 233.165C208.703 232.081 209.07 230.874 209.165 229.632C209.191 228.583 208.944 227.546 208.447 226.621C207.951 225.697 207.222 224.918 206.333 224.362C205.093 223.628 203.639 223.344 202.214 223.555C201.695 223.648 201.182 223.773 200.678 223.93C200.787 223.843 200.906 223.772 201.034 223.718C201.404 223.559 201.79 223.439 202.186 223.363C203.662 223.066 205.196 223.312 206.506 224.054C207.473 224.627 208.271 225.446 208.819 226.427C209.367 227.409 209.645 228.518 209.626 229.642C209.539 230.952 209.165 232.226 208.531 233.376C207.856 234.535 207.437 235.824 207.302 237.158C207.326 238.491 207.736 239.789 208.483 240.893C209.155 242.006 209.942 243.024 210.614 244.051C211.294 245.017 211.819 246.082 212.17 247.21C212.454 248.201 212.561 249.234 212.486 250.262C212.404 251.726 211.962 253.147 211.2 254.4C210.991 254.742 210.75 255.064 210.48 255.36C210.24 255.571 210.144 255.667 210.134 255.658Z" fill="#455A64"/>
<path d="M169.92 244.454C169.831 243.651 169.696 242.852 169.517 242.064C169.177 240.75 168.566 239.521 167.724 238.456C166.881 237.391 165.825 236.515 164.624 235.882C163.423 235.249 162.103 234.875 160.748 234.782C159.394 234.689 158.035 234.881 156.758 235.344C154.976 236.011 153.425 237.182 152.294 238.714C151.082 240.362 150.428 242.355 150.428 244.402C150.428 246.448 151.082 248.441 152.294 250.09C152.855 250.882 153.543 251.576 154.33 252.144C155.066 252.706 155.885 253.149 156.758 253.459C158.276 254.018 159.909 254.188 161.509 253.953C163.109 253.718 164.624 253.087 165.917 252.115C167.677 250.79 168.944 248.915 169.517 246.787C169.695 246.002 169.83 245.207 169.92 244.406C169.98 245.222 169.909 246.042 169.709 246.835C169.198 249.084 167.914 251.082 166.08 252.48C164.747 253.511 163.175 254.189 161.51 254.45C159.846 254.712 158.142 254.549 156.557 253.978C155.636 253.66 154.771 253.2 153.994 252.614C153.171 252.019 152.449 251.296 151.853 250.474C150.568 248.744 149.875 246.647 149.875 244.493C149.875 242.339 150.568 240.242 151.853 238.512C153.04 236.902 154.677 235.68 156.557 234.998C158.255 234.391 160.084 234.248 161.856 234.586C163.736 234.952 165.471 235.85 166.855 237.175C168.238 238.499 169.212 240.192 169.661 242.054C169.873 242.836 169.961 243.646 169.92 244.454Z" fill="#263238"/>
<path d="M192.422 244.454C192.34 243.65 192.205 242.851 192.019 242.064C191.68 240.75 191.071 239.521 190.229 238.457C189.387 237.392 188.333 236.515 187.132 235.882C185.932 235.25 184.612 234.875 183.258 234.782C181.904 234.689 180.546 234.881 179.27 235.344C177.483 236.008 175.928 237.179 174.797 238.714C173.584 240.362 172.93 242.355 172.93 244.402C172.93 246.448 173.584 248.441 174.797 250.09C175.36 250.88 176.047 251.574 176.832 252.144C177.573 252.704 178.395 253.147 179.27 253.459C180.539 253.919 181.888 254.111 183.234 254.022C184.58 253.933 185.893 253.565 187.09 252.943C188.286 252.32 189.341 251.456 190.186 250.404C191.031 249.353 191.649 248.138 192 246.835C192.184 246.051 192.319 245.256 192.403 244.454C192.47 245.27 192.398 246.091 192.192 246.883C191.693 249.104 190.437 251.083 188.64 252.48C187.307 253.511 185.735 254.189 184.07 254.45C182.406 254.712 180.702 254.549 179.117 253.978C178.196 253.66 177.331 253.2 176.554 252.614C175.729 252.018 175.003 251.296 174.403 250.474C173.125 248.742 172.435 246.646 172.435 244.493C172.435 242.34 173.125 240.244 174.403 238.512C175.597 236.905 177.236 235.683 179.117 234.998C180.815 234.391 182.644 234.248 184.416 234.586C186.294 234.955 188.026 235.854 189.408 237.178C190.789 238.502 191.762 240.194 192.211 242.054C192.413 242.837 192.485 243.648 192.422 244.454Z" fill="#263238"/>
<path d="M173.222 242.803V242.899V242.726V242.918C172.693 243.036 172.151 243.088 171.61 243.072C170.65 243.072 169.853 242.957 169.853 242.822C169.853 242.688 170.64 242.573 171.61 242.573C172.152 242.552 172.694 242.604 173.222 242.726V242.918V242.746V242.842V242.803Z" fill="#263238"/>
<path d="M204.278 244.973C202.261 245.083 200.238 245.022 198.23 244.79C196.212 244.732 194.201 244.504 192.221 244.109C194.238 244.01 196.261 244.071 198.269 244.291C200.287 244.355 202.297 244.583 204.278 244.973Z" fill="#263238"/>
<path d="M179.52 258.806C179.699 259.303 179.722 259.842 179.587 260.352C179.382 261.629 178.715 262.787 177.714 263.606C176.713 264.425 175.446 264.848 174.154 264.797C173.625 264.829 173.099 264.698 172.646 264.422C172.646 264.346 173.242 264.499 174.154 264.422C175.34 264.382 176.48 263.953 177.399 263.202C178.318 262.451 178.965 261.42 179.242 260.266C179.52 259.392 179.462 258.806 179.52 258.806Z" fill="#263238"/>
<path d="M141.494 327.725C141.507 327.827 141.507 327.93 141.494 328.032V328.934C141.494 329.76 141.494 330.931 141.542 332.41C141.542 335.453 141.542 339.802 141.61 345.168C141.61 355.939 141.283 370.819 140.448 387.235C139.613 403.651 138.749 418.483 138.163 429.274C137.894 434.621 137.674 438.97 137.52 442.013C137.443 443.491 137.386 444.643 137.347 445.469C137.347 445.843 137.299 446.141 137.29 446.371C137.3 446.473 137.3 446.576 137.29 446.678C137.275 446.577 137.275 446.473 137.29 446.371C137.29 446.141 137.29 445.843 137.29 445.469C137.29 444.643 137.338 443.482 137.376 442.003C137.462 438.989 137.616 434.63 137.856 429.254C138.307 418.493 139.181 403.632 139.997 387.216C140.813 370.8 141.254 355.93 141.312 345.158C141.312 339.802 141.379 335.453 141.398 332.41C141.398 330.931 141.398 329.76 141.446 328.934V328.032C141.45 327.928 141.466 327.825 141.494 327.725Z" fill="#263238"/>
<path d="M234.24 311.194C229.075 305.232 218.986 304.358 214.512 307.594C210.038 310.829 207.552 316.32 207.101 321.821C206.65 327.322 208.061 332.842 210.154 337.939C213.523 346.118 218.506 352.742 225.946 361.171L245.146 386.342L208.138 422.477L223.498 446.678L254.957 421.334L280.973 393.763" fill="#E12B4D"/>
<path d="M100.426 388.8C101.026 388.359 101.703 388.034 102.422 387.84C104.124 387.266 105.919 387.022 107.712 387.12C109.509 387.218 111.271 387.655 112.906 388.406C113.614 388.672 114.266 389.069 114.826 389.578C114.826 389.645 114.058 389.222 112.81 388.733C111.187 388.094 109.472 387.718 107.731 387.619C105.991 387.534 104.248 387.722 102.566 388.176C101.232 388.531 100.464 388.877 100.426 388.8Z" fill="#263238"/>
<path d="M239.222 316.848C226.31 299.721 212.41 301.133 205.325 300.931V293.414C200.093 293.414 192.941 298.128 189.245 301.497L185.587 306.518C184.648 303.769 183.078 301.277 181.005 299.242C178.932 297.207 176.411 295.685 173.645 294.797C171.649 294.163 169.604 293.701 167.53 293.414V300.134C150.173 300.624 140.89 305.366 129.293 318.787C128.698 319.478 127.517 320.659 126.163 321.993L91.8528 362.313C84.8448 370.07 78.4128 380.745 79.92 391.113C81.5616 402.787 88.368 410.467 101.395 419.27L137.491 442.665L137.318 446.688H223.459C223.459 446.688 281.875 403.593 283.306 387.629C284.419 375.014 264.298 348.278 239.222 316.848ZM138.941 408.345L113.683 389.501L140.966 361.267L138.941 408.345ZM221.654 409.843L220.973 395.894L224.64 359.251C231.84 367.507 245.165 383.894 245.165 386.342L221.654 409.843Z" fill="#3B73A9"/>
<path d="M205.306 300.969C205.123 301.369 204.904 301.751 204.653 302.112C204.192 302.822 203.53 303.849 202.656 305.088C200.407 308.335 197.879 311.38 195.101 314.189C194.285 315.014 193.459 315.792 192.653 316.531L192.25 316.905V316.358C192.203 313.204 190.937 310.19 188.717 307.949C188.132 307.247 187.374 306.711 186.518 306.393C186.189 306.329 185.848 306.387 185.558 306.557C185.671 306.416 185.821 306.31 185.99 306.251C186.16 306.192 186.343 306.181 186.518 306.221C187.443 306.48 188.273 307 188.909 307.718C189.948 308.707 190.806 309.87 191.443 311.155C192.239 312.773 192.672 314.546 192.71 316.349L192.307 316.166C193.094 315.427 193.92 314.659 194.726 313.833C197.48 311.037 200.031 308.047 202.358 304.886L204.47 302.006C204.713 301.633 204.993 301.286 205.306 300.969Z" fill="#263238"/>
<path d="M167.51 300.173C167.791 300.443 168.042 300.742 168.259 301.066L170.179 303.59C171.782 305.741 173.952 308.736 176.333 312.058L177.888 314.227L177.456 314.294C177.92 312.743 178.565 311.251 179.376 309.85C180.047 308.712 181.003 307.768 182.15 307.114C182.907 306.676 183.763 306.438 184.637 306.422C184.963 306.389 185.292 306.435 185.597 306.557C185.597 306.557 185.27 306.557 184.637 306.557C183.809 306.641 183.01 306.913 182.304 307.354C181.239 308.025 180.356 308.948 179.731 310.042C178.959 311.426 178.341 312.891 177.888 314.41L177.734 314.861L177.456 314.477L175.901 312.307C173.52 308.986 171.389 305.962 169.862 303.763C169.162 302.717 168.566 301.843 168.086 301.142C167.86 300.841 167.667 300.516 167.51 300.173Z" fill="#263238"/>
<g opacity="0.1">
<path d="M185.568 306.557C187.007 308.133 188.087 310.002 188.735 312.035C189.383 314.069 189.583 316.218 189.322 318.336C189.139 319.738 188.976 321.61 190.282 322.128C191.194 322.483 192.202 321.859 192.941 321.245C198.542 316.732 203.15 311.11 206.477 304.733C206.799 304.231 206.972 303.649 206.976 303.053C206.969 302.757 206.848 302.476 206.639 302.267C206.43 302.058 206.148 301.937 205.853 301.93C205.458 302.039 205.117 302.288 204.893 302.63C200.899 307.238 196.483 312.029 192.49 316.627C192.669 314.068 191.878 311.534 190.272 309.533C188.688 307.613 186.96 305.626 185.597 306.557" fill="black"/>
</g>
<path d="M222.403 445.075C222.29 444.951 222.191 444.816 222.106 444.672C221.894 444.365 221.635 443.961 221.299 443.462L218.352 438.893C215.846 434.918 212.342 429.379 208.262 422.937L208.166 422.774L208.301 422.649L217.306 413.664L236.899 394.272C239.395 391.833 241.43 389.856 242.87 388.435L244.522 386.87C244.706 386.679 244.905 386.503 245.117 386.342C244.959 386.556 244.782 386.755 244.589 386.937C244.195 387.35 243.629 387.897 243.014 388.579L237.12 394.56L217.622 414.057C214.454 417.216 211.402 420.24 208.608 423.014V422.726C212.621 429.206 216.077 434.774 218.544 438.777C219.734 440.697 220.694 442.291 221.376 443.424C221.683 443.933 221.923 444.384 222.115 444.672C222.226 444.795 222.323 444.93 222.403 445.075Z" fill="#263238"/>
<path d="M211.814 310.704L211.67 310.886L211.229 311.405C210.816 311.846 210.269 312.538 209.578 313.44C207.678 316.031 206.418 319.034 205.901 322.205C205.289 326.932 206.031 331.736 208.042 336.058C209.134 338.638 210.554 341.068 212.266 343.286C214.08 345.6 216 347.914 217.968 350.4C225.715 360.163 232.368 369.254 237.264 375.782L243.024 383.53C243.686 384.413 244.205 385.123 244.589 385.642L244.982 386.198L245.107 386.39C245.107 386.39 245.04 386.342 244.944 386.227L244.512 385.699L242.88 383.597C241.469 381.802 239.453 379.19 236.976 375.917C232.022 369.446 225.312 360.384 217.584 350.64C215.664 348.192 213.744 345.84 211.882 343.565C210.151 341.306 208.719 338.835 207.619 336.211C205.596 331.808 204.879 326.917 205.555 322.118C206.298 318.035 208.267 314.274 211.2 311.338L211.68 310.858C211.747 310.752 211.805 310.694 211.814 310.704Z" fill="#263238"/>
<path d="M244.195 323.098C244.195 323.146 243.667 323.328 242.765 323.808C241.503 324.504 240.354 325.388 239.357 326.429C237.886 327.986 236.598 329.706 235.517 331.555C234.201 333.866 232.769 336.109 231.226 338.275C229.777 340.247 227.903 341.868 225.742 343.018C223.582 344.168 221.191 344.818 218.746 344.918C217.277 344.992 215.806 344.853 214.378 344.506C213.99 344.418 213.608 344.306 213.235 344.17C213.103 344.126 212.974 344.072 212.851 344.006C214.773 344.469 216.752 344.656 218.726 344.563C220.858 344.418 222.941 343.86 224.861 342.922C227.206 341.769 229.241 340.07 230.794 337.968C232.493 335.76 233.779 333.398 235.085 331.344C236.201 329.478 237.539 327.754 239.069 326.208C240.111 325.166 241.317 324.303 242.64 323.654C243.001 323.486 243.373 323.341 243.754 323.222C243.894 323.161 244.043 323.119 244.195 323.098Z" fill="#FAFAFA"/>
<path d="M221.299 407.51H221.069L220.426 407.357C220.138 407.28 219.782 407.232 219.36 407.165C218.877 407.084 218.39 407.03 217.901 407.001C214.767 406.858 211.632 407.261 208.637 408.192C206.555 408.791 204.518 409.535 202.541 410.419C200.41 411.379 198.202 412.55 195.821 413.673C193.334 414.895 190.737 415.879 188.064 416.611C186.636 416.979 185.177 417.211 183.706 417.302C182.184 417.375 180.66 417.265 179.165 416.976C176.245 416.315 173.457 415.166 170.918 413.577C168.442 412.099 166.224 410.419 164.102 408.864C159.907 405.715 155.894 403.104 152.083 401.971C150.381 401.443 148.614 401.152 146.832 401.107C145.489 401.081 144.148 401.24 142.848 401.577C141.743 401.888 140.675 402.316 139.661 402.854L139.843 402.72L140.419 402.374C141.174 401.965 141.973 401.643 142.8 401.414C144.115 401.042 145.475 400.854 146.842 400.857C148.649 400.872 150.446 401.141 152.179 401.654C156.077 402.758 160.157 405.389 164.371 408.518C166.502 410.073 168.72 411.725 171.168 413.184C173.659 414.741 176.395 415.867 179.261 416.515C180.714 416.801 182.197 416.908 183.677 416.832C185.116 416.749 186.543 416.528 187.939 416.169C190.583 415.451 193.155 414.487 195.619 413.289C198 412.176 200.218 411.005 202.339 410.073C204.338 409.196 206.398 408.465 208.502 407.885C211.537 406.973 214.711 406.618 217.872 406.838C219.04 406.902 220.194 407.128 221.299 407.51Z" fill="#FAFAFA"/>
<path d="M126.403 398.986C126.403 398.986 126.451 399.101 126.48 399.322C126.54 399.639 126.579 399.959 126.595 400.282C126.691 401.471 126.639 402.667 126.442 403.843C126.158 405.612 125.475 407.293 124.445 408.758C123.125 410.501 121.445 411.938 119.52 412.973C117.6 414.154 115.613 415.142 114.029 416.294C112.597 417.266 111.344 418.478 110.323 419.875C109.649 420.82 109.265 421.941 109.219 423.101C109.219 423.926 109.344 424.378 109.286 424.387C109.23 424.289 109.191 424.182 109.171 424.07C109.089 423.756 109.037 423.435 109.018 423.11C108.979 421.897 109.314 420.7 109.978 419.683C110.984 418.213 112.249 416.938 113.712 415.92C115.325 414.72 117.274 413.712 119.213 412.55C121.076 411.542 122.71 410.16 124.013 408.49C125.022 407.087 125.713 405.482 126.038 403.786C126.258 402.634 126.361 401.463 126.346 400.291C126.334 399.855 126.353 399.419 126.403 398.986Z" fill="#FAFAFA"/>
<path d="M271.277 359.251C269.306 359.582 267.391 360.183 265.584 361.037C263.65 361.981 261.914 363.284 260.467 364.877C259.621 365.822 258.893 366.867 258.298 367.987C257.664 369.149 257.232 370.464 256.608 371.76C256.037 373.065 255.173 374.221 254.083 375.139C253.059 375.975 251.895 376.625 250.646 377.059C248.545 377.755 246.326 378.029 244.118 377.865C242.644 377.777 241.176 377.604 239.722 377.347C239.186 377.277 238.656 377.164 238.138 377.011C238.678 377.013 239.218 377.061 239.75 377.155C240.787 377.261 242.275 377.462 244.128 377.51C246.287 377.62 248.447 377.317 250.493 376.617C251.737 376.215 252.883 375.557 253.859 374.685C254.834 373.814 255.617 372.749 256.157 371.558C256.762 370.291 257.203 368.966 257.866 367.766C258.496 366.622 259.267 365.561 260.16 364.608C261.656 362.972 263.46 361.648 265.469 360.71C266.808 360.074 268.23 359.629 269.693 359.385C270.09 359.32 270.491 359.275 270.893 359.251C271.02 359.23 271.15 359.23 271.277 359.251Z" fill="#FAFAFA"/>
<path d="M223.565 367.354L223.344 367.421L222.691 367.565C222.115 367.69 221.261 367.843 220.147 368.016C217.013 368.499 213.844 368.724 210.672 368.688C205.952 368.655 201.268 367.861 196.8 366.336C194.183 365.386 191.657 364.2 189.254 362.794C186.708 361.284 184.043 359.984 181.286 358.906C179.885 358.41 178.427 358.088 176.947 357.946C175.507 357.837 174.059 357.908 172.637 358.157C169.955 358.705 167.367 359.643 164.957 360.941C160.301 363.408 156.384 366.154 152.842 368.064C150.102 369.69 147.116 370.857 144 371.52C143.158 371.701 142.299 371.794 141.437 371.798H140.765C140.688 371.809 140.611 371.809 140.534 371.798H140.765L141.427 371.722C142.281 371.671 143.129 371.546 143.962 371.347C147.031 370.618 149.969 369.417 152.669 367.786C156.154 365.866 160.051 363.072 164.736 360.557C167.193 359.213 169.836 358.242 172.579 357.677C174.042 357.417 175.532 357.339 177.014 357.446C178.538 357.597 180.038 357.935 181.478 358.454C184.261 359.541 186.949 360.858 189.514 362.39C191.897 363.78 194.396 364.962 196.982 365.923C201.398 367.451 206.029 368.271 210.701 368.352C213.855 368.422 217.009 368.252 220.138 367.843C221.251 367.699 222.106 367.574 222.691 367.478L223.354 367.392C223.422 367.37 223.493 367.357 223.565 367.354Z" fill="#FAFAFA"/>
<path d="M129.725 372.902C129.818 372.411 129.799 371.906 129.667 371.424C129.398 370.802 128.983 370.254 128.459 369.825C127.935 369.396 127.315 369.098 126.653 368.957C125.818 368.707 124.867 368.563 123.85 368.333C122.722 368.124 121.663 367.639 120.768 366.921C119.83 366.076 119.101 365.024 118.637 363.849C118.165 362.602 117.795 361.317 117.533 360.009C117.284 358.737 116.917 357.49 116.438 356.285C115.977 355.174 115.374 354.129 114.643 353.174C113.41 351.541 111.826 350.205 110.006 349.267C108.797 348.634 107.504 348.175 106.166 347.904C105.206 347.712 104.659 347.673 104.659 347.625C104.792 347.599 104.929 347.599 105.062 347.625C105.442 347.637 105.82 347.673 106.195 347.731C107.594 347.925 108.952 348.343 110.218 348.969C112.1 349.898 113.742 351.248 115.018 352.915C115.798 353.89 116.444 354.965 116.938 356.112C117.435 357.354 117.814 358.639 118.07 359.952C118.325 361.223 118.681 362.472 119.136 363.686C119.57 364.783 120.246 365.768 121.114 366.566C121.947 367.251 122.936 367.72 123.994 367.929C124.954 368.179 125.914 368.342 126.806 368.621C127.509 368.789 128.159 369.128 128.7 369.606C129.24 370.085 129.655 370.69 129.907 371.366C130.005 371.747 130.005 372.147 129.907 372.528C129.875 372.664 129.812 372.792 129.725 372.902Z" fill="#FAFAFA"/>
<path d="M205.546 323.664C204.653 323.173 203.706 322.789 202.723 322.522C201.558 322.282 200.356 322.282 199.19 322.522C197.637 322.827 196.13 323.334 194.707 324.029C193.104 324.749 191.414 325.69 189.571 326.659C187.618 327.746 185.547 328.606 183.398 329.222C180.981 329.814 178.467 329.896 176.016 329.462C173.404 328.985 170.872 328.148 168.49 326.976C163.584 324.586 159.504 321.379 155.568 318.883C152.176 316.523 148.388 314.79 144.384 313.766C141.679 313.102 138.857 313.07 136.138 313.67C135.162 313.94 134.2 314.261 133.258 314.63C134.162 314.121 135.13 313.737 136.138 313.488C138.884 312.802 141.754 312.783 144.509 313.43C148.571 314.414 152.42 316.132 155.866 318.499C159.84 320.986 163.92 324.182 168.749 326.534C171.089 327.687 173.576 328.514 176.141 328.992C178.527 329.416 180.974 329.344 183.331 328.781C185.451 328.192 187.497 327.36 189.427 326.304C191.27 325.344 192.979 324.384 194.611 323.712C196.069 323.032 197.608 322.542 199.19 322.253C200.396 322.048 201.632 322.093 202.819 322.387C203.558 322.592 204.267 322.889 204.931 323.27C205.143 323.39 205.348 323.522 205.546 323.664Z" fill="#FAFAFA"/>
<path d="M200.122 445.546L202.79 446.88H218.15L221.251 444.346L210.077 425.856C208.704 426.461 202.675 427.402 200.726 428.083C199.045 428.673 197.276 428.972 195.494 428.966C193.508 429.01 191.523 428.846 189.571 428.477L189.149 428.342C188.888 428.23 188.607 428.171 188.323 428.17C186.662 428.026 185.347 429.763 186.278 431.136C187.21 432.509 191.75 434.342 197.549 434.179H197.827C202.915 434.179 198.25 438.442 195.226 440.976C194.692 441.407 194.277 441.968 194.021 442.605C193.766 443.242 193.678 443.934 193.766 444.614C193.784 444.859 193.854 445.097 193.971 445.313C194.089 445.528 194.251 445.715 194.448 445.862C195.734 446.678 200.122 445.546 200.122 445.546Z" fill="#FFBE9D"/>
<path d="M137.443 443.251C137.433 443.162 137.433 443.072 137.443 442.982C137.443 442.771 137.443 442.512 137.443 442.185C137.443 441.446 137.501 440.419 137.549 439.123C137.664 436.435 137.818 432.605 138.019 427.881C138.413 418.358 138.979 405.264 139.565 390.797C140.15 376.329 140.525 363.187 140.794 353.693C140.899 348.969 140.976 345.139 141.034 342.441C141.034 341.145 141.082 340.118 141.101 339.379C141.101 339.053 141.101 338.793 141.101 338.592C141.089 338.499 141.089 338.406 141.101 338.313C141.115 338.406 141.115 338.5 141.101 338.592C141.101 338.793 141.101 339.062 141.101 339.379C141.101 340.118 141.101 341.145 141.101 342.441C141.101 345.101 141.101 348.941 141.024 353.693C140.89 363.197 140.506 376.32 139.939 390.816C139.373 405.312 138.749 418.416 138.25 427.901C137.981 432.614 137.77 436.445 137.616 439.133C137.53 440.429 137.462 441.456 137.414 442.185L137.347 442.982C137.389 443.068 137.421 443.158 137.443 443.251Z" fill="#263238"/>
<path d="M179.232 445.075C179.217 444.957 179.217 444.838 179.232 444.72C179.232 444.461 179.184 444.115 179.146 443.674L178.867 439.632C178.752 437.885 178.608 435.734 178.531 433.238C178.454 430.742 178.272 427.91 178.253 424.771C178.234 421.632 178.118 418.186 178.166 414.49C178.166 412.646 178.166 410.736 178.166 408.73C178.166 406.723 178.253 404.736 178.301 402.662C178.541 394.358 178.973 385.238 179.645 375.677C180.989 356.544 182.698 339.274 183.792 326.765C184.33 320.525 184.752 315.475 185.078 311.942C185.222 310.224 185.347 308.87 185.424 307.92C185.472 307.478 185.501 307.133 185.53 306.874C185.558 306.614 185.578 306.518 185.578 306.518C185.591 306.636 185.591 306.755 185.578 306.874L185.53 307.93C185.462 308.89 185.376 310.233 185.27 311.961C185.05 315.465 184.656 320.534 184.147 326.794C183.139 339.274 181.488 356.553 180.144 375.705C179.472 385.305 179.03 394.378 178.762 402.672C178.762 404.746 178.656 406.771 178.608 408.739C178.56 410.707 178.608 412.579 178.541 414.499C178.483 418.185 178.541 421.622 178.541 424.761C178.541 427.901 178.685 430.742 178.742 433.229C178.8 435.715 178.906 437.875 178.992 439.622C179.078 441.37 179.136 442.714 179.184 443.664V444.72C179.213 444.836 179.229 444.955 179.232 445.075Z" fill="#263238"/>
<path d="M186.298 350.496C186.25 350.448 186.787 350.227 187.382 350.736C187.553 350.887 187.684 351.076 187.766 351.288C187.848 351.501 187.878 351.729 187.853 351.955C187.791 352.234 187.647 352.489 187.44 352.685C187.232 352.882 186.971 353.012 186.689 353.058C186.407 353.105 186.117 353.066 185.857 352.946C185.598 352.827 185.38 352.632 185.232 352.387C185.136 352.183 185.09 351.959 185.098 351.733C185.107 351.508 185.169 351.288 185.28 351.091C185.674 350.41 186.24 350.448 186.24 350.515C186.24 350.582 185.827 350.678 185.606 351.245C185.536 351.395 185.5 351.559 185.5 351.725C185.5 351.891 185.536 352.055 185.606 352.205C185.719 352.35 185.869 352.461 186.04 352.528C186.211 352.595 186.397 352.614 186.578 352.583C186.76 352.553 186.929 352.474 187.069 352.355C187.209 352.236 187.314 352.081 187.373 351.907C187.393 351.748 187.379 351.586 187.333 351.432C187.286 351.279 187.209 351.136 187.104 351.014C186.739 350.525 186.298 350.582 186.298 350.496Z" fill="#263238"/>
<path d="M183.6 393.6C183.552 393.552 184.099 393.322 184.694 393.84C184.862 393.99 184.992 394.178 185.072 394.389C185.152 394.599 185.181 394.826 185.155 395.05C185.106 395.334 184.966 395.595 184.757 395.794C184.548 395.992 184.28 396.119 183.994 396.154C183.712 396.21 183.419 396.176 183.157 396.057C182.896 395.939 182.678 395.74 182.534 395.491C182.441 395.284 182.398 395.058 182.408 394.832C182.418 394.605 182.481 394.383 182.592 394.186C182.986 393.504 183.552 393.552 183.552 393.61C183.552 393.667 183.139 393.782 182.918 394.339C182.845 394.489 182.808 394.653 182.808 394.819C182.808 394.986 182.845 395.15 182.918 395.299C183.019 395.463 183.165 395.592 183.34 395.672C183.514 395.751 183.708 395.776 183.897 395.744C184.086 395.712 184.262 395.624 184.4 395.492C184.539 395.36 184.635 395.189 184.675 395.002C184.698 394.844 184.685 394.683 184.639 394.53C184.592 394.378 184.513 394.237 184.406 394.118C184.051 393.6 183.6 393.667 183.6 393.6Z" fill="#263238"/>
<path d="M252.48 423.216C252.047 423.205 251.616 423.151 251.194 423.053C250.034 422.806 248.901 422.443 247.814 421.968C244.196 420.361 241.173 417.658 239.174 414.24C238.164 412.338 237.363 410.333 236.784 408.259C236.31 406.596 235.595 405.011 234.662 403.555C234.019 402.589 233.19 401.76 232.224 401.117C231.523 400.685 231.082 400.541 231.101 400.493C231.213 400.501 231.323 400.527 231.427 400.569C231.736 400.669 232.035 400.798 232.32 400.953C233.365 401.547 234.263 402.367 234.95 403.353C235.949 404.828 236.717 406.447 237.226 408.153C237.814 410.189 238.612 412.158 239.606 414.029C241.559 417.37 244.473 420.046 247.968 421.709C249.431 422.328 250.939 422.832 252.48 423.216Z" fill="#FAFAFA"/>
<path d="M350.822 446.851L334.502 399.485L342.048 354.038C344.246 341.779 345.475 330.998 342.182 324.826C333.379 308.381 322.752 306.902 308.237 303.13C305.242 302.352 282.461 301.584 279.955 302.17C260.189 304.387 247.536 314.87 240.595 331.93L233.069 362.266L222.73 393.946C221.864 395.786 220.597 397.409 219.02 398.694C217.443 399.978 215.597 400.892 213.619 401.366L173.76 414.989L174.096 422.794L173.76 433.354L226.848 423.36C237.485 421.363 248.304 417.437 251.357 407.174L257.069 390.259C259.862 397.421 262.906 403.987 262.906 403.987L259.066 446.64L350.822 446.851Z" fill="#FD7C78"/>
<path d="M337.152 362.698L321.984 413.414C320.826 417.281 318.73 420.802 315.883 423.662C313.036 426.523 309.525 428.635 305.664 429.811L242.534 446.63L234.163 424.838L291.226 403.622L305.232 352.838C305.232 352.838 308.467 324.442 334.147 325.901" fill="#FD7C78"/>
<path d="M334.138 325.901H333.37C332.861 325.901 332.112 325.843 331.123 325.901C328.232 325.983 325.377 326.564 322.685 327.619C320.738 328.381 318.907 329.408 317.242 330.672C315.268 332.19 313.519 333.981 312.048 335.99C308.529 340.994 306.248 346.762 305.395 352.819C301.555 366.95 296.755 384.249 291.446 403.632V403.747H291.341L234.24 425.069L234.384 424.752L235.872 428.592C238.224 434.736 240.547 440.784 242.746 446.515L242.448 446.361L296.688 431.961L302.803 430.329C303.763 430.061 304.81 429.811 305.789 429.523C306.75 429.221 307.692 428.862 308.611 428.448C313.874 426.067 318.108 421.877 320.544 416.64C321.269 415.019 321.866 413.343 322.33 411.629C323.341 408.275 324.301 405.075 325.21 402.029C328.906 389.798 331.872 379.949 333.917 373.229L336.288 365.453L336.912 363.446C337.056 362.995 337.142 362.765 337.142 362.765C337.142 362.765 337.085 363.005 336.96 363.456C336.835 363.907 336.634 364.598 336.374 365.481C335.846 367.277 335.078 369.897 334.09 373.286L325.526 402.153C324.624 405.219 323.664 408.419 322.646 411.753C322.186 413.488 321.589 415.182 320.861 416.822C320.087 418.527 319.121 420.137 317.981 421.622C315.541 424.749 312.387 427.244 308.784 428.899C307.845 429.32 306.884 429.689 305.904 430.003C304.944 430.291 303.917 430.541 302.909 430.819L296.794 432.451L242.563 446.928L242.352 446.985L242.275 446.784C240.077 441.024 237.744 434.995 235.392 428.861L233.904 425.021L233.818 424.79L234.048 424.704L291.12 403.507L290.976 403.661C296.342 384.297 301.133 366.998 305.04 352.886C305.912 346.778 308.236 340.967 311.818 335.942C313.307 333.915 315.082 332.114 317.088 330.595C318.775 329.331 320.63 328.307 322.598 327.552C325.312 326.5 328.193 325.944 331.104 325.91C331.852 325.869 332.602 325.869 333.35 325.91L334.138 325.901Z" fill="#263238"/>
<path d="M294.365 392.227C294.116 392.283 293.861 392.302 293.606 392.285C292.918 392.28 292.232 392.199 291.562 392.045C289.326 391.525 287.263 390.437 285.571 388.886C283.856 387.371 282.521 385.473 281.674 383.347C281.52 382.983 281.395 382.607 281.299 382.224C281.212 381.941 281.148 381.653 281.107 381.36C281.03 380.88 281.002 380.611 281.04 380.611C281.078 380.611 281.299 381.648 282 383.203C282.914 385.226 284.242 387.034 285.898 388.512C287.544 390.008 289.516 391.099 291.658 391.699C293.29 392.141 294.365 392.121 294.365 392.227Z" fill="#263238"/>
<path d="M256.877 353.654C256.747 354.166 256.57 354.664 256.349 355.142C255.974 356.102 255.389 357.456 254.784 359.165C253.536 362.553 251.779 367.363 251.597 372.893C251.506 375.494 251.86 378.091 252.643 380.573C253.286 382.586 254.159 384.519 255.245 386.333C255.976 387.563 256.774 388.752 257.635 389.894C257.983 390.301 258.304 390.731 258.595 391.181C258.595 391.181 258.48 391.094 258.288 390.893C258.096 390.691 257.837 390.413 257.51 390.019C256.574 388.916 255.72 387.744 254.957 386.515C253.818 384.687 252.9 382.731 252.221 380.688C251.407 378.169 251.034 375.529 251.117 372.883C251.418 368.111 252.545 363.427 254.448 359.04C255.13 357.35 255.744 356.006 256.166 355.075C256.366 354.584 256.603 354.109 256.877 353.654Z" fill="#263238"/>
<path d="M296.774 410.39C296.163 408.989 295.382 407.667 294.451 406.454C293.393 405.352 292.203 404.385 290.909 403.574C291.375 403.613 291.824 403.768 292.214 404.025C294.217 405.099 295.75 406.878 296.515 409.017C296.713 409.447 296.802 409.918 296.774 410.39Z" fill="#263238"/>
<path d="M235.325 427.872C235.325 427.872 217.267 429.485 217.517 441.216L240 440.073L235.325 427.872Z" fill="#B78876"/>
<path d="M264.432 231.293C262.781 239.28 261.206 247.28 259.709 255.293C257.789 265.45 256.061 276.067 258.931 286.013C260.506 291.466 263.405 296.419 266.275 301.315C267.888 304.061 269.654 306.96 272.515 308.381C276.403 310.301 281.318 308.784 284.419 305.741C287.52 302.698 289.085 298.454 290.179 294.221C292.262 286.022 292.723 277.507 293.059 269.05C293.395 260.592 293.568 251.818 291.139 243.619C288.71 235.421 283.392 227.664 275.472 224.419" fill="#263238"/>
<path d="M265.738 224.88C267.997 223.123 270.741 222.101 273.6 221.952C275.904 217.286 281.366 215.146 286.474 214.157C294 212.688 293.194 212.486 300.192 215.578C307.19 218.669 317.155 227.405 318.432 234.97C319.592 241.605 321.717 248.035 324.739 254.054C326.659 258.038 330.403 260.774 332.621 264.614C333.817 266.697 334.521 269.025 334.679 271.421C334.837 273.817 334.445 276.217 333.533 278.438C331.728 282.768 327.898 286.589 328.262 291.254C328.464 293.971 328.368 295.91 329.443 298.416C333.082 306.902 331.363 318.211 323.549 323.107C315.734 328.003 304.426 326.294 298.387 319.267C293.146 313.2 292.138 304.541 292.627 296.534C293.117 288.528 294.96 280.57 294.442 272.534" fill="#263238"/>
<path d="M274.704 446.63L274.589 443.866L233.885 439.574L216.048 388.301L139.661 386.573L162.768 446.63C200.534 446.918 237.846 446.918 274.704 446.63Z" fill="#263238"/>
<path d="M182.045 417.427C182.439 418.112 183.027 418.664 183.735 419.015C184.443 419.365 185.239 419.497 186.022 419.395C186.805 419.293 187.541 418.961 188.135 418.441C188.73 417.921 189.157 417.237 189.362 416.474C189.568 415.711 189.542 414.905 189.289 414.156C189.037 413.408 188.567 412.752 187.941 412.27C187.315 411.788 186.56 411.503 185.772 411.451C184.984 411.398 184.198 411.58 183.514 411.974C182.596 412.503 181.925 413.374 181.65 414.397C181.375 415.419 181.517 416.509 182.045 417.427Z" fill="white"/>
<path d="M293.242 322.963C302.4 322.963 310.637 315.158 310.368 303.562L312.019 237.322C312.048 235.935 311.555 234.588 310.638 233.547C309.72 232.507 308.445 231.85 307.066 231.706L279.773 228.826C277.542 228.591 275.288 228.809 273.144 229.469C271.001 230.128 269.012 231.214 267.299 232.661C265.587 234.109 264.184 235.888 263.177 237.891C262.169 239.895 261.577 242.082 261.437 244.32C260.784 254.803 260.39 267.638 261.629 275.462C264.125 291.197 276.192 293.203 276.192 293.203L275.894 304.195C275.434 315.907 284.198 322.954 293.242 322.954V322.963Z" fill="#FDBEAB"/>
<path d="M267.542 252.864C267.537 253.386 267.734 253.889 268.092 254.269C268.45 254.648 268.941 254.874 269.462 254.899C269.718 254.92 269.976 254.889 270.22 254.809C270.464 254.728 270.689 254.6 270.883 254.43C271.076 254.261 271.234 254.055 271.346 253.824C271.458 253.593 271.523 253.341 271.536 253.085C271.544 252.562 271.348 252.057 270.989 251.677C270.631 251.297 270.138 251.072 269.616 251.05C269.36 251.029 269.102 251.059 268.858 251.14C268.614 251.22 268.389 251.349 268.195 251.518C268.002 251.687 267.845 251.894 267.732 252.125C267.62 252.356 267.556 252.607 267.542 252.864Z" fill="#263238"/>
<path d="M264.221 251.002C264.47 251.261 266.006 250.138 268.176 250.138C270.346 250.138 271.939 251.232 272.17 250.963C272.285 250.848 272.035 250.378 271.344 249.869C270.399 249.228 269.279 248.893 268.138 248.909C267.01 248.907 265.91 249.263 264.998 249.926C264.326 250.406 264.106 250.886 264.221 251.002Z" fill="#263238"/>
<path d="M288.509 253.267C288.501 253.79 288.697 254.295 289.056 254.675C289.414 255.055 289.907 255.28 290.429 255.302C290.686 255.325 290.944 255.295 291.189 255.215C291.435 255.135 291.661 255.007 291.856 254.837C292.05 254.668 292.208 254.461 292.321 254.229C292.434 253.998 292.499 253.745 292.512 253.488C292.518 252.966 292.321 252.463 291.963 252.083C291.604 251.703 291.113 251.478 290.592 251.453C290.335 251.43 290.076 251.46 289.831 251.54C289.586 251.62 289.36 251.748 289.165 251.918C288.971 252.087 288.812 252.294 288.7 252.526C288.587 252.757 288.522 253.01 288.509 253.267Z" fill="#263238"/>
<path d="M285.571 251.405C285.821 251.673 287.347 250.541 289.517 250.541C291.686 250.541 293.28 251.635 293.52 251.366C293.635 251.251 293.386 250.781 292.685 250.272C291.742 249.634 290.626 249.299 289.488 249.312C288.357 249.31 287.255 249.666 286.339 250.329C285.677 250.809 285.446 251.289 285.571 251.405Z" fill="#263238"/>
<path d="M277.69 267.513C276.546 267.156 275.363 266.944 274.166 266.88C273.61 266.822 273.082 266.707 272.986 266.333C272.942 265.757 273.073 265.182 273.36 264.681C273.878 263.347 274.426 261.936 275.002 260.467C277.277 254.448 278.928 249.504 278.678 249.417C278.429 249.331 276.394 254.131 274.118 260.141C273.571 261.629 273.043 263.021 272.544 264.393C272.201 265.062 272.099 265.828 272.256 266.563C272.337 266.759 272.461 266.934 272.619 267.075C272.777 267.216 272.964 267.32 273.168 267.379C273.481 267.464 273.804 267.506 274.128 267.504C275.31 267.661 276.507 267.664 277.69 267.513Z" fill="#263238"/>
<path d="M276.192 293.213C283.601 293.324 290.896 291.376 297.264 287.587C297.264 287.587 292.147 298.397 276.403 296.928L276.192 293.213Z" fill="#AA6550"/>
<path d="M278.611 272.745C279.02 272.221 279.558 271.812 280.172 271.558C280.786 271.304 281.456 271.214 282.115 271.296C282.593 271.339 283.058 271.478 283.482 271.703C283.906 271.929 284.28 272.238 284.582 272.611C284.874 272.973 285.046 273.416 285.077 273.88C285.108 274.344 284.996 274.806 284.755 275.203C284.404 275.6 283.941 275.882 283.427 276.01C282.913 276.139 282.372 276.108 281.875 275.923C280.852 275.558 279.909 274.998 279.101 274.272C278.858 274.097 278.65 273.879 278.486 273.629C278.404 273.509 278.36 273.366 278.36 273.221C278.36 273.075 278.404 272.933 278.486 272.813" fill="#AA6550"/>
<path d="M284.083 269.011C283.728 269.011 283.718 271.353 281.702 273.024C279.686 274.694 277.181 274.435 277.162 274.771C277.162 274.915 277.718 275.222 278.784 275.251C280.179 275.282 281.54 274.816 282.624 273.936C283.65 273.094 284.307 271.885 284.458 270.566C284.506 269.587 284.237 269.002 284.083 269.011Z" fill="#263238"/>
<path d="M284.592 247.603C284.803 248.198 286.973 247.92 289.526 248.227C292.08 248.534 294.134 249.187 294.47 248.698C294.624 248.438 294.259 247.891 293.434 247.315C292.331 246.601 291.074 246.16 289.766 246.029C288.469 245.877 287.154 246.032 285.926 246.48C284.976 246.864 284.506 247.325 284.592 247.603Z" fill="#263238"/>
<path d="M265.018 244.714C265.402 245.213 266.938 244.714 268.704 244.714C270.47 244.714 272.026 245.04 272.371 244.531C272.525 244.282 272.285 243.782 271.622 243.322C270.73 242.757 269.688 242.473 268.633 242.505C267.577 242.538 266.555 242.886 265.699 243.504C265.066 243.965 264.854 244.474 265.018 244.714Z" fill="#263238"/>
<path d="M261.763 241.709C267.686 238.272 273.456 235.094 277.123 229.334C279.168 235.094 283.162 237.974 288.461 241.037C293.76 244.099 299.683 245.894 305.549 247.651C302.582 250.531 302.189 255.187 302.87 259.267C303.552 263.347 305.117 267.274 305.376 271.402C305.712 276.912 303.696 282.317 303.571 287.837C303.398 295.411 306.739 302.563 310.013 309.389L324.23 301.104L322.186 264.192L322.358 238.07L300.192 217.469L272.122 220.541L261.763 241.709Z" fill="#263238"/>
<path d="M258.605 319.325C265.814 326.611 265.046 339.6 273.005 346.118C277.862 350.112 284.957 350.486 290.918 348.47C296.88 346.454 301.891 342.374 306.49 338.074C311.088 333.773 315.437 329.155 320.669 325.67C325.747 322.282 334.445 320.198 335.674 314.208C336.576 309.83 331.968 304.56 331.104 300.173C329.731 293.203 337.267 287.818 338.525 280.829C341.04 266.861 333.667 250.464 325.987 238.589C318.307 226.714 313.968 213.264 294.499 212.16C277.075 211.382 265.21 219.744 259.411 231.84C256.531 237.898 255.83 244.752 255.264 251.453C253.949 267.101 253.219 283.69 260.448 297.629C261.946 300.509 263.731 304.176 261.715 306.73C259.872 309.062 255.696 308.966 254.525 311.702C253.354 314.438 256.435 317.126 258.605 319.325ZM280.32 226.56C282.653 226.464 289.574 226.56 297.293 236.842C301.91 242.995 301.901 252.96 301.805 261.648C301.718 268.109 301.805 284.458 301.805 284.458C301.805 284.458 302.822 305.107 295.805 306.931C287.165 309.178 279.648 307.632 273.206 301.498C266.765 295.363 263.078 286.752 261.61 277.978C260.141 269.203 259.315 260.256 260.467 251.434C261.074 246.02 262.863 240.806 265.709 236.16C267.329 233.62 269.469 231.451 271.987 229.797C274.505 228.142 277.345 227.039 280.32 226.56Z" fill="#E12B4D"/>
<g opacity="0.3">
<path d="M334.138 307.459C328.378 310.589 324.394 315.245 319.738 319.834C315.082 324.422 309.811 328.867 303.418 330.518C297.024 332.17 289.334 330.202 286.138 324.451C304.157 327.523 325.075 313.133 331.258 295.92C330.888 297.415 330.869 298.976 331.2 300.48C332.034 302.865 333.015 305.196 334.138 307.459Z" fill="black"/>
</g>
<g opacity="0.3">
<path d="M262.493 302.707C263.118 305.037 264.213 307.215 265.711 309.107C267.208 310.999 269.076 312.565 271.2 313.709C272.186 314.12 273.11 314.666 273.946 315.331C274.357 315.672 274.657 316.129 274.806 316.643C274.955 317.156 274.946 317.703 274.781 318.211C274.477 318.729 274.002 319.125 273.438 319.331C272.874 319.538 272.256 319.542 271.69 319.344C270.585 318.898 269.599 318.201 268.81 317.309C265.67 314.275 262.435 311.203 261.552 306.941C262.063 306.32 262.418 305.586 262.589 304.8C262.633 304.101 262.601 303.399 262.493 302.707Z" fill="black"/>
</g>
<path d="M329.827 299.328C329.762 299.524 329.671 299.711 329.558 299.885C329.357 300.24 329.098 300.787 328.685 301.44C327.556 303.313 326.312 305.115 324.96 306.835C322.972 309.405 320.773 311.804 318.384 314.006C315.474 316.741 312.174 319.028 308.592 320.793C306.702 321.619 304.759 322.315 302.774 322.877C300.928 323.414 299.049 323.831 297.149 324.125C293.935 324.649 290.668 324.771 287.424 324.49C285.242 324.29 283.085 323.879 280.982 323.261C280.234 323.059 279.677 322.829 279.293 322.694C279.091 322.639 278.898 322.559 278.717 322.454C278.717 322.454 279.542 322.685 281.04 323.069C283.144 323.617 285.294 323.974 287.462 324.134C290.669 324.363 293.892 324.209 297.062 323.673C298.937 323.369 300.79 322.946 302.611 322.406C304.575 321.847 306.499 321.157 308.371 320.342C311.907 318.581 315.17 316.318 318.058 313.622C320.443 311.453 322.651 309.096 324.662 306.576C326.034 304.885 327.316 303.122 328.502 301.296C328.934 300.662 329.222 300.134 329.462 299.798C329.572 299.633 329.694 299.475 329.827 299.328Z" fill="#263238"/>
<path d="M285.638 317.136C285.272 317.285 284.888 317.385 284.496 317.433C283.438 317.625 282.365 317.722 281.29 317.721C277.699 317.734 274.174 316.764 271.095 314.918C268.015 313.072 265.499 310.42 263.818 307.248C263.308 306.296 262.887 305.3 262.56 304.272C262.421 303.901 262.33 303.514 262.291 303.12C262.836 304.47 263.451 305.79 264.134 307.075C265.85 310.134 268.334 312.692 271.341 314.496C274.348 316.301 277.774 317.29 281.28 317.366C283.978 317.443 285.629 317.03 285.638 317.136Z" fill="#263238"/>
<path d="M281.904 340.925C282.082 340.851 282.269 340.802 282.461 340.781C282.826 340.694 283.421 340.618 284.074 340.445C286.046 340.02 287.992 339.478 289.901 338.822C296.184 336.593 302.097 333.431 307.44 329.443C312.774 325.44 317.826 321.074 322.56 316.378L326.918 312.154C327.398 311.683 327.802 311.309 328.109 311.011C328.242 310.871 328.39 310.745 328.55 310.637C328.444 310.796 328.321 310.944 328.186 311.078L327.053 312.288C326.093 313.325 324.624 314.813 322.81 316.627C318.131 321.415 313.092 325.838 307.738 329.856C302.358 333.872 296.377 337.011 290.016 339.158C288.085 339.789 286.112 340.283 284.112 340.637C283.411 340.781 282.845 340.829 282.47 340.877C282.284 340.916 282.094 340.932 281.904 340.925Z" fill="#263238"/>
<path d="M619.978 361.066L586.109 321.13L586.032 321.206C584.698 319.891 583.526 318.72 582.931 318.038C571.2 304.445 561.878 299.798 543.917 299.549L509.011 300.298C502.522 300.835 487.795 298.061 474.173 316.118C449.357 347.213 429.456 373.661 430.579 386.141C431.99 401.933 492.221 446.957 492.221 446.957L575.011 446.89L574.838 440.582L610.56 417.398C623.443 408.691 630.173 401.078 631.805 389.558C633.235 379.306 626.88 368.746 619.978 361.066ZM468.298 384.835C468.298 382.406 481.354 367.094 488.458 358.915L492.154 394.272L491.52 408.086L468.298 384.835ZM573.331 406.598L571.363 360L598.358 387.926L573.331 406.598Z" fill="#FD7C78"/>
<path d="M521.596 380.58L460.397 410.826C458.771 411.63 458.105 413.599 458.908 415.224L478.691 455.252C479.494 456.878 481.463 457.544 483.089 456.741L544.288 426.494C545.914 425.691 546.58 423.722 545.777 422.096L525.994 382.068C525.19 380.443 523.221 379.776 521.596 380.58Z" fill="#E0E0E0"/>
<path d="M502.08 414.902C502.72 414.511 503.461 414.319 504.211 414.349C504.96 414.379 505.684 414.631 506.29 415.072C506.896 415.514 507.358 416.125 507.617 416.829C507.876 417.533 507.92 418.298 507.744 419.027C507.568 419.756 507.18 420.417 506.629 420.925C506.078 421.434 505.388 421.767 504.647 421.884C503.906 422 503.147 421.894 502.466 421.58C501.786 421.265 501.214 420.755 500.822 420.115C500.298 419.257 500.136 418.226 500.372 417.248C500.608 416.271 501.222 415.427 502.08 414.902Z" fill="white"/>
<path d="M570.845 326.842C570.857 326.944 570.857 327.047 570.845 327.149C570.845 327.379 570.845 327.667 570.845 328.042C570.845 328.858 570.845 330.01 570.845 331.469C570.845 334.483 570.902 338.784 570.941 344.093C570.998 354.749 571.411 369.456 572.237 385.699C573.062 401.942 573.907 416.64 574.358 427.286C574.589 432.605 574.742 436.886 574.829 439.901C574.829 441.36 574.886 442.512 574.906 443.328C574.906 443.702 574.906 443.99 574.906 444.221C574.916 444.323 574.916 444.426 574.906 444.528C574.896 444.426 574.896 444.323 574.906 444.221C574.906 443.99 574.906 443.702 574.848 443.328C574.848 442.512 574.742 441.408 574.675 439.901C574.522 436.896 574.301 432.595 574.042 427.306C573.456 416.63 572.659 401.942 571.776 385.718C570.893 369.494 570.586 354.749 570.624 344.093C570.624 338.794 570.624 334.493 570.691 331.469C570.691 330.01 570.691 328.858 570.739 328.042C570.739 327.667 570.739 327.379 570.739 327.149C570.766 327.044 570.801 326.941 570.845 326.842Z" fill="#263238"/>
<path d="M484.646 305.961C489.062 302.745 494.198 303.715 498.624 306.921C503.05 310.128 505.507 315.561 505.949 321.005C506.391 326.448 504.989 331.901 502.925 336.95C499.594 345.043 494.669 351.59 487.306 359.923L468.336 384.835L504.96 420.585L489.782 444.528L459.12 419.846C448.646 411.005 439.738 401.961 433.2 392.611" fill="#FD7C78"/>
<path d="M433.19 392.64L433.411 392.928L434.054 393.792C434.621 394.55 435.466 395.712 436.608 397.114C439.894 401.219 443.421 405.127 447.168 408.816C449.568 411.206 452.304 413.77 455.357 416.496C458.41 419.222 461.846 421.92 465.494 424.848L489.878 444.413L489.542 444.47C494.256 437.03 499.373 428.947 504.701 420.518V420.826L485.808 402.394L468.086 385.114L467.933 384.97L468.058 384.797C474.778 376.013 481.133 367.661 487.046 359.894C490.66 355.918 494.011 351.71 497.078 347.299C499.818 343.28 502.034 338.928 503.674 334.349C505.229 330.284 505.96 325.95 505.824 321.6C505.664 317.94 504.549 314.385 502.589 311.29C500.977 308.8 498.73 306.785 496.08 305.453C494.138 304.418 491.951 303.934 489.754 304.051C488.391 304.158 487.067 304.551 485.866 305.203C485.04 305.645 484.656 305.942 484.646 305.923L484.934 305.702C485.218 305.492 485.516 305.303 485.827 305.136C487.031 304.453 488.366 304.034 489.744 303.907C491.973 303.761 494.198 304.233 496.176 305.27C498.875 306.592 501.167 308.619 502.81 311.136C504.822 314.271 505.974 317.879 506.15 321.6C506.311 325.939 505.62 330.267 504.115 334.339C502.479 338.958 500.26 343.349 497.51 347.405C494.443 351.834 491.092 356.061 487.478 360.058C481.565 367.824 475.2 376.186 468.518 385.018V384.691L486.25 401.971L505.133 420.413L505.277 420.557L505.171 420.72C499.834 429.149 494.707 437.222 489.984 444.653L489.85 444.874L489.648 444.71L465.312 425.078C461.674 422.141 458.218 419.414 455.194 416.688C452.17 413.962 449.434 411.398 447.024 409.008C443.282 405.287 439.772 401.34 436.512 397.19C435.389 395.75 434.592 394.598 434.016 393.821C433.747 393.446 433.546 393.149 433.402 392.938C433.258 392.726 433.19 392.64 433.19 392.64Z" fill="#263238"/>
<path d="M611.52 387.264C610.867 387.111 610.225 386.912 609.6 386.669C606.53 385.693 603.21 385.867 600.259 387.158C599.66 387.464 599.041 387.73 598.406 387.955C598.9 387.481 599.476 387.1 600.106 386.832C601.582 386.084 603.2 385.653 604.853 385.567C606.506 385.481 608.159 385.742 609.706 386.333C610.36 386.534 610.975 386.849 611.52 387.264Z" fill="#263238"/>
<path d="M512.458 443.405L505.795 446.717C504.178 447.521 502.364 447.842 500.569 447.641C498.774 447.44 497.076 446.726 495.677 445.584L491.52 442.195L503.04 424.08C504.394 424.666 509.962 425.453 511.882 426.134C513.544 426.717 515.294 427.009 517.056 426.998C519.022 427.04 520.988 426.88 522.922 426.518C523.046 426.47 523.219 426.432 523.334 426.384C523.596 426.276 523.878 426.227 524.16 426.24C525.802 426.086 527.107 427.814 526.186 429.12C525.264 430.426 520.771 432.288 515.03 432.125H514.762C509.722 432.125 514.349 436.339 517.334 438.845C517.863 439.271 518.274 439.826 518.526 440.456C518.778 441.087 518.864 441.772 518.774 442.445C518.759 442.688 518.691 442.924 518.575 443.138C518.459 443.352 518.298 443.538 518.102 443.683C516.797 444.528 512.458 443.405 512.458 443.405Z" fill="#A36853"/>
<path d="M527.875 316.224C519.043 316.224 511.104 308.698 511.181 297.485L509.587 233.635H509.77C509.744 232.295 510.223 230.994 511.112 229.99C512.002 228.987 513.236 228.355 514.57 228.221L540.893 225.437C543.043 225.21 545.217 225.42 547.283 226.056C549.35 226.691 551.267 227.738 552.918 229.133C554.569 230.529 555.921 232.244 556.891 234.176C557.862 236.108 558.432 238.216 558.566 240.374C559.2 250.483 559.584 262.858 558.384 270.403C555.946 285.6 544.32 287.539 544.32 287.539L544.598 298.099C545.05 309.389 536.592 316.185 527.875 316.185V316.224Z" fill="#FFBE9D"/>
<path d="M552.653 248.64C552.653 249.141 552.457 249.622 552.108 249.981C551.758 250.34 551.282 250.547 550.781 250.56C550.533 250.581 550.283 250.552 550.047 250.474C549.81 250.396 549.592 250.272 549.404 250.108C549.217 249.944 549.065 249.744 548.957 249.52C548.848 249.295 548.786 249.052 548.774 248.803C548.774 248.294 548.977 247.806 549.337 247.445C549.697 247.085 550.185 246.883 550.694 246.883C551.183 246.872 551.658 247.047 552.022 247.373C552.386 247.7 552.611 248.153 552.653 248.64Z" fill="#263238"/>
<path d="M555.84 246.835C555.6 247.094 554.131 246 552 246.01C549.869 246.019 548.381 247.056 548.16 246.806C547.939 246.557 548.294 246.23 548.966 245.741C549.871 245.113 550.947 244.778 552.048 244.781C553.135 244.774 554.197 245.11 555.082 245.741C555.754 246.269 555.974 246.72 555.84 246.835Z" fill="#263238"/>
<path d="M532.445 249.024C532.451 249.28 532.406 249.535 532.313 249.773C532.219 250.012 532.079 250.229 531.9 250.413C531.721 250.596 531.507 250.742 531.271 250.841C531.035 250.941 530.781 250.992 530.525 250.992C530.028 251.016 529.541 250.846 529.167 250.519C528.793 250.191 528.56 249.731 528.518 249.235C528.512 248.979 528.557 248.724 528.651 248.486C528.744 248.247 528.885 248.03 529.064 247.846C529.242 247.663 529.456 247.517 529.692 247.418C529.929 247.318 530.182 247.267 530.438 247.267C530.935 247.243 531.422 247.413 531.796 247.74C532.171 248.068 532.403 248.528 532.445 249.024Z" fill="#263238"/>
<path d="M535.267 247.229C535.027 247.488 533.549 246.394 531.427 246.394C529.306 246.394 527.798 247.45 527.587 247.19C527.472 247.085 527.722 246.624 528.394 246.134C529.296 245.502 530.373 245.167 531.475 245.174C532.562 245.167 533.624 245.503 534.509 246.134C535.171 246.653 535.392 247.114 535.267 247.229Z" fill="#263238"/>
<path d="M542.87 262.762C543.972 262.411 545.114 262.204 546.269 262.147C546.806 262.09 547.315 261.984 547.402 261.619C547.447 261.067 547.323 260.515 547.046 260.035C546.538 258.739 546.019 257.386 545.462 255.965C543.264 250.205 541.68 245.405 541.91 245.309C542.141 245.213 544.118 249.85 546.307 255.648C546.845 257.078 547.344 258.442 547.824 259.747C548.164 260.393 548.262 261.138 548.102 261.85C548.024 262.036 547.904 262.202 547.753 262.337C547.602 262.471 547.423 262.571 547.229 262.627C546.931 262.706 546.625 262.748 546.317 262.752C545.173 262.898 544.015 262.901 542.87 262.762Z" fill="#263238"/>
<path d="M544.32 287.539C537.174 287.645 530.139 285.767 523.997 282.115C523.997 282.115 529.258 293.53 544.435 292.109L544.32 287.539Z" fill="#8F5039"/>
<path d="M536.208 243.561C536.007 244.137 533.914 243.859 531.456 244.157C528.998 244.454 527.011 245.117 526.656 244.617C526.502 244.368 526.848 243.83 527.616 243.283C528.685 242.606 529.895 242.182 531.153 242.044C532.41 241.906 533.683 242.057 534.874 242.486C535.843 242.88 536.304 243.293 536.208 243.561Z" fill="#263238"/>
<path d="M555.082 240.778C554.717 241.258 553.267 240.778 551.539 240.778C549.811 240.778 548.333 241.094 547.997 240.595C547.843 240.355 548.083 239.885 548.717 239.434C549.572 238.88 550.579 238.608 551.597 238.656C552.616 238.668 553.604 239.005 554.419 239.616C555.043 240.058 555.245 240.547 555.082 240.778Z" fill="#263238"/>
<path d="M509.76 248.141C512.342 247.68 514.406 248.477 515.136 251.021C516.221 254.813 515.482 256.685 515.664 259.296L519.504 258.144C518.544 249.398 520.723 242.928 519.773 234.144C525.11 235.872 532.445 232.57 534.72 227.04C536.985 228.705 539.675 229.693 542.479 229.89C545.283 230.087 548.085 229.485 550.56 228.154C551.183 229.287 552.15 230.194 553.322 230.743C554.493 231.291 555.809 231.454 557.078 231.206C559.958 230.39 563.011 226.291 563.847 223.382C565.344 218.15 564.614 210.643 560.371 207.235C556.128 203.827 547.622 204.643 544.32 208.973C543.014 210.682 542.861 213.84 540.758 214.272C538.886 214.656 537.187 213.312 535.478 212.429C530.15 209.789 522.787 213.293 521.472 219.091C517.018 216.432 511.622 214.694 506.64 216.125C501.658 217.555 497.683 223.085 499.382 227.981C500.083 230.035 501.667 231.821 501.84 233.962C502.176 238.138 497.165 241.92 498.768 245.789C499.661 247.958 502.282 248.918 503.462 250.944C504.787 253.21 503.962 256.07 504.077 258.691C504.25 263.069 506.496 269.549 510.691 270.797" fill="#263238"/>
<path d="M510.154 248.093C509.51 248.184 508.903 248.447 508.396 248.854C507.89 249.262 507.502 249.798 507.274 250.406C506.715 251.57 506.448 252.851 506.496 254.141C506.411 256.156 507.059 258.134 508.32 259.709C508.967 260.474 509.836 261.018 510.807 261.264C511.778 261.51 512.802 261.446 513.735 261.082" fill="#A36853"/>
<path d="M512.774 257.789C512.774 257.837 512.208 258.048 511.315 257.731C510.8 257.533 510.346 257.202 510 256.771C509.584 256.213 509.341 255.546 509.299 254.851C509.251 254.187 509.388 253.523 509.693 252.931C509.95 252.446 510.319 252.028 510.768 251.712C511.555 251.194 512.17 251.222 512.16 251.28C511.751 251.488 511.36 251.729 510.989 252C510.572 252.348 510.246 252.791 510.038 253.293C509.831 253.795 509.749 254.339 509.798 254.88C509.825 255.413 509.993 255.93 510.285 256.377C510.577 256.824 510.982 257.185 511.459 257.424C511.888 257.579 512.327 257.701 512.774 257.789Z" fill="#8F5039"/>
<path d="M536.208 270.173C538.128 271.488 541.757 270.797 543.12 268.848C540.191 267.251 537.491 265.265 535.094 262.944C535.094 262.944 532.368 267.475 536.208 270.173Z" fill="#FAFAFA"/>
<path d="M542.4 274.608C541.62 274.297 540.798 274.103 539.962 274.032C539.128 274.102 538.307 274.286 537.523 274.579C537.523 274.579 537.667 274.281 538.099 274.022C538.667 273.695 539.311 273.523 539.966 273.523C540.622 273.523 541.266 273.695 541.834 274.022C542.266 274.301 542.458 274.56 542.4 274.608Z" fill="#AA6550"/>
<path d="M519.043 336.077C523.095 330.099 526.779 323.879 530.074 317.453C534.038 309.888 533.366 309.504 532.416 309.168C529.862 308.256 524.938 322.195 524.285 318.547C523.632 314.899 532.253 302.227 529.546 301.421C526.013 300.326 521.126 315.024 520.627 316.234C520.128 317.443 518.371 316.704 518.89 315.638C519.629 314.112 526.982 297.802 523.517 296.698C521.597 296.093 520.906 299.683 520.906 299.683C520.906 299.683 515.146 315.475 513.523 314.899C511.901 314.323 514.963 304.925 516.221 301.834C517.478 298.742 516.538 296.909 514.742 297.446C513.514 297.811 509.434 307.181 508.262 310.262C507.091 313.344 504.019 321.878 502.157 316.358C502.157 316.272 502.089 316.195 502.051 316.109C500.371 310.618 497.251 306.95 495.629 306.509C494.006 306.067 492.826 307.853 493.498 309.389C493.584 309.657 493.728 309.903 493.92 310.109C494.006 310.205 494.093 310.349 494.179 310.454C495.142 312.168 495.927 313.976 496.522 315.85C497.09 317.518 497.373 319.271 497.357 321.034C497.357 323.078 498.317 329.03 498.24 330.499" fill="#FFAD9D"/>
<path d="M497.28 328.32L474.058 374.4C474.058 374.4 460.925 336.413 453.84 321.302C451.142 315.542 445.728 311.549 440.534 308.899V308.794L439.45 308.362C435.723 306.58 431.807 305.224 427.776 304.32C403.277 297.302 380.198 299.75 353.482 309.12C353.482 309.12 339.61 312.845 332.88 330.941C326.832 347.261 320.045 372.221 318.883 376.637C310.56 404.65 322.445 420.25 338.986 418.33C345.802 417.254 351.6 411.61 354.163 409.421L362.909 401.203L363.101 407.568L353.28 446.88L453.83 446.669L435.686 400.118L439.718 378.778L446.621 395.174C448.789 400.33 452.415 404.741 457.054 407.866C461.692 410.991 467.142 412.694 472.735 412.767C478.328 412.839 483.82 411.277 488.538 408.274C493.256 405.27 496.995 400.954 499.296 395.856L522.806 336.662L497.28 328.32Z" fill="#3B73A9"/>
<path d="M376.195 385.766C375.929 386.222 375.628 386.655 375.293 387.062C374.688 387.869 373.776 389.03 372.614 390.422C370.301 393.216 366.97 396.97 363.101 400.934C359.232 404.899 355.546 408.307 352.781 410.659C351.408 411.85 350.266 412.771 349.459 413.386C349.062 413.746 348.632 414.068 348.173 414.346C348.531 413.96 348.919 413.603 349.334 413.28C350.102 412.618 351.206 411.648 352.55 410.4C355.238 407.971 358.877 404.534 362.736 400.579C366.595 396.624 369.974 392.899 372.336 390.192C373.536 388.829 374.477 387.706 375.13 386.938C375.45 386.517 375.807 386.125 376.195 385.766Z" fill="#263238"/>
<path d="M436.013 398.621C436.005 398.44 436.021 398.259 436.061 398.083C436.138 397.68 436.214 397.181 436.32 396.566L437.366 390.979C438.25 386.266 439.459 379.757 440.419 372.509C440.662 370.698 440.88 368.934 441.072 367.219C441.309 365.589 441.402 363.941 441.35 362.294C441.173 359.503 440.758 356.731 440.112 354.01C439.594 351.667 439.152 349.786 438.854 348.47C438.72 347.808 438.643 347.29 438.605 346.944C438.581 346.762 438.581 346.578 438.605 346.397C438.666 346.567 438.705 346.744 438.72 346.925C438.787 347.27 438.902 347.779 439.066 348.432C439.382 349.728 439.91 351.59 440.477 353.933C441.18 356.667 441.633 359.459 441.83 362.275C441.888 363.943 441.805 365.613 441.581 367.267C441.398 368.986 441.178 370.762 440.938 372.576C439.978 379.843 438.701 386.352 437.731 391.046C437.232 393.341 436.829 395.222 436.531 396.605C436.387 397.21 436.272 397.709 436.186 398.112C436.145 398.287 436.087 398.457 436.013 398.621Z" fill="#263238"/>
<path d="M472.013 385.67C472.379 381.886 473.076 378.14 474.096 374.477C473.991 376.391 473.718 378.293 473.28 380.16C473.015 382.029 472.591 383.873 472.013 385.67Z" fill="#263238"/>
<path d="M475.555 387.034C475.073 384.901 474.752 382.735 474.595 380.554C474.259 378.391 474.089 376.205 474.086 374.016C474.568 376.149 474.889 378.315 475.046 380.496C475.383 382.659 475.553 384.845 475.555 387.034Z" fill="#263238"/>
<path d="M401.386 446.669C401.251 446.669 401.136 431.232 401.136 412.205C401.136 393.178 401.251 377.731 401.386 377.731C401.52 377.731 401.635 393.158 401.635 412.205C401.635 431.251 401.52 446.669 401.386 446.669Z" fill="#263238"/>
<g opacity="0.2">
<path d="M439.114 349.181C443.827 358.215 447.926 367.2 448.301 377.386C448.589 385.306 445.421 391.911 448.694 399.13C448.531 399.255 445.738 393.034 444.499 390.115C441.955 384.106 439.699 378.739 439.699 378.739C439.699 378.739 441.446 365.175 441.619 362.861C441.792 360.547 439.114 349.181 439.114 349.181Z" fill="black"/>
</g>
<g opacity="0.2">
<path d="M322.445 395.078C322.445 399.61 319.632 384.653 322.262 380.976C324.115 378.394 327.283 377.136 330.355 376.377C333.427 375.619 336.643 375.11 339.37 373.497C342.893 371.414 345.13 367.738 347.597 364.512C350.064 361.286 353.357 347.472 357.427 347.174V367.334C347.679 373.645 337.54 379.33 327.072 384.355C325.582 385.71 324.398 387.367 323.6 389.217C322.802 391.066 322.408 393.064 322.445 395.078Z" fill="black"/>
</g>
<g opacity="0.2">
<path d="M362.88 401.213C369.456 397.517 374.256 392.573 381.686 391.296C388.838 390.029 396.202 391.296 403.44 390.797C403.05 387.142 402.65 383.482 402.24 379.814L381.533 379.584L362.88 401.213Z" fill="black"/>
</g>
<path d="M357.427 346.944C357.562 346.944 357.677 351.427 357.677 356.957C357.677 362.486 357.562 366.979 357.427 366.979C357.174 363.645 357.091 360.3 357.178 356.957C357.091 353.617 357.174 350.275 357.427 346.944Z" fill="#263238"/>
<path d="M322.426 394.973C322.27 394.391 322.231 393.784 322.31 393.187C322.407 391.741 322.751 390.322 323.328 388.992C323.897 387.662 324.693 386.44 325.68 385.382C326.058 384.917 326.521 384.526 327.043 384.23C325.75 385.738 324.656 387.406 323.789 389.194C323.073 391.049 322.614 392.993 322.426 394.973Z" fill="#263238"/>
<path d="M326.563 384.538C327.081 384.4 327.585 384.217 328.07 383.99C329.03 383.606 330.413 383.03 332.093 382.234C335.453 380.698 340.032 378.394 344.89 375.514C349.747 372.634 353.981 369.802 356.947 367.632C358.435 366.538 359.626 365.635 360.422 364.992C360.854 364.678 361.259 364.328 361.632 363.946C361.16 364.202 360.711 364.498 360.288 364.829L356.726 367.325C353.702 369.418 349.459 372.211 344.611 375.062C339.763 377.914 335.232 380.237 331.92 381.859L327.984 383.779C327.489 383.989 327.013 384.243 326.563 384.538Z" fill="#263238"/>
<path d="M452.707 260.947C451.056 258.787 448.435 257.107 447.907 254.467C447.245 250.925 450.787 247.603 450.144 244.051C449.722 241.622 447.485 239.914 445.2 238.973C442.915 238.032 440.4 237.581 438.307 236.323C435.795 234.712 433.866 232.336 432.806 229.546C432.493 228.783 432.221 228.004 431.99 227.213C431.776 225.516 431.387 223.847 430.829 222.23C430.742 221.808 430.666 221.386 430.589 220.963L430.694 221.923C430.376 221.124 429.956 220.369 429.446 219.677C427.69 217.334 424.176 216.029 421.766 217.67L422.918 216.902C421.462 213.379 419.121 210.292 416.123 207.937C413.125 205.583 409.57 204.042 405.802 203.462C404.364 203.261 402.91 203.213 401.462 203.318C396.288 203.05 388.81 204.557 385.651 206.563C381.619 209.117 377.491 212.621 375.466 216.95C374.381 219.283 373.642 221.981 371.626 223.536C368.88 225.61 365.03 224.803 361.603 225.187C355.958 225.83 351.043 230.16 349.123 235.507C348.229 238.214 347.908 241.077 348.179 243.914C348.45 246.752 349.308 249.502 350.698 251.99C351.293 253.094 351.994 254.371 351.523 255.533C351.037 256.395 350.277 257.071 349.363 257.453C347.062 258.64 345.223 260.563 344.141 262.915C343.181 265.306 343.546 268.33 345.485 270.019C346.298 270.667 347.27 271.087 348.299 271.234C349.329 271.38 350.379 271.25 351.341 270.854C350.768 272.301 350.466 273.84 350.448 275.395C350.407 277.095 350.823 278.774 351.652 280.258C352.481 281.743 353.693 282.977 355.162 283.834C358.166 285.398 362.371 284.573 364.138 281.683C364.126 283.814 364.692 285.908 365.774 287.743C366.856 289.578 368.415 291.087 370.284 292.108C372.154 293.13 374.265 293.626 376.394 293.545C378.523 293.464 380.591 292.809 382.378 291.648C383.798 290.688 385.258 289.421 386.938 289.728C388.618 290.035 389.568 291.648 390.72 292.819C393.792 296.016 399.034 296.381 403.075 294.566C407.117 292.752 410.093 289.123 412.234 285.245C412.98 286.362 414.026 287.245 415.252 287.795C416.478 288.344 417.833 288.536 419.164 288.35C420.494 288.163 421.744 287.605 422.772 286.74C423.8 285.875 424.562 284.738 424.973 283.459C426.469 285.395 428.524 286.824 430.859 287.554C433.195 288.284 435.698 288.279 438.03 287.539C440.362 286.8 442.411 285.362 443.9 283.42C445.388 281.478 446.244 279.126 446.352 276.682C448.04 276.432 449.635 275.746 450.977 274.692C452.319 273.638 453.363 272.252 454.006 270.671C454.649 269.089 454.868 267.368 454.642 265.676C454.416 263.984 453.752 262.381 452.717 261.024L452.707 260.947ZM356.16 263.914C356.16 263.914 356.16 263.914 356.16 263.856L356.256 263.808L356.16 263.914Z" fill="#263238"/>
<path d="M417.062 288C417.062 288 429.36 285.965 431.904 269.923C433.171 261.946 432.768 248.87 432.096 238.186C431.953 235.905 431.35 233.677 430.324 231.635C429.298 229.593 427.869 227.78 426.124 226.305C424.379 224.829 422.353 223.722 420.169 223.05C417.985 222.378 415.687 222.155 413.414 222.394L385.574 225.341C384.163 225.49 382.859 226.166 381.923 227.233C380.987 228.301 380.488 229.682 380.525 231.101L383.453 300.778C381.427 301.21 376.829 302.208 374.573 302.861C374.573 302.861 396.096 350.966 401.366 350.41C406.637 349.853 427.699 304.33 427.699 304.33C424.031 303.224 420.308 302.311 416.544 301.594C416.484 297.056 416.657 292.519 417.062 288Z" fill="#FFAD9D"/>
<path d="M425.875 246.922C425.881 247.457 425.677 247.973 425.308 248.36C424.938 248.747 424.432 248.975 423.898 248.995C423.635 249.023 423.369 248.996 423.117 248.917C422.864 248.837 422.631 248.706 422.432 248.532C422.233 248.358 422.072 248.145 421.959 247.906C421.846 247.667 421.784 247.407 421.776 247.142C421.771 246.607 421.974 246.091 422.344 245.704C422.713 245.317 423.219 245.089 423.754 245.069C424.015 245.048 424.278 245.08 424.528 245.162C424.777 245.244 425.007 245.376 425.205 245.548C425.402 245.721 425.564 245.931 425.679 246.167C425.794 246.403 425.861 246.659 425.875 246.922Z" fill="#263238"/>
<path d="M429.264 245.021C429.005 245.29 427.45 244.138 425.232 244.147C423.014 244.157 421.392 245.261 421.162 244.992C421.037 244.867 421.296 244.387 422.006 243.869C422.972 243.215 424.114 242.871 425.28 242.88C426.431 242.878 427.554 243.241 428.486 243.917C429.12 244.416 429.389 244.906 429.264 245.021Z" fill="#263238"/>
<path d="M404.515 247.334C404.52 247.871 404.315 248.389 403.944 248.776C403.573 249.164 403.064 249.39 402.528 249.408C402.265 249.436 401.999 249.409 401.747 249.329C401.495 249.25 401.262 249.119 401.063 248.945C400.863 248.771 400.702 248.558 400.589 248.319C400.476 248.079 400.414 247.82 400.406 247.555C400.401 247.018 400.606 246.501 400.977 246.113C401.349 245.726 401.857 245.499 402.394 245.482C402.655 245.461 402.918 245.492 403.168 245.575C403.417 245.657 403.647 245.788 403.845 245.961C404.042 246.134 404.204 246.344 404.319 246.58C404.434 246.816 404.501 247.072 404.515 247.334Z" fill="#263238"/>
<path d="M407.501 245.433C407.251 245.702 405.686 244.55 403.478 244.56C401.27 244.569 399.638 245.674 399.398 245.405C399.283 245.28 399.542 244.8 400.253 244.282C401.212 243.62 402.351 243.268 403.517 243.273C404.668 243.273 405.79 243.636 406.723 244.31C407.395 244.8 407.626 245.318 407.501 245.433Z" fill="#263238"/>
<path d="M415.536 261.85C416.704 261.484 417.914 261.268 419.136 261.207C419.693 261.149 420.23 261.034 420.326 260.65C420.376 260.065 420.245 259.478 419.952 258.97C419.414 257.607 418.867 256.167 418.282 254.669C415.958 248.544 414.278 243.504 414.528 243.408C414.778 243.312 416.851 248.208 419.174 254.343L420.778 258.672C421.135 259.353 421.237 260.14 421.066 260.89C420.982 261.093 420.851 261.274 420.684 261.417C420.517 261.561 420.319 261.663 420.106 261.715C419.792 261.797 419.47 261.842 419.146 261.85C417.947 261.999 416.735 261.999 415.536 261.85Z" fill="#263238"/>
<path d="M417.062 288C409.509 288.106 402.074 286.112 395.587 282.24C395.587 282.24 400.8 293.251 416.851 291.754L417.062 288Z" fill="#ED9482"/>
<path d="M409.306 265.315C409.793 264.973 410.345 264.735 410.928 264.615C411.222 264.561 411.525 264.6 411.796 264.728C412.066 264.855 412.29 265.064 412.435 265.325C412.496 265.517 412.573 265.703 412.666 265.882C412.992 266.323 413.674 266.16 414.192 266.314C414.388 266.396 414.565 266.517 414.714 266.669C414.863 266.82 414.981 267 415.06 267.197C415.14 267.394 415.179 267.605 415.177 267.817C415.175 268.03 415.13 268.24 415.046 268.435C414.853 268.825 414.584 269.172 414.254 269.456C413.924 269.74 413.541 269.954 413.126 270.086C412.04 270.534 410.857 270.696 409.69 270.557C409.281 270.541 408.881 270.439 408.515 270.257C408.149 270.075 407.827 269.817 407.568 269.501C407.326 269.077 407.212 268.591 407.241 268.104C407.27 267.616 407.44 267.148 407.731 266.755C408.328 265.974 409.075 265.321 409.93 264.835" fill="#ED9482"/>
<path d="M409.027 263.386C409.382 263.386 409.392 265.766 411.446 267.466C413.501 269.165 416.054 268.906 416.074 269.242C416.074 269.395 415.507 269.712 414.422 269.741C413.025 269.755 411.666 269.279 410.582 268.397C409.522 267.547 408.834 266.318 408.662 264.97C408.595 264 408.864 263.366 409.027 263.386Z" fill="#263238"/>
<path d="M408.499 241.565C408.278 242.16 406.07 241.882 403.478 242.189C400.886 242.496 398.774 243.216 398.438 242.669C398.285 242.419 398.65 241.853 399.494 241.267C400.627 240.553 401.906 240.106 403.237 239.959C404.568 239.813 405.914 239.971 407.174 240.422C408.115 240.806 408.595 241.277 408.499 241.565Z" fill="#263238"/>
<path d="M428.448 240C428.054 240.509 426.528 240 424.694 240C422.861 240 421.315 240.336 420.96 239.808C420.797 239.558 421.046 239.05 421.718 238.579C422.63 238.009 423.69 237.721 424.765 237.754C425.84 237.786 426.881 238.137 427.757 238.762C428.41 239.261 428.621 239.779 428.448 240Z" fill="#263238"/>
<path d="M422.717 220.051C422.118 222.893 420.956 225.586 419.299 227.972C417.643 230.357 415.526 232.387 413.072 233.941C410.619 235.495 407.879 236.542 405.015 237.021C402.15 237.499 399.219 237.399 396.394 236.727C395.929 240.25 394.564 243.594 392.43 246.436C390.296 249.278 387.465 251.522 384.211 252.951C388.65 260.998 390.46 270.233 389.386 279.36C388.915 283.2 387.792 287.299 384.874 289.92C380.419 293.914 372.912 292.944 368.63 288.778C364.522 284.775 363.072 278.515 364.234 272.899C365.395 267.283 368.918 262.339 373.344 258.73C371.48 258.411 369.741 257.578 368.324 256.324C366.908 255.071 365.868 253.448 365.324 251.636C364.779 249.825 364.751 247.897 365.242 246.071C365.732 244.244 366.723 242.591 368.102 241.296C369.36 240.106 370.982 239.223 371.942 237.773C372.902 236.323 373.056 234.711 373.603 233.165C375.034 229.123 378.643 226.33 382.08 223.757C384.96 221.587 388.186 219.322 391.814 219.331C393.734 219.331 395.654 220.003 397.574 219.744C400.214 219.389 402.278 217.383 404.458 215.904C407.489 213.648 411.26 212.619 415.018 213.024C418.733 213.61 422.198 216.384 422.899 220.071" fill="#263238"/>
<path d="M421.286 221.635C420.72 224.736 422.246 227.914 424.57 230.083C426.893 232.253 429.763 233.597 432.634 234.883C431.633 231.833 430.236 228.928 428.477 226.243C427.59 224.895 426.444 223.735 425.106 222.832C423.768 221.929 422.264 221.301 420.682 220.982" fill="#263238"/>
<path d="M350.746 258.614C350.636 258.29 350.606 257.944 350.659 257.606C350.802 256.626 351.318 255.738 352.099 255.13C353.363 254.209 354.921 253.786 356.477 253.939C358.272 253.939 360.259 254.534 362.458 254.4C363.647 254.3 364.796 253.92 365.81 253.291C366.825 252.662 367.676 251.802 368.294 250.781C368.98 249.639 369.357 248.339 369.389 247.008C369.485 245.635 369.389 244.195 369.437 242.698C369.451 241.127 369.94 239.598 370.838 238.31C371.838 237.024 373.164 236.03 374.678 235.43C377.702 234.058 381.149 234.038 384.451 233.424C386.09 233.157 387.669 232.605 389.117 231.792C390.473 230.928 391.65 229.81 392.582 228.499C394.454 225.926 395.712 223.056 397.43 220.608C399.496 217.534 402.534 215.242 406.058 214.102C409.581 212.962 413.386 213.039 416.861 214.32C418.302 214.84 419.662 215.561 420.902 216.461C421.978 217.2 422.933 218.1 423.734 219.13C423.664 219.079 423.6 219.021 423.542 218.957L423.014 218.429C422.323 217.77 421.582 217.167 420.797 216.624C417.885 214.617 414.415 213.579 410.88 213.658C408.285 213.746 405.747 214.446 403.473 215.7C401.199 216.955 399.254 218.728 397.795 220.877C396.115 223.277 394.867 226.147 392.995 228.797C392.027 230.161 390.801 231.322 389.386 232.214C387.899 233.061 386.274 233.637 384.586 233.914C381.206 234.538 377.866 234.557 374.909 235.834C373.474 236.405 372.215 237.346 371.261 238.56C370.41 239.769 369.948 241.209 369.936 242.688C369.85 244.138 369.936 245.568 369.869 246.998C369.821 248.399 369.414 249.764 368.688 250.963C368.032 252.032 367.131 252.929 366.059 253.58C364.987 254.231 363.776 254.618 362.525 254.707C360.23 254.822 358.253 254.227 356.496 254.179C354.999 254.003 353.489 254.383 352.253 255.245C351.493 255.818 350.973 256.652 350.794 257.587C350.734 257.926 350.718 258.271 350.746 258.614Z" fill="#FAFAFA"/>
<path d="M374.592 332.717L375.61 358.291L378.182 382.771L405.379 381.61L403.421 333.274L374.592 332.717Z" fill="#263238"/>
<path d="M370.598 332.63L371.616 358.291L374.189 382.771L401.386 381.61L399.427 333.197L370.598 332.63Z" fill="#455A64"/>
<path d="M368.045 385.766C375.263 385.438 382.454 384.668 389.578 383.462C398.006 382.109 397.92 381.35 397.622 380.381C396.816 377.789 382.704 382.186 385.238 379.478C387.773 376.771 403.066 376.118 402.106 373.45C400.867 369.965 386.17 374.842 384.902 375.158C383.635 375.475 383.174 373.642 384.336 373.411C386.006 373.085 403.469 369.226 402.278 365.789C401.626 363.869 398.333 365.482 398.333 365.482C398.333 365.482 382.224 370.282 381.715 368.678C381.206 367.075 390.576 363.878 393.802 363.014C397.027 362.15 397.939 360.317 396.432 359.174C395.405 358.416 385.459 360.749 382.291 361.661C379.123 362.573 370.445 365.203 373.747 360.403C373.805 360.326 373.843 360.25 373.891 360.173C377.28 355.546 378.346 350.851 377.731 349.277C377.117 347.702 374.976 347.846 374.16 349.277C374 349.508 373.888 349.769 373.834 350.045C373.834 350.17 373.747 350.333 373.709 350.467C372.924 352.26 371.959 353.968 370.829 355.565C369.835 357.023 368.598 358.3 367.171 359.338C365.53 360.538 361.411 364.934 360.115 365.712" fill="#FFAD9D"/>
<path d="M361.814 364.301L376.195 385.766L352.493 409.939L353.299 370.733L361.814 364.301Z" fill="#E12B4D"/>
</svg>
