<svg id="Layer_1" data-name="Layer 1" xmlns="http://www.w3.org/2000/svg" viewBox="0 0 60 60"><defs><style>.cls-1{fill:#fe0030;}</style></defs><title>1</title><path class="cls-1" d="M55.94,13.91a20.86,20.86,0,0,1-6.11,1.67,10.61,10.61,0,0,0,4.68-5.89,21.37,21.37,0,0,1-6.76,2.59,10.65,10.65,0,0,0-18.41,7.28A10.84,10.84,0,0,0,29.61,22,30.21,30.21,0,0,1,7.67,10.86,10.67,10.67,0,0,0,11,25.08a10.78,10.78,0,0,1-4.82-1.33v.13a10.65,10.65,0,0,0,8.54,10.44,10.75,10.75,0,0,1-2.8.37,10.23,10.23,0,0,1-2-.19,10.66,10.66,0,0,0,10,7.39A21.46,21.46,0,0,1,4.06,46.3a30.11,30.11,0,0,0,16.31,4.78C40,51.08,50.66,34.86,50.66,20.8q0-.71,0-1.38A21.56,21.56,0,0,0,55.94,13.91Z"/></svg>