<svg width="100" height="160" viewBox="0 0 100 160" fill="none" xmlns="http://www.w3.org/2000/svg">
<path d="M33.66 139.52C33.2467 139.52 32.9 139.38 32.62 139.1C32.34 138.82 32.2 138.473 32.2 138.06C32.2 137.647 32.34 137.3 32.62 137.02C32.9 136.74 33.2467 136.6 33.66 136.6C34.06 136.6 34.4 136.74 34.68 137.02C34.96 137.3 35.1 137.647 35.1 138.06C35.1 138.473 34.96 138.82 34.68 139.1C34.4 139.38 34.06 139.52 33.66 139.52ZM34.78 140.98V152H32.5V140.98H34.78ZM46.1134 152.14C44.8201 152.14 43.6268 151.84 42.5334 151.24C41.4534 150.627 40.5934 149.78 39.9534 148.7C39.3268 147.607 39.0134 146.38 39.0134 145.02C39.0134 143.66 39.3268 142.44 39.9534 141.36C40.5934 140.28 41.4534 139.44 42.5334 138.84C43.6268 138.227 44.8201 137.92 46.1134 137.92C47.4201 137.92 48.6134 138.227 49.6934 138.84C50.7868 139.44 51.6468 140.28 52.2734 141.36C52.9001 142.44 53.2134 143.66 53.2134 145.02C53.2134 146.38 52.9001 147.607 52.2734 148.7C51.6468 149.78 50.7868 150.627 49.6934 151.24C48.6134 151.84 47.4201 152.14 46.1134 152.14ZM46.1134 150.16C47.0334 150.16 47.8534 149.953 48.5734 149.54C49.2934 149.113 49.8534 148.513 50.2534 147.74C50.6668 146.953 50.8734 146.047 50.8734 145.02C50.8734 143.993 50.6668 143.093 50.2534 142.32C49.8534 141.547 49.2934 140.953 48.5734 140.54C47.8534 140.127 47.0334 139.92 46.1134 139.92C45.1934 139.92 44.3734 140.127 43.6534 140.54C42.9334 140.953 42.3668 141.547 41.9534 142.32C41.5534 143.093 41.3534 143.993 41.3534 145.02C41.3534 146.047 41.5534 146.953 41.9534 147.74C42.3668 148.513 42.9334 149.113 43.6534 149.54C44.3734 149.953 45.1934 150.16 46.1134 150.16ZM62.037 152.14C61.1037 152.14 60.2637 151.98 59.517 151.66C58.7704 151.327 58.1837 150.86 57.757 150.26C57.3304 149.66 57.117 148.96 57.117 148.16H59.557C59.6104 148.76 59.8437 149.253 60.257 149.64C60.6837 150.027 61.277 150.22 62.037 150.22C62.8237 150.22 63.437 150.033 63.877 149.66C64.317 149.273 64.537 148.78 64.537 148.18C64.537 147.713 64.397 147.333 64.117 147.04C63.8504 146.747 63.5104 146.52 63.097 146.36C62.697 146.2 62.137 146.027 61.417 145.84C60.5104 145.6 59.7704 145.36 59.197 145.12C58.637 144.867 58.157 144.48 57.757 143.96C57.357 143.44 57.157 142.747 57.157 141.88C57.157 141.08 57.357 140.38 57.757 139.78C58.157 139.18 58.717 138.72 59.437 138.4C60.157 138.08 60.9904 137.92 61.937 137.92C63.2837 137.92 64.3837 138.26 65.237 138.94C66.1037 139.607 66.5837 140.527 66.677 141.7H64.157C64.117 141.193 63.877 140.76 63.437 140.4C62.997 140.04 62.417 139.86 61.697 139.86C61.0437 139.86 60.5104 140.027 60.097 140.36C59.6837 140.693 59.477 141.173 59.477 141.8C59.477 142.227 59.6037 142.58 59.857 142.86C60.1237 143.127 60.457 143.34 60.857 143.5C61.257 143.66 61.8037 143.833 62.497 144.02C63.417 144.273 64.1637 144.527 64.737 144.78C65.3237 145.033 65.817 145.427 66.217 145.96C66.6304 146.48 66.837 147.18 66.837 148.06C66.837 148.767 66.6437 149.433 66.257 150.06C65.8837 150.687 65.3304 151.193 64.597 151.58C63.877 151.953 63.0237 152.14 62.037 152.14Z" fill="white"/>
<path fill-rule="evenodd" clip-rule="evenodd" d="M61.1648 17.2722C55.3754 18.5289 50.6581 23.399 49.5518 29.2619C49.2968 30.6125 49.3081 32.5872 49.5732 33.0169C49.8867 33.5246 53.3403 33 55.1794 32.1649C59.1011 30.3845 62.3304 26.3277 63.298 21.9658C63.5762 20.7123 63.6728 19.5137 63.6245 17.915L63.5969 17L62.9441 17.0138C62.5852 17.0214 61.7845 17.1377 61.1648 17.2722ZM59.2087 32.7659C58.1232 32.9932 57.1258 33.3245 52.8047 34.8926C50.6648 35.6694 50.1911 35.6227 46.6254 34.2829C42.2486 32.6385 40.3106 32.3772 37.2226 33.0155C31.8952 34.1165 27.4161 37.8943 25.1999 43.156C23.9774 46.0582 23.4919 48.7434 23.5001 52.5559C23.5111 57.5973 24.5589 62.3958 26.8035 67.6824C29.2459 73.4352 34.0995 79.875 37.2326 81.5201C39.8303 82.8841 41.8591 82.8332 45.625 81.3101C48.3269 80.2173 49.5312 79.9259 51.3602 79.9225C53.265 79.9191 54.1833 80.1371 57.0694 81.2778C59.3302 82.1714 59.6341 82.2469 61.2736 82.3226C63.5396 82.4273 64.9161 82.0432 66.653 80.8219C70.0196 78.4545 74.5204 71.7738 76.4583 66.2675C76.7563 65.4212 77 64.6232 77 64.4946C77 64.3658 76.7392 64.1744 76.4207 64.0692C75.3431 63.7129 73.2228 62.1591 71.9143 60.7665C69.509 58.2063 68.445 55.465 68.4225 51.7715C68.4042 48.7404 69.0253 46.7066 70.7378 44.1898C71.4891 43.0856 73.4022 41.2015 74.6066 40.3799C75.0614 40.0695 75.4334 39.7462 75.4334 39.6611C75.4334 39.2717 73.2483 36.814 72.1075 35.9202C70.5456 34.6964 68.1679 33.5343 66.2079 33.0367C64.297 32.5517 60.8658 32.4189 59.2087 32.7659Z" fill="white"/>
</svg>
