<svg width="30" height="30" viewBox="0 0 30 30" fill="none" xmlns="http://www.w3.org/2000/svg">
<path d="M27.9698 6.95496C26.9999 7.38718 25.9697 7.66876 24.9148 7.78996C26.0283 7.12705 26.8607 6.07948 27.2548 4.84496C26.21 5.4657 25.0669 5.90365 23.8748 6.13996C23.1443 5.36278 22.1972 4.82289 21.1562 4.59025C20.1153 4.3576 19.0285 4.44292 18.0366 4.83515C17.0447 5.22737 16.1935 5.90843 15.5932 6.79008C14.9929 7.67173 14.6712 8.71334 14.6698 9.77996C14.6684 10.1904 14.7137 10.5997 14.8048 11C12.6878 10.8932 10.617 10.3421 8.727 9.38245C6.837 8.42281 5.17013 7.07612 3.83479 5.42996C3.15638 6.60466 2.95093 7.99367 3.26023 9.31446C3.56953 10.6352 4.37034 11.7886 5.49979 12.54C4.65544 12.5102 3.8299 12.2824 3.08979 11.875V11.94C3.08966 13.1692 3.51481 14.3606 4.29311 15.3121C5.07141 16.2635 6.15492 16.9164 7.35979 17.16C6.90329 17.2829 6.43256 17.3451 5.95979 17.345C5.62414 17.3462 5.28919 17.3144 4.95979 17.25C5.30182 18.3116 5.96825 19.2391 6.86524 19.902C7.76222 20.5649 8.84455 20.9296 9.95979 20.945C8.84817 21.8163 7.57544 22.4597 6.21462 22.8381C4.8538 23.2165 3.43166 23.3224 2.02979 23.15C4.46221 24.7132 7.29334 25.5429 10.1848 25.54C19.9998 25.54 25.3298 17.43 25.3298 10.4C25.3298 10.1633 25.3298 9.93329 25.3298 9.70996C26.3666 8.95591 27.2606 8.02297 27.9698 6.95496V6.95496Z" fill="white"/>
</svg>
