<svg width="30" height="30" viewBox="0 0 30 30" fill="none" xmlns="http://www.w3.org/2000/svg">
<path d="M15.0002 8.13C13.6513 8.13 12.3327 8.52999 11.2112 9.27938C10.0896 10.0288 9.21551 11.0939 8.69932 12.3401C8.18313 13.5863 8.04807 14.9576 8.31122 16.2805C8.57437 17.6035 9.22392 18.8187 10.1777 19.7725C11.1315 20.7263 12.3467 21.3758 13.6697 21.639C14.9926 21.9021 16.3639 21.7671 17.6101 21.2509C18.8563 20.7347 19.9214 19.8605 20.6708 18.739C21.4202 17.6175 21.8202 16.2989 21.8202 14.95C21.8189 13.1416 21.0999 11.4077 19.8212 10.129C18.5425 8.85029 16.8085 8.13133 15.0002 8.13V8.13ZM15.0002 18.895C14.2187 18.895 13.4548 18.6632 12.8052 18.229C12.1555 17.7947 11.6492 17.1775 11.3504 16.4554C11.0516 15.7334 10.9736 14.9389 11.1264 14.1726C11.2793 13.4062 11.656 12.7024 12.2089 12.1502C12.7618 11.5979 13.4661 11.2221 14.2326 11.0703C14.9992 10.9184 15.7936 10.9974 16.5152 11.2971C17.2369 11.5969 17.8535 12.1039 18.2869 12.7541C18.7203 13.4044 18.9512 14.1686 18.9502 14.95C18.9502 15.4685 18.848 15.9819 18.6494 16.4608C18.4508 16.9398 18.1598 17.3749 17.7929 17.7413C17.4261 18.1077 16.9906 18.3982 16.5114 18.5961C16.0322 18.7941 15.5187 18.8957 15.0002 18.895V18.895Z" fill="white"/>
<path d="M23.5651 8.23C23.5681 8.57575 23.4683 8.91459 23.2784 9.20352C23.0884 9.49245 22.817 9.71845 22.4984 9.85282C22.1798 9.9872 21.8285 10.0239 21.489 9.95828C21.1495 9.89265 20.8372 9.72765 20.5916 9.48422C20.3461 9.24078 20.1784 8.92989 20.1098 8.59099C20.0413 8.25209 20.075 7.90046 20.2066 7.58073C20.3382 7.261 20.5618 6.98757 20.8491 6.79516C21.1364 6.60274 21.4744 6.50001 21.8201 6.5C22.2799 6.50128 22.7208 6.68349 23.0473 7.00723C23.3739 7.33096 23.5599 7.77021 23.5651 8.23V8.23Z" fill="white"/>
<path d="M25.8498 4.205C25.1202 3.47986 24.2492 2.91257 23.291 2.5384C22.3327 2.16422 21.3078 1.99117 20.2798 2.03H9.71982C5.11982 2.03 2.02982 5.12 2.02982 9.72V20.22C1.9922 21.2691 2.17076 22.3147 2.55439 23.2918C2.93802 24.2689 3.51852 25.1567 4.25982 25.9C5.75031 27.2853 7.72583 28.0288 9.75982 27.97H20.2298C22.2846 28.0368 24.2832 27.2934 25.7948 25.9C26.5228 25.1621 27.0915 24.2825 27.4657 23.3158C27.8398 22.349 28.0114 21.3158 27.9698 20.28V9.72C28.0028 8.70573 27.8322 7.69513 27.4681 6.7479C27.104 5.80067 26.5537 4.93601 25.8498 4.205V4.205ZM20.2298 25.1H9.76982C8.46577 25.156 7.19045 24.7064 6.20982 23.845C5.75924 23.3617 5.41094 22.7924 5.18583 22.1712C4.96072 21.55 4.86344 20.8897 4.89982 20.23V9.73C4.86651 9.07815 4.96539 8.42629 5.19052 7.81364C5.41565 7.20099 5.76236 6.6402 6.20982 6.165C7.18538 5.29398 8.46338 4.83986 9.76982 4.9H20.3348C20.9843 4.86731 21.6337 4.96554 22.2444 5.18887C22.8551 5.4122 23.4147 5.75606 23.8898 6.2C24.7554 7.15814 25.2254 8.40894 25.2048 9.7V20.28C25.2291 20.9387 25.1163 21.5952 24.8736 22.208C24.6309 22.8208 24.2635 23.3766 23.7948 23.84C22.8131 24.7035 21.5361 25.1549 20.2298 25.1V25.1Z" fill="white"/>
</svg>
