<svg width="100" height="160" viewBox="0 0 100 160" fill="none" xmlns="http://www.w3.org/2000/svg">
<path d="M14.007 149.16H8.18695L7.18695 152H4.80695L9.78695 138.08H12.427L17.407 152H15.007L14.007 149.16ZM13.367 147.3L11.107 140.84L8.82695 147.3H13.367ZM27.1323 140.8C27.9989 140.8 28.7723 140.98 29.4523 141.34C30.1456 141.7 30.6856 142.233 31.0723 142.94C31.4589 143.647 31.6523 144.5 31.6523 145.5V152H29.3923V145.84C29.3923 144.853 29.1456 144.1 28.6523 143.58C28.1589 143.047 27.4856 142.78 26.6323 142.78C25.7789 142.78 25.0989 143.047 24.5923 143.58C24.0989 144.1 23.8523 144.853 23.8523 145.84V152H21.5723V140.98H23.8523V142.24C24.2256 141.787 24.6989 141.433 25.2723 141.18C25.8589 140.927 26.4789 140.8 27.1323 140.8ZM35.8005 146.44C35.8005 145.333 36.0272 144.353 36.4805 143.5C36.9472 142.647 37.5739 141.987 38.3605 141.52C39.1605 141.04 40.0472 140.8 41.0205 140.8C41.7405 140.8 42.4472 140.96 43.1405 141.28C43.8472 141.587 44.4072 142 44.8205 142.52V137.2H47.1205V152H44.8205V150.34C44.4472 150.873 43.9272 151.313 43.2605 151.66C42.6072 152.007 41.8539 152.18 41.0005 152.18C40.0405 152.18 39.1605 151.94 38.3605 151.46C37.5739 150.967 36.9472 150.287 36.4805 149.42C36.0272 148.54 35.8005 147.547 35.8005 146.44ZM44.8205 146.48C44.8205 145.72 44.6605 145.06 44.3405 144.5C44.0339 143.94 43.6272 143.513 43.1205 143.22C42.6139 142.927 42.0672 142.78 41.4805 142.78C40.8939 142.78 40.3472 142.927 39.8405 143.22C39.3339 143.5 38.9205 143.92 38.6005 144.48C38.2939 145.027 38.1405 145.68 38.1405 146.44C38.1405 147.2 38.2939 147.867 38.6005 148.44C38.9205 149.013 39.3339 149.453 39.8405 149.76C40.3605 150.053 40.9072 150.2 41.4805 150.2C42.0672 150.2 42.6139 150.053 43.1205 149.76C43.6272 149.467 44.0339 149.04 44.3405 148.48C44.6605 147.907 44.8205 147.24 44.8205 146.48ZM54.3952 142.58C54.7286 142.02 55.1686 141.587 55.7152 141.28C56.2752 140.96 56.9352 140.8 57.6952 140.8V143.16H57.1152C56.2219 143.16 55.5419 143.387 55.0752 143.84C54.6219 144.293 54.3952 145.08 54.3952 146.2V152H52.1152V140.98H54.3952V142.58ZM66.571 152.18C65.531 152.18 64.591 151.947 63.751 151.48C62.911 151 62.251 150.333 61.771 149.48C61.291 148.613 61.051 147.613 61.051 146.48C61.051 145.36 61.2977 144.367 61.791 143.5C62.2843 142.633 62.9577 141.967 63.811 141.5C64.6643 141.033 65.6177 140.8 66.671 140.8C67.7243 140.8 68.6777 141.033 69.531 141.5C70.3843 141.967 71.0577 142.633 71.551 143.5C72.0443 144.367 72.291 145.36 72.291 146.48C72.291 147.6 72.0377 148.593 71.531 149.46C71.0243 150.327 70.331 151 69.451 151.48C68.5843 151.947 67.6243 152.18 66.571 152.18ZM66.571 150.2C67.1577 150.2 67.7043 150.06 68.211 149.78C68.731 149.5 69.151 149.08 69.471 148.52C69.791 147.96 69.951 147.28 69.951 146.48C69.951 145.68 69.7977 145.007 69.491 144.46C69.1843 143.9 68.7777 143.48 68.271 143.2C67.7643 142.92 67.2177 142.78 66.631 142.78C66.0443 142.78 65.4977 142.92 64.991 143.2C64.4977 143.48 64.1043 143.9 63.811 144.46C63.5177 145.007 63.371 145.68 63.371 146.48C63.371 147.667 63.671 148.587 64.271 149.24C64.8843 149.88 65.651 150.2 66.571 150.2ZM77.7049 139.52C77.2916 139.52 76.9449 139.38 76.6649 139.1C76.3849 138.82 76.2449 138.473 76.2449 138.06C76.2449 137.647 76.3849 137.3 76.6649 137.02C76.9449 136.74 77.2916 136.6 77.7049 136.6C78.1049 136.6 78.4449 136.74 78.7249 137.02C79.0049 137.3 79.1449 137.647 79.1449 138.06C79.1449 138.473 79.0049 138.82 78.7249 139.1C78.4449 139.38 78.1049 139.52 77.7049 139.52ZM78.8249 140.98V152H76.5449V140.98H78.8249ZM83.0584 146.44C83.0584 145.333 83.285 144.353 83.7384 143.5C84.205 142.647 84.8317 141.987 85.6184 141.52C86.4184 141.04 87.305 140.8 88.2784 140.8C88.9984 140.8 89.705 140.96 90.3984 141.28C91.105 141.587 91.665 142 92.0784 142.52V137.2H94.3784V152H92.0784V150.34C91.705 150.873 91.185 151.313 90.5184 151.66C89.865 152.007 89.1117 152.18 88.2584 152.18C87.2984 152.18 86.4184 151.94 85.6184 151.46C84.8317 150.967 84.205 150.287 83.7384 149.42C83.285 148.54 83.0584 147.547 83.0584 146.44ZM92.0784 146.48C92.0784 145.72 91.9184 145.06 91.5984 144.5C91.2917 143.94 90.885 143.513 90.3784 143.22C89.8717 142.927 89.325 142.78 88.7384 142.78C88.1517 142.78 87.605 142.927 87.0984 143.22C86.5917 143.5 86.1784 143.92 85.8584 144.48C85.5517 145.027 85.3984 145.68 85.3984 146.44C85.3984 147.2 85.5517 147.867 85.8584 148.44C86.1784 149.013 86.5917 149.453 87.0984 149.76C87.6184 150.053 88.165 150.2 88.7384 150.2C89.325 150.2 89.8717 150.053 90.3784 149.76C90.885 149.467 91.2917 149.04 91.5984 148.48C91.9184 147.907 92.0784 147.24 92.0784 146.48Z" fill="white"/>
<path fill-rule="evenodd" clip-rule="evenodd" d="M39.3699 20.6312C39.2944 20.7067 39.2337 20.874 39.235 21.0029C39.2362 21.1317 39.7986 22.2642 40.4846 23.5193C41.1706 24.7744 41.7117 25.834 41.687 25.874C41.6623 25.9139 41.2365 26.1823 40.7408 26.4704C37.7659 28.1993 35.2726 31.2315 34.2049 34.4191C33.803 35.6191 33.5167 37.1813 33.5167 38.1751V38.9034H49.75H65.9833L65.9828 38.3031C65.9821 37.3686 65.6651 35.6381 65.289 34.5152C64.1762 31.193 61.8274 28.3134 58.6897 26.4246C58.1715 26.1127 57.825 25.831 57.8472 25.7398C57.8679 25.6546 58.4246 24.5953 59.0845 23.3857C59.8146 22.047 60.2696 21.0892 60.2471 20.9377C60.1961 20.594 59.869 20.4013 59.61 20.5624C59.5 20.6309 58.8341 21.7368 58.1302 23.0202C57.4018 24.3483 56.7862 25.3452 56.7013 25.3341C56.6192 25.3233 56.0375 25.1336 55.4088 24.9124C51.8177 23.6491 47.724 23.65 44.0912 24.9149C43.4625 25.1338 42.8805 25.3221 42.7979 25.3333C42.7115 25.3449 42.1267 24.3993 41.4209 23.1066C40.746 21.8707 40.1256 20.7773 40.0422 20.6767C39.8626 20.4602 39.5612 20.4398 39.3699 20.6312ZM43.0399 30.465C43.3187 30.6082 43.6902 31.2378 43.6907 31.5681C43.6913 31.9908 43.3751 32.5492 43.0143 32.7624C41.6837 33.5487 40.3245 31.7686 41.4194 30.6736C41.8688 30.2241 42.4298 30.152 43.0399 30.465ZM57.9335 30.518C58.2016 30.6914 58.4195 31.072 58.4465 31.4139C58.491 31.978 58.413 32.2052 58.0495 32.5687C57.7477 32.8706 57.5664 32.9575 57.2383 32.9575C56.6921 32.9575 56.2003 32.6617 55.9822 32.202C55.7417 31.6949 55.7652 31.341 56.0701 30.8877C56.4903 30.2623 57.2925 30.1033 57.9335 30.518ZM27.2777 39.7046C26.5171 40.0048 25.6847 40.8157 25.3047 41.6264L25 42.2765V50.6236V58.9708L25.3065 59.6248C26.6029 62.3913 30.3878 62.5004 31.8216 59.8127L32.0878 59.3138V50.6236V41.9335L31.8398 41.4703C31.4996 40.8347 30.7531 40.1135 30.1095 39.7985C29.3605 39.432 28.0762 39.3895 27.2777 39.7046ZM69.5594 39.7164C68.8669 39.9826 68.0595 40.7202 67.6784 41.4346L67.4122 41.9335V50.6236V59.3138L67.6625 59.7816C69.1133 62.4933 72.8919 62.4027 74.1935 59.6248L74.5 58.9708V50.6212V42.2717L74.1227 41.5053C73.2807 39.7944 71.3376 39.0327 69.5594 39.7164ZM33.6311 52.2201C33.6311 64.2735 33.6312 64.2795 33.8764 64.9352C34.1751 65.7335 34.9506 66.5966 35.7437 67.0132C36.283 67.2966 36.4294 67.3172 38.1752 67.3548L40.0329 67.3947L40.0453 68.5569C40.0521 69.1961 40.092 71.237 40.1339 73.0922C40.2096 76.449 40.2115 76.4681 40.5117 77.0371C40.8992 77.7714 41.5404 78.3865 42.2621 78.7163C43.0757 79.0881 44.445 79.0882 45.1993 78.7166C45.9456 78.349 46.6313 77.6465 46.9891 76.8833L47.2921 76.2367L47.328 71.8059L47.3638 67.375H49.75H52.1362L52.172 71.8059L52.2079 76.2367L52.5109 76.8833C52.8687 77.6465 53.5544 78.349 54.3007 78.7166C55.0939 79.1074 56.4291 79.0922 57.3027 78.6824C58.0094 78.3509 58.6938 77.7109 59.0168 77.0795C59.3842 76.361 59.4654 75.3185 59.4662 71.3011L59.4671 67.3947L61.3248 67.3548C63.0706 67.3172 63.217 67.2966 63.7563 67.0132C64.5494 66.5966 65.3249 65.7335 65.6236 64.9352C65.8688 64.2795 65.8689 64.2735 65.8689 52.2201V40.1612H49.75H33.6311V52.2201Z" fill="#A4C639"/>
</svg>
