<svg width="30" height="30" viewBox="0 0 30 30" fill="none" xmlns="http://www.w3.org/2000/svg">
<path d="M26.3048 25.805V17.445C26.3048 12.945 23.9148 10.88 20.7248 10.88C19.8463 10.8434 18.9746 11.0488 18.2049 11.4737C17.4351 11.8987 16.7969 12.527 16.3598 13.29V11.225H11.4998C11.5648 12.59 11.4998 25.805 11.4998 25.805H16.3498V17.66C16.3295 17.2674 16.3803 16.8744 16.4998 16.5C16.6812 15.9815 17.0192 15.5322 17.4671 15.2142C17.9149 14.8962 18.4506 14.7253 18.9998 14.725C20.7548 14.725 21.4548 16.065 21.4548 18.025V25.825L26.3048 25.805ZM6.40483 9.23498C8.09483 9.23498 9.14483 8.10998 9.14483 6.73498C9.14483 5.35999 8.09483 4.23499 6.43483 4.23499C4.77483 4.23499 3.69483 5.31999 3.69483 6.73498C3.69394 7.079 3.76406 7.4195 3.9008 7.73517C4.03754 8.05085 4.23796 8.3349 4.48951 8.56957C4.74107 8.80423 5.03836 8.98445 5.36276 9.09894C5.68716 9.21344 6.03171 9.25975 6.37483 9.23498H6.40483ZM8.82983 25.805V11.225H3.99983V25.805H8.82983Z" fill="white"/>
</svg>
