<svg width="100" height="190" viewBox="0 0 100 190" fill="none" xmlns="http://www.w3.org/2000/svg">
<path d="M26.2356 152L23.0356 146.44H21.2956V152H19.0156V138.1H23.8156C24.8823 138.1 25.7823 138.287 26.5156 138.66C27.2623 139.033 27.8156 139.533 28.1756 140.16C28.549 140.787 28.7356 141.487 28.7356 142.26C28.7356 143.167 28.469 143.993 27.9356 144.74C27.4156 145.473 26.609 145.973 25.5156 146.24L28.9556 152H26.2356ZM21.2956 144.62H23.8156C24.669 144.62 25.309 144.407 25.7356 143.98C26.1756 143.553 26.3956 142.98 26.3956 142.26C26.3956 141.54 26.1823 140.98 25.7556 140.58C25.329 140.167 24.6823 139.96 23.8156 139.96H21.2956V144.62ZM43.7523 146.22C43.7523 146.633 43.7257 147.007 43.6723 147.34H35.2523C35.319 148.22 35.6457 148.927 36.2323 149.46C36.819 149.993 37.539 150.26 38.3923 150.26C39.619 150.26 40.4857 149.747 40.9923 148.72H43.4523C43.119 149.733 42.5123 150.567 41.6323 151.22C40.7657 151.86 39.6857 152.18 38.3923 152.18C37.339 152.18 36.3923 151.947 35.5523 151.48C34.7257 151 34.0723 150.333 33.5923 149.48C33.1257 148.613 32.8923 147.613 32.8923 146.48C32.8923 145.347 33.119 144.353 33.5723 143.5C34.039 142.633 34.6857 141.967 35.5123 141.5C36.3523 141.033 37.3123 140.8 38.3923 140.8C39.4323 140.8 40.359 141.027 41.1723 141.48C41.9857 141.933 42.619 142.573 43.0723 143.4C43.5257 144.213 43.7523 145.153 43.7523 146.22ZM41.3723 145.5C41.359 144.66 41.059 143.987 40.4723 143.48C39.8857 142.973 39.159 142.72 38.2923 142.72C37.5057 142.72 36.8323 142.973 36.2723 143.48C35.7123 143.973 35.379 144.647 35.2723 145.5H41.3723ZM47.2361 146.44C47.2361 145.333 47.4628 144.353 47.9161 143.5C48.3828 142.647 49.0094 141.987 49.7961 141.52C50.5961 141.04 51.4761 140.8 52.4361 140.8C53.3028 140.8 54.0561 140.973 54.6961 141.32C55.3494 141.653 55.8694 142.073 56.2561 142.58V140.98H58.5561V152H56.2561V150.36C55.8694 150.88 55.3428 151.313 54.6761 151.66C54.0094 152.007 53.2494 152.18 52.3961 152.18C51.4494 152.18 50.5828 151.94 49.7961 151.46C49.0094 150.967 48.3828 150.287 47.9161 149.42C47.4628 148.54 47.2361 147.547 47.2361 146.44ZM56.2561 146.48C56.2561 145.72 56.0961 145.06 55.7761 144.5C55.4694 143.94 55.0628 143.513 54.5561 143.22C54.0494 142.927 53.5028 142.78 52.9161 142.78C52.3294 142.78 51.7828 142.927 51.2761 143.22C50.7694 143.5 50.3561 143.92 50.0361 144.48C49.7294 145.027 49.5761 145.68 49.5761 146.44C49.5761 147.2 49.7294 147.867 50.0361 148.44C50.3561 149.013 50.7694 149.453 51.2761 149.76C51.7961 150.053 52.3428 150.2 52.9161 150.2C53.5028 150.2 54.0494 150.053 54.5561 149.76C55.0628 149.467 55.4694 149.04 55.7761 148.48C56.0961 147.907 56.2561 147.24 56.2561 146.48ZM62.7908 146.48C62.7908 145.347 63.0174 144.353 63.4708 143.5C63.9374 142.633 64.5774 141.967 65.3908 141.5C66.2041 141.033 67.1374 140.8 68.1908 140.8C69.5241 140.8 70.6241 141.12 71.4908 141.76C72.3708 142.387 72.9641 143.287 73.2708 144.46H70.8108C70.6108 143.913 70.2908 143.487 69.8508 143.18C69.4108 142.873 68.8574 142.72 68.1908 142.72C67.2574 142.72 66.5108 143.053 65.9508 143.72C65.4041 144.373 65.1308 145.293 65.1308 146.48C65.1308 147.667 65.4041 148.593 65.9508 149.26C66.5108 149.927 67.2574 150.26 68.1908 150.26C69.5108 150.26 70.3841 149.68 70.8108 148.52H73.2708C72.9508 149.64 72.3508 150.533 71.4708 151.2C70.5908 151.853 69.4974 152.18 68.1908 152.18C67.1374 152.18 66.2041 151.947 65.3908 151.48C64.5774 151 63.9374 150.333 63.4708 149.48C63.0174 148.613 62.7908 147.613 62.7908 146.48ZM80.203 142.84V148.94C80.203 149.353 80.2963 149.653 80.483 149.84C80.683 150.013 81.0163 150.1 81.483 150.1H82.883V152H81.083C80.0563 152 79.2696 151.76 78.723 151.28C78.1763 150.8 77.903 150.02 77.903 148.94V142.84H76.603V140.98H77.903V138.24H80.203V140.98H82.883V142.84H80.203ZM26.1446 182H23.8646L17.0046 171.62V182H14.7246V168.08H17.0046L23.8646 178.44V168.08H26.1446V182ZM30.3787 176.44C30.3787 175.333 30.6053 174.353 31.0587 173.5C31.5253 172.647 32.152 171.987 32.9387 171.52C33.7387 171.04 34.6187 170.8 35.5787 170.8C36.4453 170.8 37.1987 170.973 37.8387 171.32C38.492 171.653 39.012 172.073 39.3987 172.58V170.98H41.6987V182H39.3987V180.36C39.012 180.88 38.4853 181.313 37.8187 181.66C37.152 182.007 36.392 182.18 35.5387 182.18C34.592 182.18 33.7253 181.94 32.9387 181.46C32.152 180.967 31.5253 180.287 31.0587 179.42C30.6053 178.54 30.3787 177.547 30.3787 176.44ZM39.3987 176.48C39.3987 175.72 39.2387 175.06 38.9187 174.5C38.612 173.94 38.2053 173.513 37.6987 173.22C37.192 172.927 36.6453 172.78 36.0587 172.78C35.472 172.78 34.9253 172.927 34.4187 173.22C33.912 173.5 33.4987 173.92 33.1787 174.48C32.872 175.027 32.7187 175.68 32.7187 176.44C32.7187 177.2 32.872 177.867 33.1787 178.44C33.4987 179.013 33.912 179.453 34.4187 179.76C34.9387 180.053 35.4853 180.2 36.0587 180.2C36.6453 180.2 37.192 180.053 37.6987 179.76C38.2053 179.467 38.612 179.04 38.9187 178.48C39.2387 177.907 39.3987 177.24 39.3987 176.48ZM49.3534 172.84V178.94C49.3534 179.353 49.4467 179.653 49.6334 179.84C49.8334 180.013 50.1667 180.1 50.6334 180.1H52.0334V182H50.2334C49.2067 182 48.42 181.76 47.8734 181.28C47.3267 180.8 47.0534 180.02 47.0534 178.94V172.84H45.7534V170.98H47.0534V168.24H49.3534V170.98H52.0334V172.84H49.3534ZM57.2948 169.52C56.8814 169.52 56.5348 169.38 56.2548 169.1C55.9748 168.82 55.8348 168.473 55.8348 168.06C55.8348 167.647 55.9748 167.3 56.2548 167.02C56.5348 166.74 56.8814 166.6 57.2948 166.6C57.6948 166.6 58.0348 166.74 58.3148 167.02C58.5948 167.3 58.7348 167.647 58.7348 168.06C58.7348 168.473 58.5948 168.82 58.3148 169.1C58.0348 169.38 57.6948 169.52 57.2948 169.52ZM58.4148 170.98V182H56.1348V170.98H58.4148ZM67.6682 179.96L70.7882 170.98H73.2082L69.0082 182H66.2882L62.1082 170.98H64.5482L67.6682 179.96ZM87.0316 176.22C87.0316 176.633 87.005 177.007 86.9516 177.34H78.5316C78.5983 178.22 78.925 178.927 79.5116 179.46C80.0983 179.993 80.8183 180.26 81.6716 180.26C82.8983 180.26 83.765 179.747 84.2716 178.72H86.7316C86.3983 179.733 85.7916 180.567 84.9116 181.22C84.045 181.86 82.965 182.18 81.6716 182.18C80.6183 182.18 79.6716 181.947 78.8316 181.48C78.005 181 77.3516 180.333 76.8716 179.48C76.405 178.613 76.1716 177.613 76.1716 176.48C76.1716 175.347 76.3983 174.353 76.8516 173.5C77.3183 172.633 77.965 171.967 78.7916 171.5C79.6316 171.033 80.5916 170.8 81.6716 170.8C82.7116 170.8 83.6383 171.027 84.4516 171.48C85.265 171.933 85.8983 172.573 86.3516 173.4C86.805 174.213 87.0316 175.153 87.0316 176.22ZM84.6516 175.5C84.6383 174.66 84.3383 173.987 83.7516 173.48C83.165 172.973 82.4383 172.72 81.5716 172.72C80.785 172.72 80.1116 172.973 79.5516 173.48C78.9916 173.973 78.6583 174.647 78.5516 175.5H84.6516Z" fill="white"/>
<path fill-rule="evenodd" clip-rule="evenodd" d="M35.6029 21.2022C33.0456 21.784 31.3129 23.7013 30.4811 26.8696C30.2743 27.657 30.1702 28.5714 30.1185 30.0536C30.0379 32.3664 30.1927 34.1207 30.7059 36.7048C30.8902 37.633 31.0411 38.4747 31.0411 38.5751C31.0411 38.6827 30.5479 38.9195 29.8415 39.1511C24.9205 40.7649 21.281 43.1322 19.5317 45.8575C18.7054 47.1449 18.4912 47.905 18.5003 49.517C18.5069 50.6942 18.5629 51.031 18.8803 51.8006C20.1618 54.9083 23.9968 57.7266 29.5026 59.6068C30.429 59.9232 31.2191 60.2143 31.2582 60.2538C31.2972 60.2931 31.2022 60.8266 31.047 61.439C30.2652 64.522 29.8797 68.3155 30.0948 70.8088C30.6417 77.1513 34.2656 80.0854 39.6869 78.5754C42.3531 77.8327 45.6123 75.754 49.1074 72.5669L49.9622 71.7875L51.0274 72.7909C55.13 76.6553 59.6044 79 62.8767 79C65.123 79 67.2372 77.762 68.3985 75.7665C68.9964 74.7393 69.5494 72.8337 69.7245 71.1977C69.9873 68.7416 69.6916 65.47 68.8895 61.9574C68.6798 61.0394 68.5175 60.2799 68.529 60.2694C68.5404 60.259 69.2903 60.002 70.1955 59.6982C75.5549 57.8997 79.3658 55.2407 80.8058 52.2951C82.3915 49.0521 81.2347 45.6599 77.6012 42.8974C75.7404 41.4828 72.9767 40.1024 70.1269 39.1642C69.4858 38.9531 68.9188 38.7415 68.867 38.694C68.815 38.6465 68.887 38.1104 69.0267 37.5028C69.5941 35.0362 69.7746 33.4155 69.7729 30.8053C69.7716 28.6259 69.7263 28.0688 69.4649 27.0132C69.0155 25.1991 68.3258 23.8566 67.3255 22.8494C66.3958 21.9133 65.7225 21.5151 64.5479 21.207C61.0785 20.2971 56.1653 22.4188 51.2916 26.9319C50.5494 27.6192 49.9136 28.1815 49.8788 28.1815C49.844 28.1815 49.3712 27.7589 48.8283 27.2424C44.1175 22.761 39.0079 20.4275 35.6029 21.2022ZM39.5065 24.3037C41.5978 25.0273 44.5132 26.9556 46.8738 29.1767L47.9636 30.2021L46.5524 31.8501C45.7763 32.7565 44.6444 34.1671 44.0373 34.9849C43.3756 35.8762 42.8176 36.4944 42.6443 36.5284C42.4854 36.5596 41.7074 36.6566 40.9154 36.7437C39.1372 36.9395 36.5618 37.3693 35.0289 37.726C34.1784 37.9239 33.8483 37.9527 33.7763 37.8356C33.6372 37.609 33.1325 34.9548 32.9653 33.5707C32.7645 31.9085 32.7903 29.3462 33.0199 28.1591C33.7798 24.2296 35.8083 23.0239 39.5065 24.3037ZM63.9435 23.9789C65.3477 24.3987 66.3235 25.7409 66.7713 27.8685C67.0037 28.9736 67.0368 32.2272 66.8315 33.7989C66.6557 35.1442 66.1417 37.745 66.0252 37.8784C65.9775 37.9331 65.6079 37.89 65.2039 37.7827C64.1551 37.5042 60.6177 36.9151 58.6069 36.6842C56.9993 36.4997 56.8754 36.4638 56.6183 36.1083C55.9256 35.1509 54.0671 32.8206 53.0135 31.5884L51.853 30.2309L52.8548 29.3098C55.7554 26.643 58.4001 24.9129 60.6787 24.1919C62.1879 23.7143 62.903 23.6677 63.9435 23.9789ZM50.6597 33.0511C51.7227 34.2825 53.1211 36.0187 53.1211 36.107C53.1211 36.1531 51.6666 36.1909 49.8889 36.1909H46.6567L46.9261 35.8112C47.4083 35.131 49.8316 32.3243 49.9349 32.3261C49.9902 32.327 50.3163 32.6532 50.6597 33.0511ZM55.2972 39.2192C55.8455 39.5147 59.3799 45.3191 60.9421 48.4897L61.6608 49.9482L60.8752 51.5278C59.8259 53.638 58.6351 55.7478 57.3026 57.8581L56.2042 59.5978L55.3141 59.7106C54.0794 59.8672 46.9268 59.8993 45.1213 59.7563L43.6359 59.6387L42.7347 58.2373C41.5232 56.3533 39.9854 53.646 38.9832 51.6328L38.1598 49.9789L39.2468 47.8789C40.7009 45.0697 43.0279 41.1736 44.3721 39.298C44.4265 39.2221 45.1059 39.1189 45.8818 39.0689C47.902 38.9384 54.9861 39.0515 55.2972 39.2192ZM39.5655 41.5898C38.8965 42.6838 37.9953 44.247 37.5631 45.0634C37.1306 45.8799 36.748 46.5479 36.7129 46.5479C36.5393 46.5479 34.6068 41.2932 34.6068 40.8215C34.6068 40.6993 35.3173 40.5059 36.8354 40.2148C38.937 39.8119 40.6652 39.5308 40.7457 39.5792C40.7655 39.5911 40.2345 40.4958 39.5655 41.5898ZM60.3212 39.7147C61.0391 39.8051 65.2338 40.6088 65.2919 40.6669C65.402 40.7771 63.2675 46.5479 63.1165 46.5479C63.0687 46.5479 62.7955 46.0975 62.5094 45.5468C61.9013 44.3757 59.9717 41.0738 59.4083 40.2398C58.9378 39.5434 58.9304 39.4817 59.3269 39.564C59.4967 39.5993 59.944 39.6671 60.3212 39.7147ZM32.5385 43.4436C33.2112 45.4168 33.9946 47.4344 34.709 49.0336L35.11 49.9312L34.2556 51.9336C33.7857 53.0349 33.1374 54.6817 32.8147 55.5931C32.4922 56.5045 32.1784 57.3081 32.1174 57.3786C31.9513 57.5711 29.1459 56.597 27.3379 55.719C24.4142 54.2992 22.341 52.6108 21.5656 51.0183C21.0895 50.0405 21.1081 48.8112 21.6147 47.7724C22.3544 46.2559 24.8549 44.252 27.5439 43.0209C28.5596 42.5559 31.6176 41.4433 31.7693 41.4835C31.8303 41.4998 32.1765 42.3818 32.5385 43.4436ZM69.5172 41.9011C73.8431 43.3685 77.2937 45.6702 78.319 47.7724C78.8256 48.8112 78.8441 50.0405 78.3681 51.0183C77.928 51.9223 76.6571 53.2643 75.442 54.108C73.7446 55.2869 70.7694 56.6608 68.3927 57.3633L67.6871 57.572L67.1062 55.8958C66.7868 54.974 66.1246 53.2724 65.6348 52.1146L64.7442 50.0097L65.4993 48.2443C66.3855 46.1723 67.5811 42.9741 67.8067 42.0721C67.8939 41.7236 68.0075 41.4385 68.0591 41.4385C68.1108 41.4385 68.7668 41.6467 69.5172 41.9011ZM48.3211 43.3153C47.0499 43.6552 46.1174 44.2004 45.1622 45.1623C42.4315 47.9118 42.4292 52.0961 45.1568 54.8283C47.9137 57.5897 52.0447 57.5924 54.7669 54.8348C56.9395 52.6339 57.413 49.6338 56.031 46.8262C55.5357 45.8198 54.0767 44.344 53.1211 43.8825C51.524 43.1113 49.8324 42.9115 48.3211 43.3153ZM51.8096 46.3305C53.244 47.0372 54.0069 48.3113 54.0069 50.0003C54.0069 51.1767 53.7221 51.9636 52.9944 52.7982C51.8786 54.0778 49.7418 54.4714 48.159 53.6888C45.9612 52.602 45.2099 49.8531 46.5355 47.7484C47.6296 46.0112 49.9146 45.3969 51.8096 46.3305ZM38.4929 56.4907C39.0711 57.5161 39.6756 58.5602 39.8363 58.811L40.1285 59.2669L39.8019 59.1969C39.6223 59.1584 39.0125 59.055 38.4468 58.9671C37.3126 58.7909 34.9998 58.3135 34.9276 58.2406C34.8652 58.1778 35.4059 56.601 36.1137 54.7819L36.6981 53.2803L37.0697 53.9534C37.2742 54.3236 37.9147 55.4654 38.4929 56.4907ZM64.5578 56.9008L65.0412 58.2696L64.0527 58.4863C62.7597 58.7697 59.9269 59.2468 59.871 59.1907C59.8472 59.1665 60.1633 58.5892 60.5738 57.9077C60.9841 57.2262 61.7365 55.9059 62.2457 54.9735L63.1715 53.2785L63.623 54.4052C63.8712 55.025 64.292 56.148 64.5578 56.9008ZM38.9954 61.867C40.0137 62.0156 41.1267 62.1735 41.4689 62.218C42.0624 62.2951 42.1279 62.3506 42.8996 63.4339C43.7301 64.6 46.3553 67.9129 47.3944 69.1064L47.9783 69.7768L47.1554 70.5274C43.0881 74.2366 39.7582 76.0922 37.1135 76.1231C35.4774 76.1423 34.4605 75.5 33.6782 73.9536C32.4946 71.6134 32.5911 66.4357 33.9101 61.5031L34.0573 60.9531L35.6005 61.275C36.4494 61.452 37.9771 61.7184 38.9954 61.867ZM66.2061 62.5411C66.805 65.063 67.0139 66.7562 67.0188 69.1263C67.0238 71.5112 66.8416 72.6264 66.226 73.981C64.7014 77.3362 60.667 76.8858 55.2673 72.7573C54.5018 72.1721 53.4165 71.2667 52.8556 70.7456L51.836 69.7978L52.9781 68.4955C54.1669 67.1399 56.0171 64.7861 57.1249 63.22C57.7342 62.3587 57.8042 62.3053 58.4278 62.2246C60.2622 61.9877 63.7015 61.4329 64.3669 61.2667C65.8715 60.8909 65.803 60.8434 66.2061 62.5411ZM53.7055 63.1192C52.9999 64.0774 51.804 65.5567 50.8799 66.6141C49.9528 67.6749 49.933 67.6885 49.6559 67.4427C49.3002 67.1271 46.7493 64.046 46.1772 63.2406L45.7476 62.6359H49.9044H54.0614L53.7055 63.1192Z" fill="#61DAFB"/>
</svg>
