<svg id="Layer_1" data-name="Layer 1" xmlns="http://www.w3.org/2000/svg" viewBox="0 0 60 60"><defs><style>.cls-1{fill:#fe0030;}</style></defs><title>1</title><path class="cls-1" d="M30,16.26A13.64,13.64,0,1,0,43.64,29.9,13.65,13.65,0,0,0,30,16.26Zm0,21.53a7.9,7.9,0,1,1,7.9-7.89A7.89,7.89,0,0,1,30,37.79Z"/><path class="cls-1" d="M47.13,16.46A3.49,3.49,0,1,1,43.64,13,3.5,3.5,0,0,1,47.13,16.46Z"/><path class="cls-1" d="M51.7,8.41A15,15,0,0,0,40.56,4.06H19.44c-9.2,0-15.38,6.18-15.38,15.38v21A15.31,15.31,0,0,0,8.52,51.8a15.5,15.5,0,0,0,11,4.14H40.46A15.67,15.67,0,0,0,51.59,51.8a15.14,15.14,0,0,0,4.35-11.24V19.44A15.19,15.19,0,0,0,51.7,8.41ZM40.46,50.2H19.54a10.13,10.13,0,0,1-7.12-2.51A9.81,9.81,0,0,1,9.8,40.46v-21a9.68,9.68,0,0,1,2.62-7.13A10,10,0,0,1,19.54,9.8H40.67a9.7,9.7,0,0,1,7.11,2.6,10.2,10.2,0,0,1,2.63,7V40.56a9.52,9.52,0,0,1-2.82,7.12A10.15,10.15,0,0,1,40.46,50.2Z"/></svg>