<svg width="48" height="48" viewBox="0 0 48 48" fill="none" xmlns="http://www.w3.org/2000/svg">
<rect width="48" height="48" rx="7" fill="#0C0C0C"/>
<g clip-path="url(#clip0_607_484)">
<path d="M24 24.5C24 23.2181 24.5268 21.9887 25.4645 21.0823C26.4021 20.1759 27.6739 19.6666 29 19.6666C30.3261 19.6666 31.5979 20.1759 32.5355 21.0823C33.4732 21.9887 34 23.2181 34 24.5C34 25.7818 33.4732 27.0112 32.5355 27.9176C31.5979 28.8241 30.3261 29.3333 29 29.3333C27.6739 29.3333 26.4021 28.8241 25.4645 27.9176C24.5268 27.0112 24 25.7818 24 24.5V24.5Z" fill="#1ABCFE"/>
<path d="M14 34.1667C14 32.8848 14.5268 31.6555 15.4645 30.749C16.4021 29.8426 17.6739 29.3334 19 29.3334H24V34.1667C24 35.4486 23.4732 36.678 22.5355 37.5844C21.5979 38.4908 20.3261 39 19 39C17.6739 39 16.4021 38.4908 15.4645 37.5844C14.5268 36.678 14 35.4486 14 34.1667V34.1667Z" fill="#0ACF83"/>
<path d="M24 10V19.6667H29C30.3261 19.6667 31.5979 19.1574 32.5355 18.251C33.4732 17.3446 34 16.1152 34 14.8333C34 13.5515 33.4732 12.3221 32.5355 11.4157C31.5979 10.5092 30.3261 10 29 10H24Z" fill="#FF7262"/>
<path d="M14 14.8333C14 16.1152 14.5268 17.3446 15.4645 18.251C16.4021 19.1574 17.6739 19.6667 19 19.6667H24V10H19C17.6739 10 16.4021 10.5092 15.4645 11.4157C14.5268 12.3221 14 13.5515 14 14.8333V14.8333Z" fill="#F24E1E"/>
<path d="M14 24.5C14 25.7818 14.5268 27.0112 15.4645 27.9176C16.4021 28.8241 17.6739 29.3333 19 29.3333H24V19.6666H19C17.6739 19.6666 16.4021 20.1759 15.4645 21.0823C14.5268 21.9887 14 23.2181 14 24.5V24.5Z" fill="#A259FF"/>
</g>
<defs>
<clipPath id="clip0_607_484">
<rect width="20" height="29" fill="white" transform="translate(14 10)"/>
</clipPath>
</defs>
</svg>
