<svg width="31" height="47" viewBox="0 0 31 47" fill="none" xmlns="http://www.w3.org/2000/svg">
<g clip-path="url(#clip0_351_571)">
<path d="M15.5 23.5001C15.5 21.4226 16.3165 19.4301 17.7699 17.9611C19.2233 16.492 21.1946 15.6667 23.25 15.6667C25.3054 15.6667 27.2767 16.492 28.7301 17.9611C30.1835 19.4301 31 21.4226 31 23.5001C31 25.5776 30.1835 27.57 28.7301 29.0391C27.2767 30.5081 25.3054 31.3334 23.25 31.3334C21.1946 31.3334 19.2233 30.5081 17.7699 29.0391C16.3165 27.57 15.5 25.5776 15.5 23.5001Z" fill="#1ABCFE"/>
<path d="M0 39.1666C0 37.0891 0.816515 35.0966 2.26992 33.6276C3.72333 32.1585 5.69457 31.3333 7.75 31.3333H15.5V39.1666C15.5 41.2441 14.6835 43.2366 13.2301 44.7056C11.7767 46.1746 9.80543 46.9999 7.75 46.9999C5.69457 46.9999 3.72333 46.1746 2.26992 44.7056C0.816515 43.2366 0 41.2441 0 39.1666H0Z" fill="#0ACF83"/>
<path d="M15.5 0V15.6667H23.25C25.3054 15.6667 27.2767 14.8414 28.7301 13.3723C30.1835 11.9033 31 9.91086 31 7.83333C31 5.7558 30.1835 3.76337 28.7301 2.29433C27.2767 0.825295 25.3054 0 23.25 0L15.5 0Z" fill="#FF7262"/>
<path d="M0 7.83333C0 9.91086 0.816515 11.9033 2.26992 13.3723C3.72333 14.8414 5.69457 15.6667 7.75 15.6667H15.5V0H7.75C5.69457 0 3.72333 0.825295 2.26992 2.29433C0.816515 3.76337 0 5.7558 0 7.83333H0Z" fill="#F24E1E"/>
<path d="M0 23.5001C0 25.5776 0.816515 27.57 2.26992 29.0391C3.72333 30.5081 5.69457 31.3334 7.75 31.3334H15.5V15.6667H7.75C5.69457 15.6667 3.72333 16.492 2.26992 17.9611C0.816515 19.4301 0 21.4226 0 23.5001H0Z" fill="#A259FF"/>
</g>
<defs>
<clipPath id="clip0_351_571">
<rect width="31" height="47" fill="white"/>
</clipPath>
</defs>
</svg>
