<svg width="118" height="40" viewBox="0 0 118 40" fill="none" xmlns="http://www.w3.org/2000/svg">
<g clip-path="url(#clip0_23_451)">
<path d="M21.0014 30.56C26.8335 30.56 31.5614 25.8321 31.5614 20C31.5614 14.1679 26.8335 9.44 21.0014 9.44C15.1693 9.44 10.4414 14.1679 10.4414 20C10.4414 25.8321 15.1693 30.56 21.0014 30.56Z" stroke="#1C99F6" stroke-miterlimit="10" stroke-linecap="round"/>
<path d="M20.9988 30.56C23.9148 30.56 26.2788 25.8321 26.2788 20C26.2788 14.1679 23.9148 9.44 20.9988 9.44C18.0827 9.44 15.7188 14.1679 15.7188 20C15.7188 25.8321 18.0827 30.56 20.9988 30.56Z" stroke="#1C99F6" stroke-miterlimit="10" stroke-linecap="round"/>
<path d="M12.8008 26.7927C14.7372 25.6008 17.6909 24.84 21.0002 24.84C24.2641 24.84 27.1817 25.5801 29.1186 26.743" stroke="#1C99F6" stroke-miterlimit="10"/>
<path d="M29.2007 13.2077C27.2642 14.3992 24.3105 15.16 21.0013 15.16C17.7378 15.16 14.8197 14.4199 12.8828 13.257" stroke="#1C99F6" stroke-miterlimit="10"/>
<path d="M10.4414 20H31.5614" stroke="#1C99F6" stroke-miterlimit="10"/>
<path d="M21 9.44V30.56" stroke="#1C99F6" stroke-miterlimit="10"/>
</g>
<path d="M55.72 15.27L52.836 25H51.03L48.986 17.636L46.816 25L45.024 25.014L42.266 15.27H43.96L45.976 23.194L48.16 15.27H49.952L51.982 23.152L54.012 15.27H55.72ZM64.1063 20.954C64.1063 21.2433 64.0877 21.5047 64.0503 21.738H58.1563C58.203 22.354 58.4317 22.8487 58.8423 23.222C59.253 23.5953 59.757 23.782 60.3543 23.782C61.213 23.782 61.8197 23.4227 62.1743 22.704H63.8963C63.663 23.4133 63.2383 23.9967 62.6223 24.454C62.0157 24.902 61.2597 25.126 60.3543 25.126C59.617 25.126 58.9543 24.9627 58.3663 24.636C57.7877 24.3 57.3303 23.8333 56.9943 23.236C56.6677 22.6293 56.5043 21.9293 56.5043 21.136C56.5043 20.3427 56.663 19.6473 56.9803 19.05C57.307 18.4433 57.7597 17.9767 58.3383 17.65C58.9263 17.3233 59.5983 17.16 60.3543 17.16C61.0823 17.16 61.731 17.3187 62.3003 17.636C62.8697 17.9533 63.313 18.4013 63.6303 18.98C63.9477 19.5493 64.1063 20.2073 64.1063 20.954ZM62.4403 20.45C62.431 19.862 62.221 19.3907 61.8103 19.036C61.3997 18.6813 60.891 18.504 60.2843 18.504C59.7337 18.504 59.2623 18.6813 58.8703 19.036C58.4783 19.3813 58.245 19.8527 58.1703 20.45H62.4403ZM67.273 18.434C67.5436 18.0607 67.9123 17.7573 68.379 17.524C68.855 17.2813 69.3823 17.16 69.961 17.16C70.6423 17.16 71.2583 17.3233 71.809 17.65C72.3596 17.9767 72.7936 18.4433 73.111 19.05C73.4283 19.6473 73.587 20.3333 73.587 21.108C73.587 21.8827 73.4283 22.578 73.111 23.194C72.7936 23.8007 72.355 24.2767 71.795 24.622C71.2443 24.958 70.633 25.126 69.961 25.126C69.3636 25.126 68.8316 25.0093 68.365 24.776C67.9076 24.5427 67.5436 24.244 67.273 23.88V25H65.677V14.64H67.273V18.434ZM71.963 21.108C71.963 20.576 71.851 20.1187 71.627 19.736C71.4123 19.344 71.123 19.05 70.759 18.854C70.4043 18.6487 70.0216 18.546 69.611 18.546C69.2096 18.546 68.827 18.6487 68.463 18.854C68.1083 19.0593 67.819 19.358 67.595 19.75C67.3803 20.142 67.273 20.604 67.273 21.136C67.273 21.668 67.3803 22.1347 67.595 22.536C67.819 22.928 68.1083 23.2267 68.463 23.432C68.827 23.6373 69.2096 23.74 69.611 23.74C70.0216 23.74 70.4043 23.6373 70.759 23.432C71.123 23.2173 71.4123 22.9093 71.627 22.508C71.851 22.1067 71.963 21.64 71.963 21.108ZM77.9652 25.126C77.3586 25.126 76.8126 25.0187 76.3272 24.804C75.8512 24.58 75.4732 24.2813 75.1932 23.908C74.9132 23.5253 74.7639 23.1007 74.7452 22.634H76.3972C76.4252 22.9607 76.5792 23.236 76.8592 23.46C77.1486 23.6747 77.5079 23.782 77.9372 23.782C78.3852 23.782 78.7306 23.698 78.9732 23.53C79.2252 23.3527 79.3512 23.1287 79.3512 22.858C79.3512 22.5687 79.2112 22.354 78.9312 22.214C78.6606 22.074 78.2266 21.92 77.6292 21.752C77.0506 21.5933 76.5792 21.4393 76.2152 21.29C75.8512 21.1407 75.5339 20.912 75.2632 20.604C75.0019 20.296 74.8712 19.89 74.8712 19.386C74.8712 18.9753 74.9926 18.602 75.2352 18.266C75.4779 17.9207 75.8232 17.65 76.2712 17.454C76.7286 17.258 77.2512 17.16 77.8392 17.16C78.7166 17.16 79.4212 17.384 79.9532 17.832C80.4946 18.2707 80.7839 18.8727 80.8212 19.638H79.2252C79.1972 19.2927 79.0572 19.0173 78.8052 18.812C78.5532 18.6067 78.2126 18.504 77.7832 18.504C77.3632 18.504 77.0412 18.5833 76.8172 18.742C76.5932 18.9007 76.4812 19.1107 76.4812 19.372C76.4812 19.5773 76.5559 19.75 76.7052 19.89C76.8546 20.03 77.0366 20.142 77.2512 20.226C77.4659 20.3007 77.7832 20.3987 78.2032 20.52C78.7632 20.6693 79.2206 20.8233 79.5752 20.982C79.9392 21.1313 80.2519 21.3553 80.5132 21.654C80.7746 21.9527 80.9099 22.3493 80.9192 22.844C80.9192 23.2827 80.7979 23.6747 80.5552 24.02C80.3126 24.3653 79.9672 24.636 79.5192 24.832C79.0806 25.028 78.5626 25.126 77.9652 25.126ZM83.4558 16.264C83.1664 16.264 82.9238 16.166 82.7278 15.97C82.5318 15.774 82.4338 15.5313 82.4338 15.242C82.4338 14.9527 82.5318 14.71 82.7278 14.514C82.9238 14.318 83.1664 14.22 83.4558 14.22C83.7358 14.22 83.9738 14.318 84.1698 14.514C84.3658 14.71 84.4638 14.9527 84.4638 15.242C84.4638 15.5313 84.3658 15.774 84.1698 15.97C83.9738 16.166 83.7358 16.264 83.4558 16.264ZM84.2398 17.286V25H82.6438V17.286H84.2398ZM88.1972 18.588V22.858C88.1972 23.1473 88.2625 23.3573 88.3932 23.488C88.5332 23.6093 88.7665 23.67 89.0932 23.67H90.0732V25H88.8132C88.0945 25 87.5438 24.832 87.1612 24.496C86.7785 24.16 86.5872 23.614 86.5872 22.858V18.588H85.6772V17.286H86.5872V15.368H88.1972V17.286H90.0732V18.588H88.1972ZM98.6141 20.954C98.6141 21.2433 98.5955 21.5047 98.5581 21.738H92.6641C92.7108 22.354 92.9395 22.8487 93.3501 23.222C93.7608 23.5953 94.2648 23.782 94.8621 23.782C95.7208 23.782 96.3275 23.4227 96.6821 22.704H98.4041C98.1708 23.4133 97.7461 23.9967 97.1301 24.454C96.5235 24.902 95.7675 25.126 94.8621 25.126C94.1248 25.126 93.4621 24.9627 92.8741 24.636C92.2955 24.3 91.8381 23.8333 91.5021 23.236C91.1755 22.6293 91.0121 21.9293 91.0121 21.136C91.0121 20.3427 91.1708 19.6473 91.4881 19.05C91.8148 18.4433 92.2675 17.9767 92.8461 17.65C93.4341 17.3233 94.1061 17.16 94.8621 17.16C95.5901 17.16 96.2388 17.3187 96.8081 17.636C97.3775 17.9533 97.8208 18.4013 98.1381 18.98C98.4555 19.5493 98.6141 20.2073 98.6141 20.954ZM96.9481 20.45C96.9388 19.862 96.7288 19.3907 96.3181 19.036C95.9075 18.6813 95.3988 18.504 94.7921 18.504C94.2415 18.504 93.7701 18.6813 93.3781 19.036C92.9861 19.3813 92.7528 19.8527 92.6781 20.45H96.9481Z" fill="#D6D6D6"/>
<rect x="0.25" y="0.25" width="117.5" height="39.5" rx="4.75" stroke="white" stroke-width="0.5"/>
<defs>
<clipPath id="clip0_23_451">
<rect width="22" height="22" fill="white" transform="translate(10 9)"/>
</clipPath>
</defs>
</svg>
